{"glyphs":{"0":{"ha":764,"x_min":65,"x_max":699,"o":"m 382 -24 q 142 95 219 -24 q 65 467 65 214 q 143 835 65 715 q 382 956 221 956 q 618 834 538 956 q 699 467 699 713 q 619 97 699 217 q 382 -24 539 -24 m 382 118 q 496 202 457 118 q 535 475 535 286 q 382 814 535 814 q 267 732 304 814 q 229 467 229 650 q 267 199 229 279 q 382 118 304 118 z "},"1":{"ha":764,"x_min":126,"x_max":651,"o":"m 651 144 l 651 0 l 126 0 l 126 144 l 308 144 l 308 792 l 154 792 l 154 936 l 469 936 l 469 144 l 651 144 z "},"2":{"ha":764,"x_min":72,"x_max":706,"o":"m 72 144 q 340 388 258 310 q 464 532 421 467 q 507 661 507 597 q 463 775 507 736 q 343 814 419 814 q 107 757 218 814 l 107 904 q 236 944 172 933 q 369 956 300 956 q 587 883 503 956 q 671 674 671 810 q 627 508 671 586 q 512 357 583 429 q 306 165 440 285 l 283 144 l 706 144 l 706 0 l 72 0 l 72 144 z "},"3":{"ha":764,"x_min":93,"x_max":685,"o":"m 510 494 q 640 409 594 469 q 685 257 685 349 q 596 52 685 128 q 356 -24 507 -24 q 93 25 207 -24 l 93 172 q 207 133 146 147 q 328 118 268 118 q 471 160 421 118 q 521 278 521 201 q 471 385 521 349 q 328 422 421 422 l 204 422 l 204 564 l 328 564 q 461 596 415 564 q 507 690 507 628 q 463 781 507 749 q 336 814 418 814 q 107 765 204 814 l 107 913 q 356 956 211 956 q 586 890 501 956 q 671 714 671 825 q 631 576 671 628 q 510 494 590 524 z "},"4":{"ha":764,"x_min":28,"x_max":747,"o":"m 747 201 l 611 201 l 611 -24 l 450 -24 l 450 201 l 28 201 l 28 339 l 408 949 l 611 949 l 611 339 l 747 339 l 747 201 m 450 339 l 450 743 l 197 339 l 450 339 z "},"5":{"ha":764,"x_min":93,"x_max":692,"o":"m 361 603 q 605 519 518 603 q 692 297 692 436 q 598 60 692 143 q 333 -24 504 -24 q 93 17 200 -24 l 93 163 q 206 130 144 142 q 321 118 267 118 q 528 297 528 118 q 477 419 528 376 q 333 461 426 461 q 214 449 274 461 q 108 419 154 438 l 118 936 l 638 936 l 638 792 l 275 792 l 271 597 q 361 603 310 603 z "},"6":{"ha":764,"x_min":58,"x_max":710,"o":"m 417 588 q 572 550 506 588 q 674 446 638 513 q 710 293 710 379 q 669 126 710 197 q 556 15 628 54 q 394 -24 485 -24 q 145 72 232 -24 q 58 343 58 167 q 170 685 58 532 q 488 953 282 838 l 590 850 q 385 699 463 769 q 268 550 308 629 q 417 588 340 588 m 392 111 q 503 158 460 111 q 546 286 546 204 q 502 413 546 367 q 388 460 458 460 q 226 407 301 460 q 222 331 222 372 q 268 165 224 219 q 392 111 313 111 z "},"7":{"ha":764,"x_min":88,"x_max":701,"o":"m 701 936 l 701 792 l 353 -24 l 174 -24 l 538 792 l 88 792 l 88 936 l 701 936 z "},"8":{"ha":764,"x_min":56,"x_max":708,"o":"m 540 488 q 664 392 619 454 q 708 246 708 329 q 667 104 708 165 q 553 10 626 43 q 382 -24 479 -24 q 144 49 232 -24 q 56 246 56 122 q 99 392 56 329 q 221 488 142 456 q 122 575 157 518 q 86 704 86 632 q 122 833 86 776 q 225 923 158 890 q 382 956 292 956 q 535 923 468 956 q 640 833 603 890 q 678 704 678 776 q 642 576 678 632 q 540 488 606 519 m 382 821 q 288 783 325 821 q 250 688 250 746 q 288 590 250 628 q 382 553 325 553 q 477 590 440 553 q 514 688 514 628 q 476 783 514 746 q 382 821 439 821 m 382 111 q 498 153 451 111 q 544 264 544 194 q 498 374 544 333 q 382 415 451 415 q 266 374 313 415 q 219 264 219 333 q 266 153 219 194 q 382 111 313 111 z "},"9":{"ha":764,"x_min":54,"x_max":706,"o":"m 369 954 q 619 859 532 954 q 706 589 706 764 q 594 247 706 400 q 276 -22 482 93 l 174 81 q 378 232 301 163 q 494 381 456 301 q 347 343 422 343 q 193 381 260 343 q 90 485 126 418 q 54 639 54 553 q 95 805 54 733 q 208 915 136 876 q 369 954 279 954 m 376 471 q 536 524 464 471 q 542 601 542 556 q 496 765 540 711 q 372 819 451 819 q 261 774 304 819 q 218 646 218 728 q 262 518 218 565 q 376 471 306 471 z "},"\r":{"ha":833,"x_min":0,"x_max":0,"o":""}," ":{"ha":306,"x_min":0,"x_max":0,"o":""},"A":{"ha":1047,"x_min":39,"x_max":1010,"o":"m 739 283 l 307 283 l 206 0 l 39 0 l 428 1065 l 619 1065 l 1010 0 l 843 0 l 739 283 m 686 428 l 524 878 l 360 428 l 686 428 z "},"Á":{"ha":1047,"x_min":39,"x_max":1010,"o":"m 39 0 m 739 283 l 307 283 l 206 0 l 39 0 l 428 1065 l 619 1065 l 1010 0 l 843 0 l 739 283 m 686 428 l 524 878 l 360 428 l 686 428 m 585 1374 l 769 1374 l 601 1161 l 442 1161 l 585 1374 z "},"Ă":{"ha":1047,"x_min":39,"x_max":1010,"o":"m 39 0 m 739 283 l 307 283 l 206 0 l 39 0 l 428 1065 l 619 1065 l 1010 0 l 843 0 l 739 283 m 686 428 l 524 878 l 360 428 l 686 428 m 525 1157 q 363 1206 422 1157 q 303 1351 303 1254 l 303 1371 l 428 1371 l 428 1354 q 451 1282 428 1306 q 525 1258 475 1258 q 599 1282 576 1258 q 622 1354 622 1306 l 622 1371 l 747 1371 l 747 1351 q 690 1206 749 1254 q 525 1157 631 1157 z "},"Â":{"ha":1047,"x_min":39,"x_max":1010,"o":"m 39 0 m 739 283 l 307 283 l 206 0 l 39 0 l 428 1065 l 619 1065 l 1010 0 l 843 0 l 739 283 m 686 428 l 524 878 l 360 428 l 686 428 m 607 1161 l 524 1307 l 439 1161 l 275 1161 l 422 1374 l 624 1374 l 771 1161 l 607 1161 z "},"Ä":{"ha":1047,"x_min":39,"x_max":1010,"o":"m 39 0 m 739 283 l 307 283 l 206 0 l 39 0 l 428 1065 l 619 1065 l 1010 0 l 843 0 l 739 283 m 686 428 l 524 878 l 360 428 l 686 428 m 597 1358 l 742 1358 l 742 1176 l 597 1176 l 597 1358 m 308 1358 l 453 1358 l 453 1176 l 308 1176 l 308 1358 z "},"À":{"ha":1047,"x_min":39,"x_max":1010,"o":"m 39 0 m 739 283 l 307 283 l 206 0 l 39 0 l 428 1065 l 619 1065 l 1010 0 l 843 0 l 739 283 m 686 428 l 524 878 l 360 428 l 686 428 m 290 1374 l 475 1374 l 618 1161 l 458 1161 l 290 1374 z "},"Ā":{"ha":1047,"x_min":39,"x_max":1010,"o":"m 39 0 m 739 283 l 307 283 l 206 0 l 39 0 l 428 1065 l 619 1065 l 1010 0 l 843 0 l 739 283 m 686 428 l 524 878 l 360 428 l 686 428 m 308 1322 l 738 1322 l 738 1214 l 308 1214 l 308 1322 z "},"Ą":{"ha":1047,"x_min":39,"x_max":1010,"o":"m 39 0 m 739 283 l 307 283 l 206 0 l 39 0 l 428 1065 l 619 1065 l 1010 0 l 843 0 l 739 283 m 686 428 l 524 878 l 360 428 l 686 428 m 917 -337 q 790 -303 832 -337 q 747 -208 747 -268 q 875 0 747 -100 l 1010 0 q 909 -95 944 -50 q 874 -185 874 -140 q 938 -237 874 -237 q 1010 -221 976 -237 l 1010 -321 q 917 -337 964 -337 z "},"Å":{"ha":1047,"x_min":39,"x_max":1010,"o":"m 39 0 m 739 283 l 307 283 l 206 0 l 39 0 l 428 1065 l 619 1065 l 1010 0 l 843 0 l 739 283 m 686 428 l 524 878 l 360 428 l 686 428 m 524 1139 q 413 1175 453 1139 q 374 1267 374 1211 q 413 1358 374 1324 q 524 1393 451 1393 q 634 1358 596 1393 q 672 1267 672 1324 q 633 1174 672 1210 q 524 1139 594 1139 m 524 1213 q 565 1227 550 1213 q 581 1267 581 1242 q 565 1306 581 1292 q 524 1321 550 1321 q 481 1306 497 1321 q 465 1267 465 1292 q 481 1227 465 1242 q 524 1213 497 1213 z "},"Ã":{"ha":1047,"x_min":39,"x_max":1010,"o":"m 39 0 m 739 283 l 307 283 l 206 0 l 39 0 l 428 1065 l 619 1065 l 1010 0 l 843 0 l 739 283 m 686 428 l 524 878 l 360 428 l 686 428 m 293 1179 q 419 1347 296 1347 q 500 1329 458 1347 l 551 1307 q 600 1293 588 1293 q 635 1347 635 1293 l 753 1347 q 628 1179 751 1179 q 547 1197 589 1179 l 496 1219 q 447 1233 463 1233 q 411 1179 411 1233 l 293 1179 z "},"Æ":{"ha":1515,"x_min":42,"x_max":1432,"o":"m 1432 138 l 1432 0 l 772 0 l 772 318 l 414 318 l 222 0 l 42 0 l 689 1053 l 1425 1053 l 1425 915 l 936 915 l 936 599 l 1356 599 l 1356 461 l 936 461 l 936 138 l 1432 138 m 772 456 l 772 911 l 497 456 l 772 456 z "},"B":{"ha":997,"x_min":139,"x_max":908,"o":"m 719 535 q 860 442 811 506 q 908 288 908 379 q 819 71 908 142 q 522 0 731 0 l 139 0 l 139 1053 l 522 1053 q 789 983 711 1053 q 867 771 867 913 q 831 627 867 686 q 719 535 796 568 m 303 596 l 522 596 q 700 761 700 596 q 660 882 700 846 q 522 918 619 918 l 303 918 l 303 596 m 742 299 q 686 422 742 383 q 522 461 631 461 l 303 461 l 303 135 l 522 135 q 692 174 643 135 q 742 299 742 213 z "},"C":{"ha":983,"x_min":71,"x_max":935,"o":"m 596 -24 q 305 44 422 -24 q 129 236 188 113 q 71 525 71 360 q 129 804 71 681 q 306 1000 188 928 q 596 1072 424 1072 q 727 1060 669 1072 q 851 1021 785 1049 l 851 874 q 600 931 738 931 q 408 878 490 931 q 281 735 325 826 q 238 525 238 643 q 281 313 239 404 q 403 169 322 221 q 596 118 483 118 q 738 139 668 118 q 885 199 807 160 l 935 61 q 765 -2 854 19 q 596 -24 676 -24 z "},"Ć":{"ha":983,"x_min":71,"x_max":935,"o":"m 71 0 m 596 -24 q 305 44 422 -24 q 129 236 188 113 q 71 525 71 360 q 129 804 71 681 q 306 1000 188 928 q 596 1072 424 1072 q 727 1060 669 1072 q 851 1021 785 1049 l 851 874 q 600 931 738 931 q 408 878 490 931 q 281 735 325 826 q 238 525 238 643 q 281 313 239 404 q 403 169 322 221 q 596 118 483 118 q 738 139 668 118 q 885 199 807 160 l 935 61 q 765 -2 854 19 q 596 -24 676 -24 m 601 1374 l 786 1374 l 618 1161 l 458 1161 l 601 1374 z "},"Č":{"ha":983,"x_min":71,"x_max":935,"o":"m 71 0 m 596 -24 q 305 44 422 -24 q 129 236 188 113 q 71 525 71 360 q 129 804 71 681 q 306 1000 188 928 q 596 1072 424 1072 q 727 1060 669 1072 q 851 1021 785 1049 l 851 874 q 600 931 738 931 q 408 878 490 931 q 281 735 325 826 q 238 525 238 643 q 281 313 239 404 q 403 169 322 221 q 596 118 483 118 q 738 139 668 118 q 885 199 807 160 l 935 61 q 765 -2 854 19 q 596 -24 676 -24 m 788 1374 l 640 1161 l 439 1161 l 292 1374 l 456 1374 l 540 1228 l 624 1374 l 788 1374 z "},"Ç":{"ha":983,"x_min":71,"x_max":935,"o":"m 615 -81 q 726 -118 688 -81 q 765 -217 765 -156 q 719 -325 765 -285 q 582 -365 672 -365 q 508 -360 542 -365 q 440 -337 475 -354 l 440 -239 q 568 -268 504 -268 q 627 -254 608 -268 q 646 -219 646 -240 q 574 -175 646 -175 q 463 -194 518 -175 l 514 -19 q 183 149 294 4 q 71 525 71 293 q 129 804 71 681 q 306 1000 188 928 q 596 1072 424 1072 q 727 1060 669 1072 q 851 1021 785 1049 l 851 874 q 600 931 738 931 q 408 878 490 931 q 281 735 325 826 q 238 525 238 643 q 281 313 239 404 q 403 169 322 221 q 596 118 483 118 q 738 139 668 118 q 885 199 807 160 l 935 61 q 781 2 861 24 q 624 -24 700 -19 l 606 -81 l 615 -81 z "},"Ċ":{"ha":983,"x_min":71,"x_max":935,"o":"m 71 0 m 596 -24 q 305 44 422 -24 q 129 236 188 113 q 71 525 71 360 q 129 804 71 681 q 306 1000 188 928 q 596 1072 424 1072 q 727 1060 669 1072 q 851 1021 785 1049 l 851 874 q 600 931 738 931 q 408 878 490 931 q 281 735 325 826 q 238 525 238 643 q 281 313 239 404 q 403 169 322 221 q 596 118 483 118 q 738 139 668 118 q 885 199 807 160 l 935 61 q 765 -2 854 19 q 596 -24 676 -24 m 463 1358 l 621 1358 l 621 1176 l 463 1176 l 463 1358 z "},"D":{"ha":1108,"x_min":139,"x_max":1033,"o":"m 494 1053 q 897 919 761 1053 q 1033 525 1033 785 q 898 132 1033 264 q 494 0 763 0 l 139 0 l 139 1053 l 494 1053 m 867 529 q 774 819 867 726 q 494 911 681 911 l 303 911 l 303 142 l 494 142 q 774 235 682 142 q 867 529 867 328 z "},"Ð":{"ha":1108,"x_min":24,"x_max":1033,"o":"m 494 1053 q 897 919 761 1053 q 1033 525 1033 785 q 898 132 1033 264 q 494 0 763 0 l 139 0 l 139 467 l 24 467 l 24 592 l 139 592 l 139 1053 l 494 1053 m 867 529 q 774 819 867 726 q 494 911 681 911 l 303 911 l 303 592 l 549 592 l 549 467 l 303 467 l 303 142 l 494 142 q 774 235 682 142 q 867 529 867 328 z "},"Ď":{"ha":1108,"x_min":139,"x_max":1033,"o":"m 139 0 m 494 1053 q 897 919 761 1053 q 1033 525 1033 785 q 898 132 1033 264 q 494 0 763 0 l 139 0 l 139 1053 l 494 1053 m 867 529 q 774 819 867 726 q 494 911 681 911 l 303 911 l 303 142 l 494 142 q 774 235 682 142 q 867 529 867 328 m 779 1374 l 632 1161 l 431 1161 l 283 1374 l 447 1374 l 532 1228 l 615 1374 l 779 1374 z "},"Đ":{"ha":1108,"x_min":24,"x_max":1033,"o":"m 24 0 m 494 1053 q 897 919 761 1053 q 1033 525 1033 785 q 898 132 1033 264 q 494 0 763 0 l 139 0 l 139 467 l 24 467 l 24 592 l 139 592 l 139 1053 l 494 1053 m 867 529 q 774 819 867 726 q 494 911 681 911 l 303 911 l 303 592 l 549 592 l 549 467 l 303 467 l 303 142 l 494 142 q 774 235 682 142 q 867 529 867 328 z "},"E":{"ha":882,"x_min":139,"x_max":799,"o":"m 799 138 l 799 0 l 139 0 l 139 1053 l 792 1053 l 792 915 l 303 915 l 303 599 l 722 599 l 722 461 l 303 461 l 303 138 l 799 138 z "},"É":{"ha":882,"x_min":139,"x_max":799,"o":"m 139 0 m 799 138 l 799 0 l 139 0 l 139 1053 l 792 1053 l 792 915 l 303 915 l 303 599 l 722 599 l 722 461 l 303 461 l 303 138 l 799 138 m 526 1374 l 711 1374 l 543 1161 l 383 1161 l 526 1374 z "},"Ě":{"ha":882,"x_min":139,"x_max":799,"o":"m 139 0 m 799 138 l 799 0 l 139 0 l 139 1053 l 792 1053 l 792 915 l 303 915 l 303 599 l 722 599 l 722 461 l 303 461 l 303 138 l 799 138 m 713 1374 l 565 1161 l 364 1161 l 217 1374 l 381 1374 l 465 1228 l 549 1374 l 713 1374 z "},"Ê":{"ha":882,"x_min":139,"x_max":799,"o":"m 139 0 m 799 138 l 799 0 l 139 0 l 139 1053 l 792 1053 l 792 915 l 303 915 l 303 599 l 722 599 l 722 461 l 303 461 l 303 138 l 799 138 m 549 1161 l 465 1307 l 381 1161 l 217 1161 l 364 1374 l 565 1374 l 713 1161 l 549 1161 z "},"Ë":{"ha":882,"x_min":139,"x_max":799,"o":"m 139 0 m 799 138 l 799 0 l 139 0 l 139 1053 l 792 1053 l 792 915 l 303 915 l 303 599 l 722 599 l 722 461 l 303 461 l 303 138 l 799 138 m 539 1358 l 683 1358 l 683 1176 l 539 1176 l 539 1358 m 250 1358 l 394 1358 l 394 1176 l 250 1176 l 250 1358 z "},"Ė":{"ha":882,"x_min":139,"x_max":799,"o":"m 139 0 m 799 138 l 799 0 l 139 0 l 139 1053 l 792 1053 l 792 915 l 303 915 l 303 599 l 722 599 l 722 461 l 303 461 l 303 138 l 799 138 m 388 1358 l 546 1358 l 546 1176 l 388 1176 l 388 1358 z "},"È":{"ha":882,"x_min":139,"x_max":799,"o":"m 139 0 m 799 138 l 799 0 l 139 0 l 139 1053 l 792 1053 l 792 915 l 303 915 l 303 599 l 722 599 l 722 461 l 303 461 l 303 138 l 799 138 m 232 1374 l 417 1374 l 560 1161 l 400 1161 l 232 1374 z "},"Ē":{"ha":882,"x_min":139,"x_max":799,"o":"m 139 0 m 257 1322 l 686 1322 l 686 1214 l 257 1214 l 257 1322 m 799 138 l 799 0 l 139 0 l 139 1053 l 792 1053 l 792 915 l 303 915 l 303 599 l 722 599 l 722 461 l 303 461 l 303 138 l 799 138 z "},"Ę":{"ha":882,"x_min":139,"x_max":799,"o":"m 139 0 m 799 138 l 799 0 l 139 0 l 139 1053 l 792 1053 l 792 915 l 303 915 l 303 599 l 722 599 l 722 461 l 303 461 l 303 138 l 799 138 m 706 -337 q 578 -303 621 -337 q 536 -208 536 -268 q 664 0 536 -100 l 799 0 q 698 -95 733 -50 q 663 -185 663 -140 q 726 -237 663 -237 q 799 -221 765 -237 l 799 -321 q 706 -337 753 -337 z "},"F":{"ha":854,"x_min":139,"x_max":792,"o":"m 303 908 l 303 581 l 722 581 l 722 436 l 303 436 l 303 0 l 139 0 l 139 1053 l 792 1053 l 792 908 l 303 908 z "},"G":{"ha":1067,"x_min":71,"x_max":958,"o":"m 958 643 l 958 74 q 778 1 875 26 q 596 -24 681 -24 q 308 45 425 -24 q 131 238 190 114 q 71 525 71 361 q 128 804 71 681 q 303 1000 185 928 q 596 1072 421 1072 q 751 1055 688 1072 q 893 1003 814 1038 l 893 851 q 753 910 822 890 q 596 931 685 931 q 403 879 485 931 q 280 737 322 828 q 238 529 238 646 q 279 315 238 407 q 402 170 321 222 q 596 118 483 118 q 797 163 692 118 l 797 499 l 438 499 l 438 643 l 958 643 z "},"Ğ":{"ha":1067,"x_min":71,"x_max":958,"o":"m 71 0 m 958 643 l 958 74 q 778 1 875 26 q 596 -24 681 -24 q 308 45 425 -24 q 131 238 190 114 q 71 525 71 361 q 128 804 71 681 q 303 1000 185 928 q 596 1072 421 1072 q 751 1055 688 1072 q 893 1003 814 1038 l 893 851 q 753 910 822 890 q 596 931 685 931 q 403 879 485 931 q 280 737 322 828 q 238 529 238 646 q 279 315 238 407 q 402 170 321 222 q 596 118 483 118 q 797 163 692 118 l 797 499 l 438 499 l 438 643 l 958 643 m 575 1157 q 413 1206 472 1157 q 353 1351 353 1254 l 353 1371 l 478 1371 l 478 1354 q 501 1282 478 1306 q 575 1258 525 1258 q 649 1282 626 1258 q 672 1354 672 1306 l 672 1371 l 797 1371 l 797 1351 q 740 1206 799 1254 q 575 1157 681 1157 z "},"Ģ":{"ha":1067,"x_min":71,"x_max":958,"o":"m 71 0 m 958 643 l 958 74 q 778 1 875 26 q 596 -24 681 -24 q 308 45 425 -24 q 131 238 190 114 q 71 525 71 361 q 128 804 71 681 q 303 1000 185 928 q 596 1072 421 1072 q 751 1055 688 1072 q 893 1003 814 1038 l 893 851 q 753 910 822 890 q 596 931 685 931 q 403 879 485 931 q 280 737 322 828 q 238 529 238 646 q 279 315 238 407 q 402 170 321 222 q 596 118 483 118 q 797 163 692 118 l 797 499 l 438 499 l 438 643 l 958 643 m 500 -111 l 667 -111 l 607 -342 l 456 -342 l 500 -111 z "},"Ġ":{"ha":1067,"x_min":71,"x_max":958,"o":"m 71 0 m 958 643 l 958 74 q 778 1 875 26 q 596 -24 681 -24 q 308 45 425 -24 q 131 238 190 114 q 71 525 71 361 q 128 804 71 681 q 303 1000 185 928 q 596 1072 421 1072 q 751 1055 688 1072 q 893 1003 814 1038 l 893 851 q 753 910 822 890 q 596 931 685 931 q 403 879 485 931 q 280 737 322 828 q 238 529 238 646 q 279 315 238 407 q 402 170 321 222 q 596 118 483 118 q 797 163 692 118 l 797 499 l 438 499 l 438 643 l 958 643 m 497 1358 l 656 1358 l 656 1176 l 497 1176 l 497 1358 z "},"H":{"ha":1107,"x_min":139,"x_max":968,"o":"m 968 1053 l 968 0 l 804 0 l 804 457 l 303 457 l 303 0 l 139 0 l 139 1053 l 303 1053 l 303 601 l 804 601 l 804 1053 l 968 1053 z "},"Ħ":{"ha":1076,"x_min":139,"x_max":968,"o":"m 968 1053 l 968 0 l 804 0 l 804 457 l 303 457 l 303 0 l 139 0 l 139 1053 l 303 1053 l 303 893 l 804 893 l 804 1053 l 968 1053 m 804 601 l 804 751 l 303 751 l 303 601 l 804 601 z "},"I":{"ha":442,"x_min":139,"x_max":303,"o":"m 139 1053 l 303 1053 l 303 0 l 139 0 l 139 1053 z "},"Ĳ":{"ha":904,"x_min":139,"x_max":765,"o":"m 139 0 m 139 1053 l 303 1053 l 303 0 l 139 0 l 139 1053 m 542 -182 q 450 -174 486 -182 l 450 -32 q 519 -37 478 -37 q 569 -26 553 -37 q 594 15 586 -15 q 601 106 601 46 l 601 1053 l 765 1053 l 765 97 q 746 -74 765 -15 q 679 -158 726 -133 q 542 -182 632 -182 z "},"Í":{"ha":442,"x_min":139,"x_max":467,"o":"m 139 0 m 139 1053 l 303 1053 l 303 0 l 139 0 l 139 1053 m 282 1374 l 467 1374 l 299 1161 l 139 1161 l 282 1374 z "},"Î":{"ha":442,"x_min":-28,"x_max":468,"o":"m 0 0 m 139 1053 l 303 1053 l 303 0 l 139 0 l 139 1053 m 304 1161 l 221 1307 l 136 1161 l -28 1161 l 119 1374 l 321 1374 l 468 1161 l 304 1161 z "},"Ï":{"ha":442,"x_min":6,"x_max":439,"o":"m 6 0 m 139 1053 l 303 1053 l 303 0 l 139 0 l 139 1053 m 294 1358 l 439 1358 l 439 1176 l 294 1176 l 294 1358 m 6 1358 l 150 1358 l 150 1176 l 6 1176 l 6 1358 z "},"İ":{"ha":442,"x_min":139,"x_max":303,"o":"m 139 0 m 139 1053 l 303 1053 l 303 0 l 139 0 l 139 1053 m 143 1358 l 301 1358 l 301 1176 l 143 1176 l 143 1358 z "},"Ì":{"ha":442,"x_min":-12,"x_max":315,"o":"m 0 0 m 139 1053 l 303 1053 l 303 0 l 139 0 l 139 1053 m -12 1374 l 172 1374 l 315 1161 l 156 1161 l -12 1374 z "},"Ī":{"ha":442,"x_min":6,"x_max":435,"o":"m 6 0 m 139 1053 l 303 1053 l 303 0 l 139 0 l 139 1053 m 6 1322 l 435 1322 l 435 1214 l 6 1214 l 6 1322 z "},"Į":{"ha":442,"x_min":25,"x_max":303,"o":"m 303 1053 l 303 0 l 288 0 q 187 -95 222 -50 q 151 -185 151 -140 q 215 -237 151 -237 q 288 -221 254 -237 l 288 -321 q 194 -337 242 -337 q 67 -303 110 -337 q 25 -208 25 -268 q 156 0 25 -100 l 139 0 l 139 1053 l 303 1053 z "},"J":{"ha":463,"x_min":8,"x_max":324,"o":"m 100 -182 q 8 -174 44 -182 l 8 -32 q 78 -37 36 -37 q 128 -26 111 -37 q 152 15 144 -15 q 160 106 160 46 l 160 1053 l 324 1053 l 324 97 q 304 -74 324 -15 q 238 -158 285 -133 q 100 -182 190 -182 z "},"K":{"ha":974,"x_min":139,"x_max":932,"o":"m 368 450 l 303 379 l 303 0 l 139 0 l 139 1053 l 303 1053 l 303 606 l 719 1053 l 925 1053 l 478 568 l 932 0 l 724 0 l 368 450 z "},"Ķ":{"ha":974,"x_min":139,"x_max":932,"o":"m 139 0 m 368 450 l 303 379 l 303 0 l 139 0 l 139 1053 l 303 1053 l 303 606 l 719 1053 l 925 1053 l 478 568 l 932 0 l 724 0 l 368 450 m 393 -111 l 560 -111 l 500 -342 l 349 -342 l 393 -111 z "},"L":{"ha":785,"x_min":139,"x_max":729,"o":"m 729 144 l 729 0 l 139 0 l 139 1053 l 303 1053 l 303 144 l 729 144 z "},"Ĺ":{"ha":785,"x_min":135,"x_max":729,"o":"m 135 0 m 729 144 l 729 0 l 139 0 l 139 1053 l 303 1053 l 303 144 l 729 144 m 278 1374 l 463 1374 l 294 1161 l 135 1161 l 278 1374 z "},"Ľ":{"ha":785,"x_min":139,"x_max":729,"o":"m 139 0 m 729 144 l 729 0 l 139 0 l 139 1053 l 303 1053 l 303 144 l 729 144 m 450 1053 l 608 1053 l 517 772 l 381 772 l 450 1053 z "},"Ļ":{"ha":785,"x_min":139,"x_max":729,"o":"m 139 0 m 729 144 l 729 0 l 139 0 l 139 1053 l 303 1053 l 303 144 l 729 144 m 347 -111 l 514 -111 l 454 -342 l 303 -342 l 347 -111 z "},"Ŀ":{"ha":785,"x_min":139,"x_max":729,"o":"m 729 144 l 729 0 l 139 0 l 139 1053 l 303 1053 l 303 144 l 729 144 m 644 425 l 472 425 l 472 656 l 644 656 l 644 425 z "},"Ł":{"ha":785,"x_min":11,"x_max":729,"o":"m 729 144 l 729 0 l 139 0 l 139 364 l 11 313 l 11 454 l 139 506 l 139 1053 l 303 1053 l 303 572 l 611 696 l 611 554 l 303 431 l 303 144 l 729 144 z "},"M":{"ha":1289,"x_min":139,"x_max":1150,"o":"m 1150 1053 l 1150 0 l 986 0 l 986 811 l 686 388 l 601 388 l 303 810 l 303 0 l 139 0 l 139 1053 l 322 1053 l 644 594 l 967 1053 l 1150 1053 z "},"N":{"ha":1107,"x_min":139,"x_max":968,"o":"m 968 1053 l 968 0 l 786 0 l 303 783 l 303 0 l 139 0 l 139 1053 l 321 1053 l 804 269 l 804 1053 l 968 1053 z "},"Ń":{"ha":1107,"x_min":139,"x_max":968,"o":"m 139 0 m 968 1053 l 968 0 l 786 0 l 303 783 l 303 0 l 139 0 l 139 1053 l 321 1053 l 804 269 l 804 1053 l 968 1053 m 626 1374 l 811 1374 l 643 1161 l 483 1161 l 626 1374 z "},"Ň":{"ha":1107,"x_min":-75,"x_max":968,"o":"m 0 0 m 968 1053 l 968 0 l 786 0 l 303 783 l 303 0 l 139 0 l 139 1053 l 321 1053 l 804 269 l 804 1053 l 968 1053 m -6 1361 l 153 1361 l 61 1081 l -75 1081 l -6 1361 z "},"Ņ":{"ha":1107,"x_min":139,"x_max":968,"o":"m 139 0 m 968 1053 l 968 0 l 786 0 l 303 783 l 303 0 l 139 0 l 139 1053 l 321 1053 l 804 269 l 804 1053 l 968 1053 m 425 -111 l 592 -111 l 532 -342 l 381 -342 l 425 -111 z "},"Ŋ":{"ha":1076,"x_min":139,"x_max":968,"o":"m 968 1053 l 968 -11 q 949 -183 968 -124 q 882 -266 929 -242 q 744 -290 835 -290 q 653 -282 699 -290 l 653 -139 q 722 -146 688 -146 q 772 -135 756 -146 q 797 -93 789 -124 q 804 -3 804 -62 l 804 4 l 303 786 l 303 0 l 139 0 l 139 1053 l 321 1053 l 804 289 l 804 1053 l 968 1053 z "},"Ñ":{"ha":1107,"x_min":139,"x_max":968,"o":"m 139 0 m 968 1053 l 968 0 l 786 0 l 303 783 l 303 0 l 139 0 l 139 1053 l 321 1053 l 804 269 l 804 1053 l 968 1053 m 335 1179 q 461 1347 338 1347 q 542 1329 500 1347 l 593 1307 q 642 1293 629 1293 q 676 1347 676 1293 l 794 1347 q 669 1179 793 1179 q 589 1197 631 1179 l 538 1219 q 489 1233 504 1233 q 453 1179 453 1233 l 335 1179 z "},"O":{"ha":1165,"x_min":71,"x_max":1094,"o":"m 583 -24 q 303 48 418 -24 q 129 244 188 119 q 71 525 71 368 q 129 803 71 679 q 303 999 188 926 q 583 1072 418 1072 q 863 999 747 1072 q 1036 802 978 926 q 1094 525 1094 678 q 1036 244 1094 368 q 863 48 978 119 q 583 -24 747 -24 m 583 118 q 769 172 692 118 q 886 318 846 225 q 926 529 926 411 q 886 733 926 642 q 768 878 846 825 q 583 931 690 931 q 395 877 472 931 q 278 732 318 824 q 239 525 239 640 q 278 316 239 408 q 395 171 318 224 q 583 118 472 118 z "},"Ó":{"ha":1165,"x_min":71,"x_max":1094,"o":"m 71 0 m 583 -24 q 303 48 418 -24 q 129 244 188 119 q 71 525 71 368 q 129 803 71 679 q 303 999 188 926 q 583 1072 418 1072 q 863 999 747 1072 q 1036 802 978 926 q 1094 525 1094 678 q 1036 244 1094 368 q 863 48 978 119 q 583 -24 747 -24 m 583 118 q 769 172 692 118 q 886 318 846 225 q 926 529 926 411 q 886 733 926 642 q 768 878 846 825 q 583 931 690 931 q 395 877 472 931 q 278 732 318 824 q 239 525 239 640 q 278 316 239 408 q 395 171 318 224 q 583 118 472 118 m 644 1374 l 829 1374 l 661 1161 l 501 1161 l 644 1374 z "},"Ô":{"ha":1165,"x_min":71,"x_max":1094,"o":"m 71 0 m 583 -24 q 303 48 418 -24 q 129 244 188 119 q 71 525 71 368 q 129 803 71 679 q 303 999 188 926 q 583 1072 418 1072 q 863 999 747 1072 q 1036 802 978 926 q 1094 525 1094 678 q 1036 244 1094 368 q 863 48 978 119 q 583 -24 747 -24 m 583 118 q 769 172 692 118 q 886 318 846 225 q 926 529 926 411 q 886 733 926 642 q 768 878 846 825 q 583 931 690 931 q 395 877 472 931 q 278 732 318 824 q 239 525 239 640 q 278 316 239 408 q 395 171 318 224 q 583 118 472 118 m 667 1161 l 583 1307 l 499 1161 l 335 1161 l 482 1374 l 683 1374 l 831 1161 l 667 1161 z "},"Ö":{"ha":1165,"x_min":71,"x_max":1094,"o":"m 71 0 m 583 -24 q 303 48 418 -24 q 129 244 188 119 q 71 525 71 368 q 129 803 71 679 q 303 999 188 926 q 583 1072 418 1072 q 863 999 747 1072 q 1036 802 978 926 q 1094 525 1094 678 q 1036 244 1094 368 q 863 48 978 119 q 583 -24 747 -24 m 583 118 q 769 172 692 118 q 886 318 846 225 q 926 529 926 411 q 886 733 926 642 q 768 878 846 825 q 583 931 690 931 q 395 877 472 931 q 278 732 318 824 q 239 525 239 640 q 278 316 239 408 q 395 171 318 224 q 583 118 472 118 m 657 1358 l 801 1358 l 801 1176 l 657 1176 l 657 1358 m 368 1358 l 513 1358 l 513 1176 l 368 1176 l 368 1358 z "},"Ò":{"ha":1165,"x_min":71,"x_max":1094,"o":"m 71 0 m 583 -24 q 303 48 418 -24 q 129 244 188 119 q 71 525 71 368 q 129 803 71 679 q 303 999 188 926 q 583 1072 418 1072 q 863 999 747 1072 q 1036 802 978 926 q 1094 525 1094 678 q 1036 244 1094 368 q 863 48 978 119 q 583 -24 747 -24 m 583 118 q 769 172 692 118 q 886 318 846 225 q 926 529 926 411 q 886 733 926 642 q 768 878 846 825 q 583 931 690 931 q 395 877 472 931 q 278 732 318 824 q 239 525 239 640 q 278 316 239 408 q 395 171 318 224 q 583 118 472 118 m 351 1374 l 536 1374 l 679 1161 l 519 1161 l 351 1374 z "},"Ő":{"ha":1165,"x_min":71,"x_max":1094,"o":"m 71 0 m 583 -24 q 303 48 418 -24 q 129 244 188 119 q 71 525 71 368 q 129 803 71 679 q 303 999 188 926 q 583 1072 418 1072 q 863 999 747 1072 q 1036 802 978 926 q 1094 525 1094 678 q 1036 244 1094 368 q 863 48 978 119 q 583 -24 747 -24 m 583 118 q 769 172 692 118 q 886 318 846 225 q 926 529 926 411 q 886 733 926 642 q 768 878 846 825 q 583 931 690 931 q 395 877 472 931 q 278 732 318 824 q 239 525 239 640 q 278 316 239 408 q 395 171 318 224 q 583 118 472 118 m 786 1374 l 957 1374 l 789 1161 l 643 1161 l 786 1374 m 513 1374 l 683 1374 l 515 1161 l 369 1161 l 513 1374 z "},"Ō":{"ha":1165,"x_min":71,"x_max":1094,"o":"m 71 0 m 583 -24 q 303 48 418 -24 q 129 244 188 119 q 71 525 71 368 q 129 803 71 679 q 303 999 188 926 q 583 1072 418 1072 q 863 999 747 1072 q 1036 802 978 926 q 1094 525 1094 678 q 1036 244 1094 368 q 863 48 978 119 q 583 -24 747 -24 m 583 118 q 769 172 692 118 q 886 318 846 225 q 926 529 926 411 q 886 733 926 642 q 768 878 846 825 q 583 931 690 931 q 395 877 472 931 q 278 732 318 824 q 239 525 239 640 q 278 316 239 408 q 395 171 318 224 q 583 118 472 118 m 368 1322 l 797 1322 l 797 1214 l 368 1214 l 368 1322 z "},"Ø":{"ha":1165,"x_min":47,"x_max":1122,"o":"m 1008 854 q 1094 525 1094 715 q 1036 244 1094 368 q 863 48 978 119 q 583 -24 747 -24 q 244 90 376 -24 l 144 -10 l 47 83 l 157 193 q 71 525 71 332 q 129 803 71 679 q 303 999 188 926 q 583 1072 418 1072 q 921 957 788 1072 l 1026 1063 l 1122 968 l 1008 854 m 239 525 q 278 315 239 410 l 808 844 q 583 931 718 931 q 395 877 472 931 q 278 732 318 824 q 239 525 239 640 m 926 525 q 886 732 926 640 l 356 201 q 583 118 446 118 q 768 171 690 118 q 885 316 846 224 q 926 525 925 408 z "},"Õ":{"ha":1165,"x_min":71,"x_max":1094,"o":"m 71 0 m 583 -24 q 303 48 418 -24 q 129 244 188 119 q 71 525 71 368 q 129 803 71 679 q 303 999 188 926 q 583 1072 418 1072 q 863 999 747 1072 q 1036 802 978 926 q 1094 525 1094 678 q 1036 244 1094 368 q 863 48 978 119 q 583 -24 747 -24 m 583 118 q 769 172 692 118 q 886 318 846 225 q 926 529 926 411 q 886 733 926 642 q 768 878 846 825 q 583 931 690 931 q 395 877 472 931 q 278 732 318 824 q 239 525 239 640 q 278 316 239 408 q 395 171 318 224 q 583 118 472 118 m 353 1179 q 479 1347 356 1347 q 560 1329 518 1347 l 611 1307 q 660 1293 647 1293 q 694 1347 694 1293 l 813 1347 q 688 1179 811 1179 q 607 1197 649 1179 l 556 1219 q 507 1233 522 1233 q 471 1179 471 1233 l 353 1179 z "},"Œ":{"ha":1549,"x_min":75,"x_max":1465,"o":"m 1465 138 l 1465 0 l 614 0 q 210 134 346 0 q 75 528 75 268 q 210 921 75 789 q 614 1053 346 1053 l 1458 1053 l 1458 915 l 969 915 l 969 599 l 1389 599 l 1389 461 l 969 461 l 969 138 l 1465 138 m 806 142 l 806 911 l 614 911 q 333 819 425 911 q 242 524 242 726 q 335 234 242 326 q 614 142 428 142 l 806 142 z "},"P":{"ha":929,"x_min":139,"x_max":881,"o":"m 522 1053 q 881 729 881 1053 q 791 490 881 572 q 522 408 701 408 l 303 408 l 303 0 l 139 0 l 139 1053 l 522 1053 m 714 733 q 667 869 714 826 q 522 911 619 911 l 303 911 l 303 550 l 522 550 q 667 595 619 550 q 714 733 714 640 z "},"Þ":{"ha":892,"x_min":139,"x_max":881,"o":"m 522 857 q 881 533 881 857 q 791 294 881 376 q 522 213 701 213 l 303 213 l 303 0 l 139 0 l 139 1053 l 303 1053 l 303 857 l 522 857 m 714 538 q 667 673 714 631 q 522 715 619 715 l 303 715 l 303 354 l 522 354 q 667 399 619 354 q 714 538 714 444 z "},"Q":{"ha":1165,"x_min":71,"x_max":1094,"o":"m 1094 525 q 1050 277 1094 390 q 921 90 1006 164 l 1079 -89 l 886 -89 l 797 15 q 583 -24 700 -24 q 303 48 418 -24 q 129 244 188 119 q 71 525 71 368 q 129 803 71 679 q 303 999 188 926 q 583 1072 418 1072 q 863 999 747 1072 q 1036 802 978 926 q 1094 525 1094 678 m 239 525 q 278 316 239 408 q 395 171 318 224 q 583 118 472 118 q 694 135 644 118 l 526 329 l 714 329 l 817 211 q 898 349 869 267 q 926 529 926 431 q 886 733 926 642 q 768 878 846 825 q 583 931 690 931 q 395 877 472 931 q 278 732 318 824 q 239 525 239 640 z "},"R":{"ha":993,"x_min":139,"x_max":929,"o":"m 485 429 l 303 429 l 303 0 l 139 0 l 139 1053 l 522 1053 q 881 740 881 1053 q 824 544 881 619 q 656 443 768 469 l 929 0 l 744 0 l 485 429 m 303 571 l 522 571 q 667 614 619 571 q 714 744 714 657 q 667 872 714 832 q 522 911 619 911 l 303 911 l 303 571 z "},"Ŕ":{"ha":993,"x_min":139,"x_max":929,"o":"m 139 0 m 485 429 l 303 429 l 303 0 l 139 0 l 139 1053 l 522 1053 q 881 740 881 1053 q 824 544 881 619 q 656 443 768 469 l 929 0 l 744 0 l 485 429 m 303 571 l 522 571 q 667 614 619 571 q 714 744 714 657 q 667 872 714 832 q 522 911 619 911 l 303 911 l 303 571 m 525 1374 l 710 1374 l 542 1161 l 382 1161 l 525 1374 z "},"Ř":{"ha":993,"x_min":139,"x_max":929,"o":"m 139 0 m 485 429 l 303 429 l 303 0 l 139 0 l 139 1053 l 522 1053 q 881 740 881 1053 q 824 544 881 619 q 656 443 768 469 l 929 0 l 744 0 l 485 429 m 303 571 l 522 571 q 667 614 619 571 q 714 744 714 657 q 667 872 714 832 q 522 911 619 911 l 303 911 l 303 571 m 711 1374 l 564 1161 l 363 1161 l 215 1374 l 379 1374 l 464 1228 l 547 1374 l 711 1374 z "},"Ŗ":{"ha":993,"x_min":139,"x_max":929,"o":"m 139 0 m 485 429 l 303 429 l 303 0 l 139 0 l 139 1053 l 522 1053 q 881 740 881 1053 q 824 544 881 619 q 656 443 768 469 l 929 0 l 744 0 l 485 429 m 303 571 l 522 571 q 667 614 619 571 q 714 744 714 657 q 667 872 714 832 q 522 911 619 911 l 303 911 l 303 571 m 406 -111 l 572 -111 l 513 -342 l 361 -342 l 406 -111 z "},"S":{"ha":903,"x_min":85,"x_max":822,"o":"m 451 -24 q 85 53 246 -24 l 85 204 q 451 118 249 118 q 608 161 558 118 q 658 275 658 204 q 613 378 658 343 q 474 438 567 413 l 379 464 q 240 518 299 488 q 142 608 182 549 q 103 761 103 667 q 193 993 103 914 q 447 1072 283 1072 q 620 1055 546 1072 q 771 1000 694 1038 l 771 853 q 447 931 624 931 q 267 772 267 931 q 309 670 268 703 q 443 613 350 638 l 539 586 q 685 531 625 563 q 784 438 746 499 q 822 281 822 378 q 722 58 821 139 q 451 -24 624 -24 z "},"Ś":{"ha":903,"x_min":85,"x_max":822,"o":"m 85 0 m 451 -24 q 85 53 246 -24 l 85 204 q 451 118 249 118 q 608 161 558 118 q 658 275 658 204 q 613 378 658 343 q 474 438 567 413 l 379 464 q 240 518 299 488 q 142 608 182 549 q 103 761 103 667 q 193 993 103 914 q 447 1072 283 1072 q 620 1055 546 1072 q 771 1000 694 1038 l 771 853 q 447 931 624 931 q 267 772 267 931 q 309 670 268 703 q 443 613 350 638 l 539 586 q 685 531 625 563 q 784 438 746 499 q 822 281 822 378 q 722 58 821 139 q 451 -24 624 -24 m 518 1374 l 703 1374 l 535 1161 l 375 1161 l 518 1374 z "},"Š":{"ha":903,"x_min":85,"x_max":822,"o":"m 85 0 m 451 -24 q 85 53 246 -24 l 85 204 q 451 118 249 118 q 608 161 558 118 q 658 275 658 204 q 613 378 658 343 q 474 438 567 413 l 379 464 q 240 518 299 488 q 142 608 182 549 q 103 761 103 667 q 193 993 103 914 q 447 1072 283 1072 q 620 1055 546 1072 q 771 1000 694 1038 l 771 853 q 447 931 624 931 q 267 772 267 931 q 309 670 268 703 q 443 613 350 638 l 539 586 q 685 531 625 563 q 784 438 746 499 q 822 281 822 378 q 722 58 821 139 q 451 -24 624 -24 m 704 1374 l 557 1161 l 356 1161 l 208 1374 l 372 1374 l 457 1228 l 540 1374 l 704 1374 z "},"Ş":{"ha":903,"x_min":85,"x_max":822,"o":"m 822 281 q 735 69 821 150 q 499 -22 650 -11 l 479 -81 l 488 -81 q 599 -118 560 -81 q 639 -217 639 -156 q 592 -325 639 -285 q 456 -365 544 -365 q 382 -360 415 -365 q 314 -337 349 -354 l 314 -239 q 442 -268 378 -268 q 501 -254 482 -268 q 519 -219 519 -240 q 446 -175 519 -175 q 336 -194 390 -175 l 386 -22 q 85 53 219 -12 l 85 204 q 451 118 249 118 q 608 161 558 118 q 658 275 658 204 q 613 378 658 343 q 474 438 567 413 l 379 464 q 240 518 299 488 q 142 608 182 549 q 103 761 103 667 q 193 993 103 914 q 447 1072 283 1072 q 620 1055 546 1072 q 771 1000 694 1038 l 771 853 q 447 931 624 931 q 267 772 267 931 q 309 670 268 703 q 443 613 350 638 l 539 586 q 685 531 625 563 q 784 438 746 499 q 822 281 822 378 z "},"Ș":{"ha":903,"x_min":85,"x_max":822,"o":"m 85 0 m 451 -24 q 85 53 246 -24 l 85 204 q 451 118 249 118 q 608 161 558 118 q 658 275 658 204 q 613 378 658 343 q 474 438 567 413 l 379 464 q 240 518 299 488 q 142 608 182 549 q 103 761 103 667 q 193 993 103 914 q 447 1072 283 1072 q 620 1055 546 1072 q 771 1000 694 1038 l 771 853 q 447 931 624 931 q 267 772 267 931 q 309 670 268 703 q 443 613 350 638 l 539 586 q 685 531 625 563 q 784 438 746 499 q 822 281 822 378 q 722 58 821 139 q 451 -24 624 -24 m 364 -111 l 531 -111 l 471 -342 l 319 -342 l 364 -111 z "},"T":{"ha":894,"x_min":56,"x_max":839,"o":"m 839 908 l 529 908 l 529 0 l 365 0 l 365 908 l 56 908 l 56 1053 l 839 1053 l 839 908 z "},"Ŧ":{"ha":853,"x_min":49,"x_max":832,"o":"m 522 908 l 522 689 l 742 689 l 742 547 l 522 547 l 522 0 l 358 0 l 358 547 l 139 547 l 139 689 l 358 689 l 358 908 l 49 908 l 49 1053 l 832 1053 l 832 908 l 522 908 z "},"Ť":{"ha":894,"x_min":56,"x_max":839,"o":"m 56 0 m 839 908 l 529 908 l 529 0 l 365 0 l 365 908 l 56 908 l 56 1053 l 839 1053 l 839 908 m 694 1374 l 547 1161 l 346 1161 l 199 1374 l 363 1374 l 447 1228 l 531 1374 l 694 1374 z "},"Ţ":{"ha":894,"x_min":56,"x_max":839,"o":"m 503 0 l 476 -81 l 485 -81 q 597 -118 557 -81 q 636 -217 636 -156 q 589 -325 636 -285 q 453 -365 542 -365 q 379 -360 413 -365 q 311 -337 346 -354 l 311 -239 q 439 -268 375 -268 q 498 -254 479 -268 q 517 -219 517 -240 q 443 -175 517 -175 q 333 -194 388 -175 l 390 0 l 365 0 l 365 908 l 56 908 l 56 1053 l 839 1053 l 839 908 l 529 908 l 529 0 l 503 0 z "},"Ț":{"ha":894,"x_min":56,"x_max":839,"o":"m 56 0 m 839 908 l 529 908 l 529 0 l 365 0 l 365 908 l 56 908 l 56 1053 l 839 1053 l 839 908 m 361 -111 l 528 -111 l 468 -342 l 317 -342 l 361 -111 z "},"U":{"ha":1101,"x_min":136,"x_max":967,"o":"m 551 -24 q 240 82 343 -24 q 136 379 136 188 l 136 1053 l 300 1053 l 300 379 q 363 184 300 250 q 551 118 426 118 q 740 184 676 118 q 803 379 803 250 l 803 1053 l 967 1053 l 967 379 q 863 81 967 186 q 551 -24 760 -24 z "},"Ú":{"ha":1101,"x_min":136,"x_max":967,"o":"m 136 0 m 551 -24 q 240 82 343 -24 q 136 379 136 188 l 136 1053 l 300 1053 l 300 379 q 363 184 300 250 q 551 118 426 118 q 740 184 676 118 q 803 379 803 250 l 803 1053 l 967 1053 l 967 379 q 863 81 967 186 q 551 -24 760 -24 m 613 1374 l 797 1374 l 629 1161 l 469 1161 l 613 1374 z "},"Û":{"ha":1101,"x_min":136,"x_max":967,"o":"m 136 0 m 551 -24 q 240 82 343 -24 q 136 379 136 188 l 136 1053 l 300 1053 l 300 379 q 363 184 300 250 q 551 118 426 118 q 740 184 676 118 q 803 379 803 250 l 803 1053 l 967 1053 l 967 379 q 863 81 967 186 q 551 -24 760 -24 m 635 1161 l 551 1307 l 467 1161 l 303 1161 l 450 1374 l 651 1374 l 799 1161 l 635 1161 z "},"Ü":{"ha":1101,"x_min":136,"x_max":967,"o":"m 136 0 m 625 1358 l 769 1358 l 769 1176 l 625 1176 l 625 1358 m 336 1358 l 481 1358 l 481 1176 l 336 1176 l 336 1358 m 551 -24 q 240 82 343 -24 q 136 379 136 188 l 136 1053 l 300 1053 l 300 379 q 363 184 300 250 q 551 118 426 118 q 740 184 676 118 q 803 379 803 250 l 803 1053 l 967 1053 l 967 379 q 863 81 967 186 q 551 -24 760 -24 z "},"Ù":{"ha":1101,"x_min":136,"x_max":967,"o":"m 136 0 m 551 -24 q 240 82 343 -24 q 136 379 136 188 l 136 1053 l 300 1053 l 300 379 q 363 184 300 250 q 551 118 426 118 q 740 184 676 118 q 803 379 803 250 l 803 1053 l 967 1053 l 967 379 q 863 81 967 186 q 551 -24 760 -24 m 318 1374 l 503 1374 l 646 1161 l 486 1161 l 318 1374 z "},"Ű":{"ha":1101,"x_min":136,"x_max":967,"o":"m 136 0 m 551 -24 q 240 82 343 -24 q 136 379 136 188 l 136 1053 l 300 1053 l 300 379 q 363 184 300 250 q 551 118 426 118 q 740 184 676 118 q 803 379 803 250 l 803 1053 l 967 1053 l 967 379 q 863 81 967 186 q 551 -24 760 -24 m 754 1374 l 925 1374 l 757 1161 l 611 1161 l 754 1374 m 481 1374 l 651 1374 l 483 1161 l 338 1161 l 481 1374 z "},"Ū":{"ha":1101,"x_min":136,"x_max":967,"o":"m 136 0 m 551 -24 q 240 82 343 -24 q 136 379 136 188 l 136 1053 l 300 1053 l 300 379 q 363 184 300 250 q 551 118 426 118 q 740 184 676 118 q 803 379 803 250 l 803 1053 l 967 1053 l 967 379 q 863 81 967 186 q 551 -24 760 -24 m 336 1322 l 765 1322 l 765 1214 l 336 1214 l 336 1322 z "},"Ų":{"ha":1101,"x_min":136,"x_max":967,"o":"m 967 1053 l 967 379 q 891 113 967 214 q 663 -15 815 11 q 544 -185 544 -110 q 560 -224 544 -210 q 607 -237 576 -237 q 681 -221 646 -237 l 681 -321 q 588 -337 632 -337 q 460 -303 503 -337 q 418 -208 418 -268 q 517 -22 418 -112 q 231 90 326 -14 q 136 379 136 194 l 136 1053 l 300 1053 l 300 379 q 363 184 300 250 q 551 118 426 118 q 740 184 676 118 q 803 379 803 250 l 803 1053 l 967 1053 z "},"Ů":{"ha":1101,"x_min":136,"x_max":967,"o":"m 136 0 m 551 -24 q 240 82 343 -24 q 136 379 136 188 l 136 1053 l 300 1053 l 300 379 q 363 184 300 250 q 551 118 426 118 q 740 184 676 118 q 803 379 803 250 l 803 1053 l 967 1053 l 967 379 q 863 81 967 186 q 551 -24 760 -24 m 551 1139 q 441 1175 481 1139 q 401 1267 401 1211 q 440 1358 401 1324 q 551 1393 479 1393 q 662 1358 624 1393 q 700 1267 700 1324 q 661 1174 700 1210 q 551 1139 622 1139 m 551 1213 q 593 1227 578 1213 q 608 1267 608 1242 q 593 1306 608 1292 q 551 1321 578 1321 q 509 1306 525 1321 q 493 1267 493 1292 q 509 1227 493 1242 q 551 1213 525 1213 z "},"V":{"ha":1061,"x_min":46,"x_max":1017,"o":"m 1017 1053 l 628 -12 l 436 -12 l 46 1053 l 215 1053 l 531 176 l 846 1053 l 1017 1053 z "},"W":{"ha":1560,"x_min":60,"x_max":1501,"o":"m 1501 1053 l 1210 -12 l 1018 -12 l 781 818 l 544 -12 l 353 -12 l 60 1053 l 222 1053 l 449 193 l 686 1053 l 874 1053 l 1113 193 l 1338 1053 l 1501 1053 z "},"Ẃ":{"ha":1560,"x_min":60,"x_max":1501,"o":"m 60 0 m 1501 1053 l 1210 -12 l 1018 -12 l 781 818 l 544 -12 l 353 -12 l 60 1053 l 222 1053 l 449 193 l 686 1053 l 874 1053 l 1113 193 l 1338 1053 l 1501 1053 m 842 1374 l 1026 1374 l 858 1161 l 699 1161 l 842 1374 z "},"Ŵ":{"ha":1560,"x_min":60,"x_max":1501,"o":"m 60 0 m 1501 1053 l 1210 -12 l 1018 -12 l 781 818 l 544 -12 l 353 -12 l 60 1053 l 222 1053 l 449 193 l 686 1053 l 874 1053 l 1113 193 l 1338 1053 l 1501 1053 m 864 1161 l 781 1307 l 696 1161 l 532 1161 l 679 1374 l 881 1374 l 1028 1161 l 864 1161 z "},"Ẅ":{"ha":1560,"x_min":60,"x_max":1501,"o":"m 60 0 m 1501 1053 l 1210 -12 l 1018 -12 l 781 818 l 544 -12 l 353 -12 l 60 1053 l 222 1053 l 449 193 l 686 1053 l 874 1053 l 1113 193 l 1338 1053 l 1501 1053 m 854 1358 l 999 1358 l 999 1176 l 854 1176 l 854 1358 m 565 1358 l 710 1358 l 710 1176 l 565 1176 l 565 1358 z "},"Ẁ":{"ha":1560,"x_min":60,"x_max":1501,"o":"m 60 0 m 1501 1053 l 1210 -12 l 1018 -12 l 781 818 l 544 -12 l 353 -12 l 60 1053 l 222 1053 l 449 193 l 686 1053 l 874 1053 l 1113 193 l 1338 1053 l 1501 1053 m 547 1374 l 732 1374 l 875 1161 l 715 1161 l 547 1374 z "},"X":{"ha":1054,"x_min":56,"x_max":1003,"o":"m 811 0 l 529 421 l 247 0 l 56 0 l 431 543 l 81 1053 l 271 1053 l 529 665 l 789 1053 l 979 1053 l 628 542 l 1003 0 l 811 0 z "},"Y":{"ha":997,"x_min":39,"x_max":960,"o":"m 579 407 l 579 0 l 418 0 l 418 407 l 39 1053 l 206 1053 l 499 546 l 793 1053 l 960 1053 l 579 407 z "},"Ý":{"ha":997,"x_min":39,"x_max":960,"o":"m 39 0 m 579 407 l 579 0 l 418 0 l 418 407 l 39 1053 l 206 1053 l 499 546 l 793 1053 l 960 1053 l 579 407 m 560 1374 l 744 1374 l 576 1161 l 417 1161 l 560 1374 z "},"Ŷ":{"ha":997,"x_min":39,"x_max":960,"o":"m 39 0 m 579 407 l 579 0 l 418 0 l 418 407 l 39 1053 l 206 1053 l 499 546 l 793 1053 l 960 1053 l 579 407 m 582 1161 l 499 1307 l 414 1161 l 250 1161 l 397 1374 l 599 1374 l 746 1161 l 582 1161 z "},"Ÿ":{"ha":997,"x_min":39,"x_max":960,"o":"m 39 0 m 579 407 l 579 0 l 418 0 l 418 407 l 39 1053 l 206 1053 l 499 546 l 793 1053 l 960 1053 l 579 407 m 572 1358 l 717 1358 l 717 1176 l 572 1176 l 572 1358 m 283 1358 l 428 1358 l 428 1176 l 283 1176 l 283 1358 z "},"Ỳ":{"ha":997,"x_min":39,"x_max":960,"o":"m 39 0 m 579 407 l 579 0 l 418 0 l 418 407 l 39 1053 l 206 1053 l 499 546 l 793 1053 l 960 1053 l 579 407 m 265 1374 l 450 1374 l 593 1161 l 433 1161 l 265 1374 z "},"Z":{"ha":1004,"x_min":111,"x_max":907,"o":"m 907 144 l 907 0 l 111 0 l 111 142 l 660 908 l 129 908 l 129 1053 l 861 1053 l 861 911 l 314 144 l 907 144 z "},"Ź":{"ha":1004,"x_min":111,"x_max":907,"o":"m 111 0 m 907 144 l 907 0 l 111 0 l 111 142 l 660 908 l 129 908 l 129 1053 l 861 1053 l 861 911 l 314 144 l 907 144 m 563 1374 l 747 1374 l 579 1161 l 419 1161 l 563 1374 z "},"Ž":{"ha":1004,"x_min":111,"x_max":907,"o":"m 111 0 m 907 144 l 907 0 l 111 0 l 111 142 l 660 908 l 129 908 l 129 1053 l 861 1053 l 861 911 l 314 144 l 907 144 m 749 1374 l 601 1161 l 400 1161 l 253 1374 l 417 1374 l 501 1228 l 585 1374 l 749 1374 z "},"Ż":{"ha":1004,"x_min":111,"x_max":907,"o":"m 111 0 m 907 144 l 907 0 l 111 0 l 111 142 l 660 908 l 129 908 l 129 1053 l 861 1053 l 861 911 l 314 144 l 907 144 m 424 1358 l 582 1358 l 582 1176 l 424 1176 l 424 1358 z "},"a":{"ha":772,"x_min":46,"x_max":682,"o":"m 372 772 q 569 731 501 772 q 660 622 638 690 q 682 449 682 553 l 682 0 l 524 0 l 524 74 q 421 3 472 25 q 310 -18 369 -18 q 119 52 193 -18 q 46 244 46 122 q 124 438 46 369 q 333 507 201 507 q 522 463 436 507 q 509 558 521 522 q 460 614 497 594 q 351 633 424 633 l 235 633 l 235 772 l 372 772 m 335 113 q 524 196 426 113 l 524 344 q 363 383 446 383 q 251 351 294 383 q 207 246 207 319 q 244 144 207 175 q 335 113 282 113 z "},"á":{"ha":772,"x_min":46,"x_max":682,"o":"m 46 0 m 372 772 q 569 731 501 772 q 660 622 638 690 q 682 449 682 553 l 682 0 l 524 0 l 524 74 q 421 3 472 25 q 310 -18 369 -18 q 119 52 193 -18 q 46 244 46 122 q 124 438 46 369 q 333 507 201 507 q 522 463 436 507 q 509 558 521 522 q 460 614 497 594 q 351 633 424 633 l 235 633 l 235 772 l 372 772 m 335 113 q 524 196 426 113 l 524 344 q 363 383 446 383 q 251 351 294 383 q 207 246 207 319 q 244 144 207 175 q 335 113 282 113 m 447 1124 l 632 1124 l 464 911 l 304 911 l 447 1124 z "},"ă":{"ha":772,"x_min":46,"x_max":682,"o":"m 46 0 m 372 772 q 569 731 501 772 q 660 622 638 690 q 682 449 682 553 l 682 0 l 524 0 l 524 74 q 421 3 472 25 q 310 -18 369 -18 q 119 52 193 -18 q 46 244 46 122 q 124 438 46 369 q 333 507 201 507 q 522 463 436 507 q 509 558 521 522 q 460 614 497 594 q 351 633 424 633 l 235 633 l 235 772 l 372 772 m 335 113 q 524 196 426 113 l 524 344 q 363 383 446 383 q 251 351 294 383 q 207 246 207 319 q 244 144 207 175 q 335 113 282 113 m 390 907 q 228 956 288 907 q 168 1101 168 1004 l 168 1121 l 293 1121 l 293 1104 q 317 1032 293 1056 q 390 1008 340 1008 q 465 1032 442 1008 q 488 1104 488 1056 l 488 1121 l 613 1121 l 613 1101 q 555 956 614 1004 q 390 907 496 907 z "},"â":{"ha":772,"x_min":46,"x_max":682,"o":"m 46 0 m 372 772 q 569 731 501 772 q 660 622 638 690 q 682 449 682 553 l 682 0 l 524 0 l 524 74 q 421 3 472 25 q 310 -18 369 -18 q 119 52 193 -18 q 46 244 46 122 q 124 438 46 369 q 333 507 201 507 q 522 463 436 507 q 509 558 521 522 q 460 614 497 594 q 351 633 424 633 l 235 633 l 235 772 l 372 772 m 335 113 q 524 196 426 113 l 524 344 q 363 383 446 383 q 251 351 294 383 q 207 246 207 319 q 244 144 207 175 q 335 113 282 113 m 471 911 l 388 1057 l 303 911 l 139 911 l 286 1124 l 488 1124 l 635 911 l 471 911 z "},"ä":{"ha":772,"x_min":46,"x_max":682,"o":"m 46 0 m 372 772 q 569 731 501 772 q 660 622 638 690 q 682 449 682 553 l 682 0 l 524 0 l 524 74 q 421 3 472 25 q 310 -18 369 -18 q 119 52 193 -18 q 46 244 46 122 q 124 438 46 369 q 333 507 201 507 q 522 463 436 507 q 509 558 521 522 q 460 614 497 594 q 351 633 424 633 l 235 633 l 235 772 l 372 772 m 335 113 q 524 196 426 113 l 524 344 q 363 383 446 383 q 251 351 294 383 q 207 246 207 319 q 244 144 207 175 q 335 113 282 113 m 461 1108 l 606 1108 l 606 926 l 461 926 l 461 1108 m 172 1108 l 317 1108 l 317 926 l 172 926 l 172 1108 z "},"à":{"ha":772,"x_min":46,"x_max":682,"o":"m 46 0 m 372 772 q 569 731 501 772 q 660 622 638 690 q 682 449 682 553 l 682 0 l 524 0 l 524 74 q 421 3 472 25 q 310 -18 369 -18 q 119 52 193 -18 q 46 244 46 122 q 124 438 46 369 q 333 507 201 507 q 522 463 436 507 q 509 558 521 522 q 460 614 497 594 q 351 633 424 633 l 235 633 l 235 772 l 372 772 m 335 113 q 524 196 426 113 l 524 344 q 363 383 446 383 q 251 351 294 383 q 207 246 207 319 q 244 144 207 175 q 335 113 282 113 m 147 1124 l 332 1124 l 475 911 l 315 911 l 147 1124 z "},"ā":{"ha":772,"x_min":46,"x_max":682,"o":"m 46 0 m 372 772 q 569 731 501 772 q 660 622 638 690 q 682 449 682 553 l 682 0 l 524 0 l 524 74 q 421 3 472 25 q 310 -18 369 -18 q 119 52 193 -18 q 46 244 46 122 q 124 438 46 369 q 333 507 201 507 q 522 463 436 507 q 509 558 521 522 q 460 614 497 594 q 351 633 424 633 l 235 633 l 235 772 l 372 772 m 335 113 q 524 196 426 113 l 524 344 q 363 383 446 383 q 251 351 294 383 q 207 246 207 319 q 244 144 207 175 q 335 113 282 113 m 172 1072 l 601 1072 l 601 964 l 172 964 l 172 1072 z "},"ą":{"ha":772,"x_min":46,"x_max":682,"o":"m 372 772 q 569 731 501 772 q 660 622 638 690 q 682 449 682 553 l 682 0 q 583 -95 618 -50 q 547 -185 547 -140 q 608 -237 547 -237 q 682 -221 647 -237 l 682 -321 q 589 -337 633 -337 q 463 -303 506 -337 q 421 -208 421 -268 q 550 0 421 -100 l 524 0 l 524 74 q 421 3 472 25 q 310 -18 369 -18 q 119 52 193 -18 q 46 244 46 122 q 124 438 46 369 q 333 507 201 507 q 522 463 436 507 q 509 558 521 522 q 460 614 497 594 q 351 633 424 633 l 235 633 l 235 772 l 372 772 m 335 113 q 524 196 426 113 l 524 344 q 363 383 446 383 q 251 351 294 383 q 207 246 207 319 q 244 144 207 175 q 335 113 282 113 z "},"å":{"ha":772,"x_min":46,"x_max":682,"o":"m 46 0 m 372 772 q 569 731 501 772 q 660 622 638 690 q 682 449 682 553 l 682 0 l 524 0 l 524 74 q 421 3 472 25 q 310 -18 369 -18 q 119 52 193 -18 q 46 244 46 122 q 124 438 46 369 q 333 507 201 507 q 522 463 436 507 q 509 558 521 522 q 460 614 497 594 q 351 633 424 633 l 235 633 l 235 772 l 372 772 m 335 113 q 524 196 426 113 l 524 344 q 363 383 446 383 q 251 351 294 383 q 207 246 207 319 q 244 144 207 175 q 335 113 282 113 m 388 889 q 277 925 317 889 q 238 1017 238 961 q 276 1108 238 1074 q 388 1143 315 1143 q 498 1108 460 1143 q 536 1017 536 1074 q 497 924 536 960 q 388 889 458 889 m 388 963 q 429 977 414 963 q 444 1017 444 992 q 429 1056 444 1042 q 388 1071 414 1071 q 345 1056 361 1071 q 329 1017 329 1042 q 345 977 329 992 q 388 963 361 963 z "},"ã":{"ha":772,"x_min":46,"x_max":682,"o":"m 46 0 m 372 772 q 569 731 501 772 q 660 622 638 690 q 682 449 682 553 l 682 0 l 524 0 l 524 74 q 421 3 472 25 q 310 -18 369 -18 q 119 52 193 -18 q 46 244 46 122 q 124 438 46 369 q 333 507 201 507 q 522 463 436 507 q 509 558 521 522 q 460 614 497 594 q 351 633 424 633 l 235 633 l 235 772 l 372 772 m 335 113 q 524 196 426 113 l 524 344 q 363 383 446 383 q 251 351 294 383 q 207 246 207 319 q 244 144 207 175 q 335 113 282 113 m 157 929 q 283 1097 160 1097 q 364 1079 322 1097 l 415 1057 q 464 1043 451 1043 q 499 1097 499 1043 l 617 1097 q 492 929 615 929 q 411 947 453 929 l 360 969 q 311 983 326 983 q 275 929 275 983 l 157 929 z "},"æ":{"ha":1272,"x_min":46,"x_max":1217,"o":"m 688 360 q 751 182 693 249 q 933 114 810 115 q 1040 128 988 114 q 1156 172 1093 143 l 1200 44 q 1067 -8 1135 8 q 917 -24 999 -24 q 733 12 813 -24 q 603 114 654 47 q 461 13 532 43 q 310 -18 390 -18 q 119 52 193 -18 q 46 244 46 122 q 124 438 46 369 q 333 507 201 507 q 522 463 436 507 q 509 558 521 522 q 460 614 497 594 q 351 633 424 633 l 235 633 l 235 772 l 372 772 q 532 744 472 772 q 621 663 592 715 q 736 761 667 728 q 890 794 806 794 q 1128 699 1040 794 q 1217 422 1217 603 l 1217 360 l 688 360 m 881 657 q 694 488 728 657 l 1050 488 q 1001 616 1043 575 q 881 657 960 657 m 335 113 q 547 218 440 113 q 524 344 528 279 q 363 383 446 383 q 251 351 294 383 q 207 246 207 319 q 244 144 207 175 q 335 113 282 113 z "},"b":{"ha":913,"x_min":118,"x_max":842,"o":"m 496 794 q 747 690 653 794 q 842 386 842 585 q 747 81 842 186 q 496 -24 653 -24 q 276 65 383 -24 l 276 0 l 118 0 l 118 1175 l 276 1175 l 276 706 q 496 794 383 794 m 469 121 q 625 188 572 121 q 678 386 678 256 q 625 583 678 515 q 469 650 572 650 q 276 572 374 650 l 276 199 q 469 121 374 121 z "},"c":{"ha":758,"x_min":71,"x_max":718,"o":"m 450 -24 q 169 88 267 -22 q 71 388 71 197 q 169 685 71 578 q 450 794 267 793 q 560 786 514 794 q 660 757 607 778 l 660 607 q 563 640 608 631 q 464 650 518 650 q 236 389 236 649 q 290 194 236 265 q 461 121 343 122 q 671 181 560 121 l 718 46 q 450 -24 594 -24 z "},"ć":{"ha":758,"x_min":71,"x_max":718,"o":"m 71 0 m 450 -24 q 169 88 267 -22 q 71 388 71 197 q 169 685 71 578 q 450 794 267 793 q 560 786 514 794 q 660 757 607 778 l 660 607 q 563 640 608 631 q 464 650 518 650 q 236 389 236 649 q 290 194 236 265 q 461 121 343 122 q 671 181 560 121 l 718 46 q 450 -24 594 -24 m 488 1124 l 672 1124 l 504 911 l 344 911 l 488 1124 z "},"č":{"ha":758,"x_min":71,"x_max":718,"o":"m 71 0 m 450 -24 q 169 88 267 -22 q 71 388 71 197 q 169 685 71 578 q 450 794 267 793 q 560 786 514 794 q 660 757 607 778 l 660 607 q 563 640 608 631 q 464 650 518 650 q 236 389 236 649 q 290 194 236 265 q 461 121 343 122 q 671 181 560 121 l 718 46 q 450 -24 594 -24 m 675 1124 l 528 911 l 326 911 l 179 1124 l 343 1124 l 428 978 l 511 1124 l 675 1124 z "},"ç":{"ha":758,"x_min":71,"x_max":718,"o":"m 474 -81 q 585 -118 546 -81 q 624 -217 624 -156 q 577 -325 624 -285 q 440 -365 531 -365 q 367 -360 400 -365 q 299 -337 333 -354 l 299 -239 q 426 -268 363 -268 q 485 -254 467 -268 q 504 -219 504 -240 q 432 -175 504 -175 q 321 -194 376 -175 l 372 -18 q 148 112 225 6 q 71 388 71 218 q 169 685 71 578 q 450 794 267 793 q 560 786 514 794 q 660 757 607 778 l 660 607 q 563 640 608 631 q 464 650 518 650 q 236 389 236 649 q 290 194 236 265 q 461 121 343 122 q 671 181 560 121 l 718 46 q 482 -22 604 -17 l 464 -81 l 474 -81 z "},"ċ":{"ha":758,"x_min":71,"x_max":718,"o":"m 71 0 m 450 -24 q 169 88 267 -22 q 71 388 71 197 q 169 685 71 578 q 450 794 267 793 q 560 786 514 794 q 660 757 607 778 l 660 607 q 563 640 608 631 q 464 650 518 650 q 236 389 236 649 q 290 194 236 265 q 461 121 343 122 q 671 181 560 121 l 718 46 q 450 -24 594 -24 m 351 1108 l 510 1108 l 510 926 l 351 926 l 351 1108 z "},"d":{"ha":913,"x_min":71,"x_max":794,"o":"m 794 1175 l 794 0 l 636 0 l 636 65 q 417 -24 529 -24 q 165 81 260 -24 q 71 386 71 186 q 165 690 71 585 q 417 794 260 794 q 636 706 529 794 l 636 1175 l 794 1175 m 443 121 q 636 199 539 121 l 636 572 q 443 650 539 650 q 288 583 340 650 q 236 386 236 515 q 288 188 236 256 q 443 121 340 121 z "},"ð":{"ha":896,"x_min":71,"x_max":825,"o":"m 582 1058 q 762 780 699 939 q 825 443 825 621 q 728 103 825 229 q 449 -24 631 -24 q 172 80 274 -24 q 71 381 71 183 q 169 689 71 590 q 415 788 267 788 q 611 719 511 788 q 458 956 558 854 l 349 865 l 276 943 l 378 1028 q 286 1088 338 1058 l 406 1197 q 501 1132 451 1171 l 599 1214 l 674 1133 l 582 1058 m 664 435 q 656 554 664 494 q 447 643 551 643 q 293 585 354 643 q 232 381 232 528 q 290 182 232 243 q 449 121 349 121 q 606 202 550 121 q 664 435 663 283 z "},"ď":{"ha":913,"x_min":71,"x_max":1086,"o":"m 71 0 m 794 1175 l 794 0 l 636 0 l 636 65 q 417 -24 529 -24 q 165 81 260 -24 q 71 386 71 186 q 165 690 71 585 q 417 794 260 794 q 636 706 529 794 l 636 1175 l 794 1175 m 443 121 q 636 199 539 121 l 636 572 q 443 650 539 650 q 288 583 340 650 q 236 386 236 515 q 288 188 236 256 q 443 121 340 121 m 928 1046 l 1086 1046 l 994 765 l 858 765 l 928 1046 z "},"đ":{"ha":913,"x_min":71,"x_max":888,"o":"m 888 897 l 794 897 l 794 0 l 636 0 l 636 65 q 417 -24 529 -24 q 165 81 260 -24 q 71 386 71 186 q 165 690 71 585 q 417 794 260 794 q 636 706 529 794 l 636 897 l 400 897 l 400 1019 l 636 1019 l 636 1175 l 794 1175 l 794 1019 l 888 1019 l 888 897 m 443 121 q 636 199 539 121 l 636 572 q 443 650 539 650 q 288 583 340 650 q 236 386 236 515 q 288 188 236 256 q 443 121 340 121 z "},"e":{"ha":821,"x_min":71,"x_max":765,"o":"m 236 360 q 300 181 242 247 q 482 114 358 114 q 589 128 536 114 q 704 172 642 143 l 749 44 q 615 -8 683 8 q 465 -24 547 -24 q 251 28 339 -24 q 117 172 163 79 q 71 388 71 265 q 118 608 71 517 q 247 747 165 700 q 429 794 329 794 q 676 699 586 794 q 765 422 765 604 l 765 360 l 236 360 m 429 657 q 243 488 276 657 l 599 488 q 550 616 592 575 q 429 657 508 657 z "},"é":{"ha":821,"x_min":71,"x_max":765,"o":"m 71 0 m 236 360 q 300 181 242 247 q 482 114 358 114 q 589 128 536 114 q 704 172 642 143 l 749 44 q 615 -8 683 8 q 465 -24 547 -24 q 251 28 339 -24 q 117 172 163 79 q 71 388 71 265 q 118 608 71 517 q 247 747 165 700 q 429 794 329 794 q 676 699 586 794 q 765 422 765 604 l 765 360 l 236 360 m 429 657 q 243 488 276 657 l 599 488 q 550 616 592 575 q 429 657 508 657 m 489 1124 l 674 1124 l 506 911 l 346 911 l 489 1124 z "},"ě":{"ha":821,"x_min":71,"x_max":765,"o":"m 71 0 m 236 360 q 300 181 242 247 q 482 114 358 114 q 589 128 536 114 q 704 172 642 143 l 749 44 q 615 -8 683 8 q 465 -24 547 -24 q 251 28 339 -24 q 117 172 163 79 q 71 388 71 265 q 118 608 71 517 q 247 747 165 700 q 429 794 329 794 q 676 699 586 794 q 765 422 765 604 l 765 360 l 236 360 m 429 657 q 243 488 276 657 l 599 488 q 550 616 592 575 q 429 657 508 657 m 676 1124 l 529 911 l 328 911 l 181 1124 l 344 1124 l 429 978 l 513 1124 l 676 1124 z "},"ê":{"ha":821,"x_min":71,"x_max":765,"o":"m 71 0 m 236 360 q 300 181 242 247 q 482 114 358 114 q 589 128 536 114 q 704 172 642 143 l 749 44 q 615 -8 683 8 q 465 -24 547 -24 q 251 28 339 -24 q 117 172 163 79 q 71 388 71 265 q 118 608 71 517 q 247 747 165 700 q 429 794 329 794 q 676 699 586 794 q 765 422 765 604 l 765 360 l 236 360 m 429 657 q 243 488 276 657 l 599 488 q 550 616 592 575 q 429 657 508 657 m 513 911 l 429 1057 l 344 911 l 181 911 l 328 1124 l 529 1124 l 676 911 l 513 911 z "},"ë":{"ha":821,"x_min":71,"x_max":765,"o":"m 71 0 m 236 360 q 300 181 242 247 q 482 114 358 114 q 589 128 536 114 q 704 172 642 143 l 749 44 q 615 -8 683 8 q 465 -24 547 -24 q 251 28 339 -24 q 117 172 163 79 q 71 388 71 265 q 118 608 71 517 q 247 747 165 700 q 429 794 329 794 q 676 699 586 794 q 765 422 765 604 l 765 360 l 236 360 m 429 657 q 243 488 276 657 l 599 488 q 550 616 592 575 q 429 657 508 657 m 503 1108 l 647 1108 l 647 926 l 503 926 l 503 1108 m 214 1108 l 358 1108 l 358 926 l 214 926 l 214 1108 z "},"ė":{"ha":821,"x_min":71,"x_max":765,"o":"m 71 0 m 236 360 q 300 181 242 247 q 482 114 358 114 q 589 128 536 114 q 704 172 642 143 l 749 44 q 615 -8 683 8 q 465 -24 547 -24 q 251 28 339 -24 q 117 172 163 79 q 71 388 71 265 q 118 608 71 517 q 247 747 165 700 q 429 794 329 794 q 676 699 586 794 q 765 422 765 604 l 765 360 l 236 360 m 429 657 q 243 488 276 657 l 599 488 q 550 616 592 575 q 429 657 508 657 m 353 1108 l 511 1108 l 511 926 l 353 926 l 353 1108 z "},"è":{"ha":821,"x_min":71,"x_max":765,"o":"m 71 0 m 236 360 q 300 181 242 247 q 482 114 358 114 q 589 128 536 114 q 704 172 642 143 l 749 44 q 615 -8 683 8 q 465 -24 547 -24 q 251 28 339 -24 q 117 172 163 79 q 71 388 71 265 q 118 608 71 517 q 247 747 165 700 q 429 794 329 794 q 676 699 586 794 q 765 422 765 604 l 765 360 l 236 360 m 429 657 q 243 488 276 657 l 599 488 q 550 616 592 575 q 429 657 508 657 m 189 1124 l 374 1124 l 517 911 l 357 911 l 189 1124 z "},"ē":{"ha":821,"x_min":71,"x_max":765,"o":"m 71 0 m 236 360 q 300 181 242 247 q 482 114 358 114 q 589 128 536 114 q 704 172 642 143 l 749 44 q 615 -8 683 8 q 465 -24 547 -24 q 251 28 339 -24 q 117 172 163 79 q 71 388 71 265 q 118 608 71 517 q 247 747 165 700 q 429 794 329 794 q 676 699 586 794 q 765 422 765 604 l 765 360 l 236 360 m 429 657 q 243 488 276 657 l 599 488 q 550 616 592 575 q 429 657 508 657 m 214 1072 l 643 1072 l 643 964 l 214 964 l 214 1072 z "},"ę":{"ha":821,"x_min":71,"x_max":765,"o":"m 236 360 q 300 181 242 247 q 482 114 358 114 q 589 128 536 114 q 704 172 642 143 l 749 44 q 681 13 714 25 q 569 -89 608 -42 q 531 -185 531 -136 q 547 -224 531 -210 q 593 -237 563 -237 q 667 -221 632 -237 l 667 -321 q 574 -337 619 -337 q 447 -303 489 -337 q 404 -208 404 -268 q 500 -22 404 -110 q 465 -24 489 -24 q 251 28 339 -24 q 117 172 163 79 q 71 388 71 265 q 118 608 71 517 q 247 747 165 700 q 429 794 329 794 q 676 699 586 794 q 765 422 765 604 l 765 360 l 236 360 m 429 657 q 243 488 276 657 l 599 488 q 550 616 592 575 q 429 657 508 657 z "},"f":{"ha":490,"x_min":50,"x_max":456,"o":"m 382 1049 q 319 1029 336 1049 q 303 957 303 1010 l 303 772 l 456 772 l 456 628 l 303 628 l 303 0 l 144 0 l 144 628 l 50 628 l 50 772 l 144 772 l 144 1004 q 194 1148 144 1103 q 351 1193 243 1193 q 456 1181 400 1193 l 456 1040 q 382 1049 422 1049 z "},"g":{"ha":893,"x_min":68,"x_max":792,"o":"m 792 772 l 792 -11 q 713 -258 792 -168 q 454 -349 633 -349 q 290 -337 360 -349 q 150 -299 219 -326 l 150 -146 q 283 -190 215 -175 q 406 -204 350 -204 q 548 -180 499 -204 q 615 -112 597 -156 q 633 3 633 -68 l 633 93 q 414 4 526 4 q 163 105 257 4 q 68 400 68 206 q 163 693 68 592 q 414 794 257 794 q 633 706 526 794 l 633 772 l 792 772 m 440 149 q 633 226 535 149 l 633 572 q 440 650 535 650 q 285 584 339 650 q 232 400 232 518 q 440 149 232 149 z "},"ğ":{"ha":893,"x_min":68,"x_max":792,"o":"m 68 0 m 792 772 l 792 -11 q 713 -258 792 -168 q 454 -349 633 -349 q 290 -337 360 -349 q 150 -299 219 -326 l 150 -146 q 283 -190 215 -175 q 406 -204 350 -204 q 548 -180 499 -204 q 615 -112 597 -156 q 633 3 633 -68 l 633 93 q 414 4 526 4 q 163 105 257 4 q 68 400 68 206 q 163 693 68 592 q 414 794 257 794 q 633 706 526 794 l 633 772 l 792 772 m 440 149 q 633 226 535 149 l 633 572 q 440 650 535 650 q 285 584 339 650 q 232 400 232 518 q 440 149 232 149 m 451 907 q 289 956 349 907 q 229 1101 229 1004 l 229 1121 l 354 1121 l 354 1104 q 378 1032 354 1056 q 451 1008 401 1008 q 526 1032 503 1008 q 549 1104 549 1056 l 549 1121 l 674 1121 l 674 1101 q 616 956 675 1004 q 451 907 557 907 z "},"ģ":{"ha":893,"x_min":68,"x_max":792,"o":"m 68 0 m 792 772 l 792 -11 q 713 -258 792 -168 q 454 -349 633 -349 q 290 -337 360 -349 q 150 -299 219 -326 l 150 -146 q 283 -190 215 -175 q 406 -204 350 -204 q 548 -180 499 -204 q 615 -112 597 -156 q 633 3 633 -68 l 633 93 q 414 4 526 4 q 163 105 257 4 q 68 400 68 206 q 163 693 68 592 q 414 794 257 794 q 633 706 526 794 l 633 772 l 792 772 m 440 149 q 633 226 535 149 l 633 572 q 440 650 535 650 q 285 584 339 650 q 232 400 232 518 q 440 149 232 149 m 426 1171 l 578 1171 l 533 940 l 367 940 l 426 1171 z "},"ġ":{"ha":893,"x_min":68,"x_max":792,"o":"m 68 0 m 792 772 l 792 -11 q 713 -258 792 -168 q 454 -349 633 -349 q 290 -337 360 -349 q 150 -299 219 -326 l 150 -146 q 283 -190 215 -175 q 406 -204 350 -204 q 548 -180 499 -204 q 615 -112 597 -156 q 633 3 633 -68 l 633 93 q 414 4 526 4 q 163 105 257 4 q 68 400 68 206 q 163 693 68 592 q 414 794 257 794 q 633 706 526 794 l 633 772 l 792 772 m 440 149 q 633 226 535 149 l 633 572 q 440 650 535 650 q 285 584 339 650 q 232 400 232 518 q 440 149 232 149 m 372 1108 l 531 1108 l 531 926 l 372 926 l 372 1108 z "},"h":{"ha":906,"x_min":118,"x_max":794,"o":"m 507 789 q 724 713 653 789 q 794 465 794 638 l 794 0 l 636 0 l 636 465 q 601 603 636 561 q 481 644 567 644 q 276 557 378 644 l 276 0 l 118 0 l 118 1175 l 276 1175 l 276 696 q 507 789 386 789 z "},"ħ":{"ha":906,"x_min":24,"x_max":794,"o":"m 507 789 q 724 713 653 789 q 794 465 794 638 l 794 0 l 636 0 l 636 465 q 601 603 636 561 q 481 644 567 644 q 276 557 378 644 l 276 0 l 118 0 l 118 897 l 24 897 l 24 1019 l 118 1019 l 118 1175 l 276 1175 l 276 1019 l 511 1019 l 511 897 l 276 897 l 276 696 q 507 789 386 789 z "},"i":{"ha":394,"x_min":118,"x_max":276,"o":"m 118 1122 l 276 1122 l 276 913 l 118 913 l 118 1122 m 118 772 l 276 772 l 276 0 l 118 0 l 118 772 z "},"ı":{"ha":394,"x_min":118,"x_max":276,"o":"m 118 772 l 276 772 l 276 0 l 118 0 l 118 772 z "},"í":{"ha":394,"x_min":113,"x_max":440,"o":"m 113 0 m 118 772 l 276 772 l 276 0 l 118 0 l 118 772 m 256 1124 l 440 1124 l 272 911 l 113 911 l 256 1124 z "},"î":{"ha":394,"x_min":-53,"x_max":443,"o":"m 0 0 m 118 772 l 276 772 l 276 0 l 118 0 l 118 772 m 279 911 l 196 1057 l 111 911 l -53 911 l 94 1124 l 296 1124 l 443 911 l 279 911 z "},"ï":{"ha":394,"x_min":-19,"x_max":414,"o":"m 0 0 m 118 772 l 276 772 l 276 0 l 118 0 l 118 772 m 269 1108 l 414 1108 l 414 926 l 269 926 l 269 1108 m -19 1108 l 125 1108 l 125 926 l -19 926 l -19 1108 z "},"ì":{"ha":394,"x_min":-44,"x_max":283,"o":"m 0 0 m 118 772 l 276 772 l 276 0 l 118 0 l 118 772 m -44 1124 l 140 1124 l 283 911 l 124 911 l -44 1124 z "},"ĳ":{"ha":789,"x_min":118,"x_max":671,"o":"m 118 0 m 118 1122 l 276 1122 l 276 913 l 118 913 l 118 1122 m 118 772 l 276 772 l 276 0 l 118 0 l 118 772 m 513 1122 l 671 1122 l 671 913 l 513 913 l 513 1122 m 464 -349 q 360 -336 428 -349 l 360 -196 q 433 -204 392 -204 q 496 -179 479 -204 q 513 -83 513 -154 l 513 775 l 671 775 l 671 -132 q 624 -299 671 -249 q 464 -349 576 -349 z "},"ī":{"ha":394,"x_min":-19,"x_max":410,"o":"m 0 0 m 118 772 l 276 772 l 276 0 l 118 0 l 118 772 m -19 1072 l 410 1072 l 410 964 l -19 964 l -19 1072 z "},"į":{"ha":394,"x_min":3,"x_max":276,"o":"m 276 1122 l 276 913 l 118 913 l 118 1122 l 276 1122 m 118 772 l 276 772 l 276 0 l 264 0 q 165 -95 200 -50 q 129 -185 129 -140 q 190 -237 129 -237 q 264 -221 229 -237 l 264 -321 q 171 -337 217 -337 q 45 -303 88 -337 q 3 -208 3 -268 q 132 0 3 -100 l 118 0 l 118 772 z "},"j":{"ha":394,"x_min":-35,"x_max":276,"o":"m 118 1122 l 276 1122 l 276 913 l 118 913 l 118 1122 m 69 -349 q -35 -336 33 -349 l -35 -196 q 39 -204 -3 -204 q 101 -179 85 -204 q 118 -83 118 -154 l 118 775 l 276 775 l 276 -132 q 229 -299 276 -249 q 69 -349 182 -349 z "},"ȷ":{"ha":394,"x_min":-35,"x_max":276,"o":"m 69 -349 q -35 -336 33 -349 l -35 -196 q 39 -204 -3 -204 q 101 -179 85 -204 q 118 -83 118 -154 l 118 775 l 276 775 l 276 -132 q 229 -299 276 -249 q 69 -349 182 -349 z "},"k":{"ha":836,"x_min":118,"x_max":808,"o":"m 356 332 l 276 250 l 276 0 l 118 0 l 118 1175 l 276 1175 l 276 449 l 574 758 l 768 758 l 461 440 l 808 0 l 617 0 l 356 332 z "},"ķ":{"ha":836,"x_min":118,"x_max":808,"o":"m 118 0 m 356 332 l 276 250 l 276 0 l 118 0 l 118 1175 l 276 1175 l 276 449 l 574 758 l 768 758 l 461 440 l 808 0 l 617 0 l 356 332 m 340 -111 l 507 -111 l 447 -342 l 296 -342 l 340 -111 z "},"l":{"ha":464,"x_min":118,"x_max":429,"o":"m 326 -18 q 167 27 217 -18 q 118 171 118 72 l 118 1175 l 276 1175 l 276 219 q 293 147 276 167 q 357 126 310 126 q 429 135 399 126 l 429 -6 q 326 -18 375 -18 z "},"ĺ":{"ha":464,"x_min":111,"x_max":439,"o":"m 111 0 m 326 -18 q 167 27 217 -18 q 118 171 118 72 l 118 1175 l 276 1175 l 276 219 q 293 147 276 167 q 357 126 310 126 q 429 135 399 126 l 429 -6 q 326 -18 375 -18 m 254 1540 l 439 1540 l 271 1328 l 111 1328 l 254 1540 z "},"ľ":{"ha":464,"x_min":118,"x_max":585,"o":"m 118 0 m 326 -18 q 167 27 217 -18 q 118 171 118 72 l 118 1175 l 276 1175 l 276 219 q 293 147 276 167 q 357 126 310 126 q 429 135 399 126 l 429 -6 q 326 -18 375 -18 m 426 1053 l 585 1053 l 493 772 l 357 772 l 426 1053 z "},"ļ":{"ha":464,"x_min":118,"x_max":429,"o":"m 118 0 m 326 -18 q 167 27 217 -18 q 118 171 118 72 l 118 1175 l 276 1175 l 276 219 q 293 147 276 167 q 357 126 310 126 q 429 135 399 126 l 429 -6 q 326 -18 375 -18 m 211 -111 l 378 -111 l 318 -342 l 167 -342 l 211 -111 z "},"ŀ":{"ha":464,"x_min":118,"x_max":506,"o":"m 118 0 m 326 -18 q 167 27 217 -18 q 118 171 118 72 l 118 1175 l 276 1175 l 276 219 q 293 147 276 167 q 357 126 310 126 q 429 135 399 126 l 429 -6 q 326 -18 375 -18 m 333 594 l 506 594 l 506 364 l 333 364 l 333 594 z "},"ł":{"ha":464,"x_min":8,"x_max":429,"o":"m 357 126 q 429 135 399 126 l 429 -6 q 326 -18 375 -18 q 167 27 217 -18 q 118 171 118 72 l 118 497 l 8 461 l 8 600 l 118 636 l 118 1175 l 276 1175 l 276 689 l 428 740 l 428 601 l 276 550 l 276 219 q 293 147 276 167 q 357 126 310 126 z "},"m":{"ha":1379,"x_min":118,"x_max":1285,"o":"m 1004 789 q 1216 713 1147 789 q 1285 465 1285 638 l 1285 0 l 1126 0 l 1126 465 q 1094 603 1126 561 q 978 644 1061 644 q 776 550 878 644 q 781 465 781 511 l 781 0 l 622 0 l 622 465 q 590 603 622 561 q 474 644 557 644 q 276 557 378 644 l 276 0 l 118 0 l 118 772 l 276 772 l 276 696 q 500 789 382 789 q 652 758 592 789 q 744 663 713 728 q 1004 789 871 789 z "},"n":{"ha":906,"x_min":118,"x_max":794,"o":"m 507 789 q 724 713 653 789 q 794 465 794 638 l 794 0 l 636 0 l 636 465 q 601 603 636 561 q 481 644 567 644 q 276 557 381 644 l 276 0 l 118 0 l 118 772 l 276 772 l 276 694 q 507 789 386 789 z "},"ń":{"ha":906,"x_min":118,"x_max":794,"o":"m 118 0 m 507 789 q 724 713 653 789 q 794 465 794 638 l 794 0 l 636 0 l 636 465 q 601 603 636 561 q 481 644 567 644 q 276 557 381 644 l 276 0 l 118 0 l 118 772 l 276 772 l 276 694 q 507 789 386 789 m 519 1124 l 704 1124 l 536 911 l 376 911 l 519 1124 z "},"ň":{"ha":906,"x_min":-103,"x_max":794,"o":"m 0 0 m 507 789 q 724 713 653 789 q 794 465 794 638 l 794 0 l 636 0 l 636 465 q 601 603 636 561 q 481 644 567 644 q 276 557 381 644 l 276 0 l 118 0 l 118 772 l 276 772 l 276 694 q 507 789 386 789 m -33 1053 l 125 1053 l 33 772 l -103 772 l -33 1053 z "},"ņ":{"ha":906,"x_min":118,"x_max":794,"o":"m 118 0 m 507 789 q 724 713 653 789 q 794 465 794 638 l 794 0 l 636 0 l 636 465 q 601 603 636 561 q 481 644 567 644 q 276 557 381 644 l 276 0 l 118 0 l 118 772 l 276 772 l 276 694 q 507 789 386 789 m 381 -111 l 547 -111 l 488 -342 l 336 -342 l 381 -111 z "},"ŋ":{"ha":897,"x_min":118,"x_max":794,"o":"m 507 789 q 724 713 653 789 q 794 465 794 638 l 794 -132 q 747 -299 794 -249 q 588 -349 700 -349 q 483 -336 551 -349 l 483 -196 q 557 -204 517 -204 q 619 -179 603 -204 q 636 -83 636 -154 l 636 465 q 601 603 636 561 q 481 644 567 644 q 276 557 381 644 l 276 0 l 118 0 l 118 772 l 276 772 l 276 694 q 507 789 386 789 z "},"ñ":{"ha":906,"x_min":118,"x_max":794,"o":"m 118 0 m 507 789 q 724 713 653 789 q 794 465 794 638 l 794 0 l 636 0 l 636 465 q 601 603 636 561 q 481 644 567 644 q 276 557 381 644 l 276 0 l 118 0 l 118 772 l 276 772 l 276 694 q 507 789 386 789 m 231 929 q 357 1097 233 1097 q 438 1079 396 1097 l 489 1057 q 538 1043 525 1043 q 572 1097 572 1043 l 690 1097 q 565 929 689 929 q 485 947 526 929 l 433 969 q 385 983 400 983 q 349 929 349 983 l 231 929 z "},"o":{"ha":919,"x_min":71,"x_max":849,"o":"m 461 -24 q 247 31 335 -24 q 115 177 160 85 q 71 386 71 269 q 115 594 71 501 q 247 741 160 688 q 461 794 335 794 q 674 741 586 794 q 805 594 761 688 q 849 386 849 501 q 805 177 849 269 q 674 31 761 85 q 461 -24 586 -24 m 461 117 q 626 190 568 117 q 683 386 683 264 q 626 581 683 507 q 461 654 568 654 q 294 581 353 654 q 236 386 236 507 q 294 190 236 264 q 461 117 353 117 z "},"ó":{"ha":919,"x_min":71,"x_max":849,"o":"m 71 0 m 461 -24 q 247 31 335 -24 q 115 177 160 85 q 71 386 71 269 q 115 594 71 501 q 247 741 160 688 q 461 794 335 794 q 674 741 586 794 q 805 594 761 688 q 849 386 849 501 q 805 177 849 269 q 674 31 761 85 q 461 -24 586 -24 m 461 117 q 626 190 568 117 q 683 386 683 264 q 626 581 683 507 q 461 654 568 654 q 294 581 353 654 q 236 386 236 507 q 294 190 236 264 q 461 117 353 117 m 518 1124 l 703 1124 l 535 911 l 375 911 l 518 1124 z "},"ô":{"ha":919,"x_min":71,"x_max":849,"o":"m 71 0 m 461 -24 q 247 31 335 -24 q 115 177 160 85 q 71 386 71 269 q 115 594 71 501 q 247 741 160 688 q 461 794 335 794 q 674 741 586 794 q 805 594 761 688 q 849 386 849 501 q 805 177 849 269 q 674 31 761 85 q 461 -24 586 -24 m 461 117 q 626 190 568 117 q 683 386 683 264 q 626 581 683 507 q 461 654 568 654 q 294 581 353 654 q 236 386 236 507 q 294 190 236 264 q 461 117 353 117 m 543 911 l 460 1057 l 375 911 l 211 911 l 358 1124 l 560 1124 l 707 911 l 543 911 z "},"ö":{"ha":919,"x_min":71,"x_max":849,"o":"m 71 0 m 461 -24 q 247 31 335 -24 q 115 177 160 85 q 71 386 71 269 q 115 594 71 501 q 247 741 160 688 q 461 794 335 794 q 674 741 586 794 q 805 594 761 688 q 849 386 849 501 q 805 177 849 269 q 674 31 761 85 q 461 -24 586 -24 m 461 117 q 626 190 568 117 q 683 386 683 264 q 626 581 683 507 q 461 654 568 654 q 294 581 353 654 q 236 386 236 507 q 294 190 236 264 q 461 117 353 117 m 533 1108 l 678 1108 l 678 926 l 533 926 l 533 1108 m 244 1108 l 389 1108 l 389 926 l 244 926 l 244 1108 z "},"ò":{"ha":919,"x_min":71,"x_max":849,"o":"m 71 0 m 461 -24 q 247 31 335 -24 q 115 177 160 85 q 71 386 71 269 q 115 594 71 501 q 247 741 160 688 q 461 794 335 794 q 674 741 586 794 q 805 594 761 688 q 849 386 849 501 q 805 177 849 269 q 674 31 761 85 q 461 -24 586 -24 m 461 117 q 626 190 568 117 q 683 386 683 264 q 626 581 683 507 q 461 654 568 654 q 294 581 353 654 q 236 386 236 507 q 294 190 236 264 q 461 117 353 117 m 218 1124 l 403 1124 l 546 911 l 386 911 l 218 1124 z "},"ő":{"ha":919,"x_min":71,"x_max":849,"o":"m 71 0 m 461 -24 q 247 31 335 -24 q 115 177 160 85 q 71 386 71 269 q 115 594 71 501 q 247 741 160 688 q 461 794 335 794 q 674 741 586 794 q 805 594 761 688 q 849 386 849 501 q 805 177 849 269 q 674 31 761 85 q 461 -24 586 -24 m 461 117 q 626 190 568 117 q 683 386 683 264 q 626 581 683 507 q 461 654 568 654 q 294 581 353 654 q 236 386 236 507 q 294 190 236 264 q 461 117 353 117 m 664 1124 l 835 1124 l 667 911 l 521 911 l 664 1124 m 389 1124 l 560 1124 l 392 911 l 246 911 l 389 1124 z "},"ō":{"ha":919,"x_min":71,"x_max":849,"o":"m 71 0 m 461 -24 q 247 31 335 -24 q 115 177 160 85 q 71 386 71 269 q 115 594 71 501 q 247 741 160 688 q 461 794 335 794 q 674 741 586 794 q 805 594 761 688 q 849 386 849 501 q 805 177 849 269 q 674 31 761 85 q 461 -24 586 -24 m 461 117 q 626 190 568 117 q 683 386 683 264 q 626 581 683 507 q 461 654 568 654 q 294 581 353 654 q 236 386 236 507 q 294 190 236 264 q 461 117 353 117 m 244 1072 l 674 1072 l 674 964 l 244 964 l 244 1072 z "},"ø":{"ha":919,"x_min":43,"x_max":876,"o":"m 793 617 q 849 386 849 517 q 805 177 849 269 q 674 31 761 85 q 461 -24 586 -24 q 207 58 307 -24 l 135 -10 l 43 76 l 126 156 q 71 386 71 253 q 115 594 71 501 q 247 741 160 688 q 461 794 335 794 q 713 713 615 794 l 788 783 l 876 696 l 793 617 m 236 386 q 251 274 236 319 l 601 606 q 461 654 544 654 q 294 581 353 654 q 236 386 236 507 m 683 386 q 668 497 683 444 l 318 165 q 461 117 375 117 q 626 190 568 117 q 683 386 683 264 z "},"õ":{"ha":919,"x_min":71,"x_max":849,"o":"m 71 0 m 461 -24 q 247 31 335 -24 q 115 177 160 85 q 71 386 71 269 q 115 594 71 501 q 247 741 160 688 q 461 794 335 794 q 674 741 586 794 q 805 594 761 688 q 849 386 849 501 q 805 177 849 269 q 674 31 761 85 q 461 -24 586 -24 m 461 117 q 626 190 568 117 q 683 386 683 264 q 626 581 683 507 q 461 654 568 654 q 294 581 353 654 q 236 386 236 507 q 294 190 236 264 q 461 117 353 117 m 229 929 q 356 1097 232 1097 q 436 1079 394 1097 l 488 1057 q 536 1043 524 1043 q 571 1097 571 1043 l 689 1097 q 564 929 688 929 q 483 947 525 929 l 432 969 q 383 983 399 983 q 347 929 347 983 l 229 929 z "},"œ":{"ha":1433,"x_min":71,"x_max":1378,"o":"m 849 360 q 913 181 854 247 q 1094 114 971 114 q 1201 128 1149 114 q 1317 172 1254 143 l 1361 44 q 1228 -8 1296 8 q 1078 -24 1160 -24 q 890 19 969 -24 q 765 139 811 61 q 640 19 718 63 q 454 -24 561 -24 q 244 31 331 -24 q 115 177 158 85 q 71 386 71 269 q 115 594 71 501 q 244 741 158 688 q 454 794 331 794 q 638 752 560 794 q 764 635 717 710 q 883 753 808 713 q 1049 794 958 794 q 1290 699 1203 794 q 1378 422 1378 604 l 1378 360 l 849 360 m 1042 657 q 856 488 889 657 l 1211 488 q 1163 616 1204 575 q 1042 657 1121 657 m 461 117 q 626 190 568 117 q 683 386 683 264 q 626 581 683 508 q 461 654 568 654 q 294 581 353 654 q 236 386 236 508 q 294 190 236 264 q 461 117 353 117 z "},"p":{"ha":913,"x_min":118,"x_max":842,"o":"m 496 794 q 747 690 653 794 q 842 386 842 585 q 747 81 842 186 q 496 -24 653 -24 q 276 65 383 -24 l 276 -325 l 118 -325 l 118 772 l 276 772 l 276 706 q 496 794 383 794 m 469 121 q 625 188 572 121 q 678 386 678 256 q 625 583 678 515 q 469 650 572 650 q 276 572 374 650 l 276 199 q 469 121 374 121 z "},"þ":{"ha":865,"x_min":118,"x_max":842,"o":"m 496 794 q 747 690 653 794 q 842 386 842 585 q 747 81 842 186 q 496 -24 653 -24 q 276 65 383 -24 l 276 -325 l 118 -325 l 118 1175 l 276 1175 l 276 706 q 496 794 383 794 m 469 121 q 625 188 572 121 q 678 386 678 256 q 625 583 678 515 q 469 650 572 650 q 276 572 374 650 l 276 199 q 469 121 374 121 z "},"q":{"ha":913,"x_min":71,"x_max":794,"o":"m 794 772 l 794 -325 l 636 -325 l 636 65 q 417 -24 529 -24 q 165 81 260 -24 q 71 386 71 186 q 165 690 71 585 q 417 794 260 794 q 636 706 529 794 l 636 772 l 794 772 m 443 121 q 636 199 539 121 l 636 572 q 443 650 539 650 q 288 583 340 650 q 236 386 236 515 q 288 188 236 256 q 443 121 340 121 z "},"r":{"ha":578,"x_min":118,"x_max":536,"o":"m 536 789 l 536 644 l 504 644 q 276 554 390 644 l 276 0 l 118 0 l 118 772 l 276 772 l 276 690 q 504 789 386 789 l 536 789 z "},"ŕ":{"ha":578,"x_min":118,"x_max":568,"o":"m 118 0 m 536 789 l 536 644 l 504 644 q 276 554 390 644 l 276 0 l 118 0 l 118 772 l 276 772 l 276 690 q 504 789 386 789 l 536 789 m 383 1124 l 568 1124 l 400 911 l 240 911 l 383 1124 z "},"ř":{"ha":578,"x_min":76,"x_max":572,"o":"m 76 0 m 536 789 l 536 644 l 504 644 q 276 554 390 644 l 276 0 l 118 0 l 118 772 l 276 772 l 276 690 q 504 789 386 789 l 536 789 m 572 1124 l 425 911 l 224 911 l 76 1124 l 240 1124 l 325 978 l 408 1124 l 572 1124 z "},"ŗ":{"ha":578,"x_min":71,"x_max":536,"o":"m 71 0 m 536 789 l 536 644 l 504 644 q 276 554 390 644 l 276 0 l 118 0 l 118 772 l 276 772 l 276 690 q 504 789 386 789 l 536 789 m 115 -111 l 282 -111 l 222 -342 l 71 -342 l 115 -111 z "},"s":{"ha":732,"x_min":71,"x_max":661,"o":"m 368 -24 q 213 -9 281 -24 q 71 40 146 6 l 71 190 q 368 114 204 114 q 469 141 438 114 q 500 214 500 168 q 476 276 500 256 q 400 311 453 297 l 299 335 q 141 411 196 358 q 86 564 86 464 q 158 735 86 675 q 371 794 229 794 q 625 744 496 794 l 625 601 q 376 657 508 657 q 277 633 307 657 q 247 571 247 608 q 271 511 247 531 q 342 479 294 492 l 444 456 q 608 380 554 431 q 661 219 661 329 q 581 39 661 101 q 368 -24 501 -24 z "},"ś":{"ha":732,"x_min":71,"x_max":661,"o":"m 71 0 m 368 -24 q 213 -9 281 -24 q 71 40 146 6 l 71 190 q 368 114 204 114 q 469 141 438 114 q 500 214 500 168 q 476 276 500 256 q 400 311 453 297 l 299 335 q 141 411 196 358 q 86 564 86 464 q 158 735 86 675 q 371 794 229 794 q 625 744 496 794 l 625 601 q 376 657 508 657 q 277 633 307 657 q 247 571 247 608 q 271 511 247 531 q 342 479 294 492 l 444 456 q 608 380 554 431 q 661 219 661 329 q 581 39 661 101 q 368 -24 501 -24 m 429 1124 l 614 1124 l 446 911 l 286 911 l 429 1124 z "},"š":{"ha":732,"x_min":71,"x_max":661,"o":"m 71 0 m 368 -24 q 213 -9 281 -24 q 71 40 146 6 l 71 190 q 368 114 204 114 q 469 141 438 114 q 500 214 500 168 q 476 276 500 256 q 400 311 453 297 l 299 335 q 141 411 196 358 q 86 564 86 464 q 158 735 86 675 q 371 794 229 794 q 625 744 496 794 l 625 601 q 376 657 508 657 q 277 633 307 657 q 247 571 247 608 q 271 511 247 531 q 342 479 294 492 l 444 456 q 608 380 554 431 q 661 219 661 329 q 581 39 661 101 q 368 -24 501 -24 m 618 1124 l 471 911 l 269 911 l 122 1124 l 286 1124 l 371 978 l 454 1124 l 618 1124 z "},"ş":{"ha":732,"x_min":71,"x_max":661,"o":"m 661 219 q 595 51 661 113 q 417 -21 529 -10 l 397 -81 l 407 -81 q 518 -118 479 -81 q 557 -217 557 -156 q 510 -325 557 -285 q 374 -365 464 -365 q 300 -360 333 -365 q 232 -337 267 -354 l 232 -239 q 360 -268 296 -268 q 419 -254 400 -268 q 438 -219 438 -240 q 365 -175 438 -175 q 254 -194 310 -175 l 304 -22 q 186 -3 242 -18 q 71 40 131 11 l 71 190 q 368 114 204 114 q 469 141 438 114 q 500 214 500 168 q 476 276 500 256 q 400 311 453 297 l 299 335 q 141 411 196 358 q 86 564 86 464 q 158 735 86 675 q 371 794 229 794 q 625 744 496 794 l 625 601 q 376 657 508 657 q 277 633 307 657 q 247 571 247 608 q 271 511 247 531 q 342 479 294 492 l 444 456 q 608 380 554 431 q 661 219 661 329 z "},"ș":{"ha":732,"x_min":71,"x_max":661,"o":"m 71 0 m 368 -24 q 213 -9 281 -24 q 71 40 146 6 l 71 190 q 368 114 204 114 q 469 141 438 114 q 500 214 500 168 q 476 276 500 256 q 400 311 453 297 l 299 335 q 141 411 196 358 q 86 564 86 464 q 158 735 86 675 q 371 794 229 794 q 625 744 496 794 l 625 601 q 376 657 508 657 q 277 633 307 657 q 247 571 247 608 q 271 511 247 531 q 342 479 294 492 l 444 456 q 608 380 554 431 q 661 219 661 329 q 581 39 661 101 q 368 -24 501 -24 m 283 -111 l 450 -111 l 390 -342 l 239 -342 l 283 -111 z "},"ß":{"ha":885,"x_min":118,"x_max":838,"o":"m 564 -24 q 476 -17 517 -24 q 392 10 436 -10 l 392 151 q 474 122 439 131 q 543 114 508 114 q 676 219 675 114 q 647 288 676 263 q 558 342 618 313 q 468 392 503 368 q 408 460 433 417 q 383 569 383 503 q 402 669 383 629 q 457 760 421 708 q 508 844 492 810 q 524 928 524 879 q 495 1020 524 992 q 407 1049 467 1049 q 308 1015 339 1049 q 276 900 276 982 l 276 0 l 118 0 l 118 900 q 192 1124 118 1054 q 414 1193 265 1193 q 610 1126 539 1193 q 682 938 682 1060 q 659 801 682 856 q 594 688 636 746 q 556 623 568 646 q 544 572 544 600 q 571 514 544 536 q 656 460 597 492 q 748 404 711 431 q 811 333 785 378 q 838 222 838 288 q 761 39 835 101 q 564 -24 688 -24 z "},"t":{"ha":542,"x_min":50,"x_max":488,"o":"m 310 614 l 310 219 q 326 147 310 167 q 389 126 343 126 q 476 138 432 126 l 476 -3 q 356 -18 411 -18 q 198 28 244 -18 q 151 175 151 74 l 151 614 l 50 614 l 50 758 l 151 758 l 151 1022 l 310 1022 l 310 758 l 488 758 l 488 614 l 310 614 z "},"ŧ":{"ha":542,"x_min":50,"x_max":488,"o":"m 310 317 l 310 219 q 326 147 310 167 q 389 126 343 126 q 476 138 432 126 l 476 -3 q 356 -18 411 -18 q 198 28 244 -18 q 151 175 151 74 l 151 317 l 50 317 l 50 453 l 151 453 l 151 614 l 50 614 l 50 758 l 151 758 l 151 1022 l 310 1022 l 310 758 l 488 758 l 488 614 l 310 614 l 310 453 l 488 453 l 488 317 l 310 317 z "},"ť":{"ha":542,"x_min":50,"x_max":599,"o":"m 50 0 m 310 614 l 310 219 q 326 147 310 167 q 389 126 343 126 q 476 138 432 126 l 476 -3 q 356 -18 411 -18 q 198 28 244 -18 q 151 175 151 74 l 151 614 l 50 614 l 50 758 l 151 758 l 151 1022 l 310 1022 l 310 758 l 488 758 l 488 614 l 310 614 m 440 1122 l 599 1122 l 507 842 l 371 842 l 440 1122 z "},"ţ":{"ha":542,"x_min":50,"x_max":503,"o":"m 353 -81 q 464 -118 425 -81 q 503 -217 503 -156 q 456 -325 503 -285 q 319 -365 410 -365 q 246 -360 279 -365 q 178 -337 213 -354 l 178 -239 q 306 -268 242 -268 q 365 -254 346 -268 q 383 -219 383 -240 q 311 -175 383 -175 q 200 -194 256 -175 l 256 -6 q 176 56 200 13 q 151 175 151 100 l 151 614 l 50 614 l 50 758 l 151 758 l 151 1022 l 310 1022 l 310 758 l 488 758 l 488 614 l 310 614 l 310 219 q 326 147 310 167 q 389 126 343 126 q 476 138 432 126 l 476 -3 q 364 -18 410 -17 l 343 -81 l 353 -81 z "},"ț":{"ha":542,"x_min":50,"x_max":488,"o":"m 50 0 m 310 614 l 310 219 q 326 147 310 167 q 389 126 343 126 q 476 138 432 126 l 476 -3 q 356 -18 411 -18 q 198 28 244 -18 q 151 175 151 74 l 151 614 l 50 614 l 50 758 l 151 758 l 151 1022 l 310 1022 l 310 758 l 488 758 l 488 614 l 310 614 m 229 -111 l 396 -111 l 336 -342 l 185 -342 l 229 -111 z "},"u":{"ha":906,"x_min":111,"x_max":788,"o":"m 788 772 l 788 0 l 629 0 l 629 76 q 399 -17 519 -17 q 182 60 253 -17 q 111 307 111 136 l 111 772 l 269 772 l 269 307 q 305 170 269 213 q 426 128 340 128 q 629 215 528 128 l 629 772 l 788 772 z "},"ú":{"ha":906,"x_min":111,"x_max":788,"o":"m 111 0 m 788 772 l 788 0 l 629 0 l 629 76 q 399 -17 519 -17 q 182 60 253 -17 q 111 307 111 136 l 111 772 l 269 772 l 269 307 q 305 170 269 213 q 426 128 340 128 q 629 215 528 128 l 629 772 l 788 772 m 508 1124 l 693 1124 l 525 911 l 365 911 l 508 1124 z "},"û":{"ha":906,"x_min":111,"x_max":788,"o":"m 111 0 m 788 772 l 788 0 l 629 0 l 629 76 q 399 -17 519 -17 q 182 60 253 -17 q 111 307 111 136 l 111 772 l 269 772 l 269 307 q 305 170 269 213 q 426 128 340 128 q 629 215 528 128 l 629 772 l 788 772 m 532 911 l 449 1057 l 364 911 l 200 911 l 347 1124 l 549 1124 l 696 911 l 532 911 z "},"ü":{"ha":906,"x_min":111,"x_max":788,"o":"m 111 0 m 788 772 l 788 0 l 629 0 l 629 76 q 399 -17 519 -17 q 182 60 253 -17 q 111 307 111 136 l 111 772 l 269 772 l 269 307 q 305 170 269 213 q 426 128 340 128 q 629 215 528 128 l 629 772 l 788 772 m 522 1108 l 667 1108 l 667 926 l 522 926 l 522 1108 m 233 1108 l 378 1108 l 378 926 l 233 926 l 233 1108 z "},"ù":{"ha":906,"x_min":111,"x_max":788,"o":"m 111 0 m 788 772 l 788 0 l 629 0 l 629 76 q 399 -17 519 -17 q 182 60 253 -17 q 111 307 111 136 l 111 772 l 269 772 l 269 307 q 305 170 269 213 q 426 128 340 128 q 629 215 528 128 l 629 772 l 788 772 m 208 1124 l 393 1124 l 536 911 l 376 911 l 208 1124 z "},"ű":{"ha":906,"x_min":111,"x_max":825,"o":"m 111 0 m 788 772 l 788 0 l 629 0 l 629 76 q 399 -17 519 -17 q 182 60 253 -17 q 111 307 111 136 l 111 772 l 269 772 l 269 307 q 305 170 269 213 q 426 128 340 128 q 629 215 528 128 l 629 772 l 788 772 m 654 1124 l 825 1124 l 657 911 l 511 911 l 654 1124 m 379 1124 l 550 1124 l 382 911 l 236 911 l 379 1124 z "},"ū":{"ha":906,"x_min":111,"x_max":788,"o":"m 111 0 m 788 772 l 788 0 l 629 0 l 629 76 q 399 -17 519 -17 q 182 60 253 -17 q 111 307 111 136 l 111 772 l 269 772 l 269 307 q 305 170 269 213 q 426 128 340 128 q 629 215 528 128 l 629 772 l 788 772 m 233 1072 l 663 1072 l 663 964 l 233 964 l 233 1072 z "},"ų":{"ha":906,"x_min":111,"x_max":788,"o":"m 788 772 l 788 0 q 688 -96 724 -51 q 653 -185 653 -140 q 669 -224 653 -210 q 715 -237 685 -237 q 788 -221 754 -237 l 788 -321 q 694 -337 742 -337 q 569 -303 611 -337 q 526 -208 526 -268 q 657 0 526 -100 l 629 0 l 629 76 q 399 -17 519 -17 q 182 60 253 -17 q 111 307 111 136 l 111 772 l 269 772 l 269 307 q 305 170 269 213 q 426 128 340 128 q 629 215 528 128 l 629 772 l 788 772 z "},"ů":{"ha":906,"x_min":111,"x_max":788,"o":"m 111 0 m 788 772 l 788 0 l 629 0 l 629 76 q 399 -17 519 -17 q 182 60 253 -17 q 111 307 111 136 l 111 772 l 269 772 l 269 307 q 305 170 269 213 q 426 128 340 128 q 629 215 528 128 l 629 772 l 788 772 m 449 889 q 338 925 378 889 q 299 1017 299 961 q 338 1108 299 1074 q 449 1143 376 1143 q 559 1108 521 1143 q 597 1017 597 1074 q 558 924 597 960 q 449 889 519 889 m 449 963 q 490 977 475 963 q 506 1017 506 992 q 490 1056 506 1042 q 449 1071 475 1071 q 406 1056 422 1071 q 390 1017 390 1042 q 406 977 390 992 q 449 963 422 963 z "},"v":{"ha":813,"x_min":28,"x_max":785,"o":"m 785 772 l 503 -12 l 311 -12 l 28 772 l 192 772 l 407 149 l 621 772 l 785 772 z "},"w":{"ha":1232,"x_min":35,"x_max":1197,"o":"m 1197 772 l 971 -12 l 793 -12 l 617 546 l 440 -12 l 263 -12 l 35 772 l 199 772 l 353 188 l 524 772 l 708 772 l 881 188 l 1033 772 l 1197 772 z "},"ẃ":{"ha":1232,"x_min":35,"x_max":1197,"o":"m 35 0 m 1197 772 l 971 -12 l 793 -12 l 617 546 l 440 -12 l 263 -12 l 35 772 l 199 772 l 353 188 l 524 772 l 708 772 l 881 188 l 1033 772 l 1197 772 m 675 1124 l 860 1124 l 692 911 l 532 911 l 675 1124 z "},"ŵ":{"ha":1232,"x_min":35,"x_max":1197,"o":"m 35 0 m 1197 772 l 971 -12 l 793 -12 l 617 546 l 440 -12 l 263 -12 l 35 772 l 199 772 l 353 188 l 524 772 l 708 772 l 881 188 l 1033 772 l 1197 772 m 699 911 l 615 1057 l 531 911 l 367 911 l 514 1124 l 715 1124 l 863 911 l 699 911 z "},"ẅ":{"ha":1232,"x_min":35,"x_max":1197,"o":"m 35 0 m 1197 772 l 971 -12 l 793 -12 l 617 546 l 440 -12 l 263 -12 l 35 772 l 199 772 l 353 188 l 524 772 l 708 772 l 881 188 l 1033 772 l 1197 772 m 689 1108 l 833 1108 l 833 926 l 689 926 l 689 1108 m 400 1108 l 544 1108 l 544 926 l 400 926 l 400 1108 z "},"ẁ":{"ha":1232,"x_min":35,"x_max":1197,"o":"m 35 0 m 1197 772 l 971 -12 l 793 -12 l 617 546 l 440 -12 l 263 -12 l 35 772 l 199 772 l 353 188 l 524 772 l 708 772 l 881 188 l 1033 772 l 1197 772 m 375 1124 l 560 1124 l 703 911 l 543 911 l 375 1124 z "},"x":{"ha":824,"x_min":43,"x_max":781,"o":"m 593 0 l 407 279 l 232 0 l 43 0 l 311 403 l 57 772 l 246 772 l 413 517 l 583 772 l 768 772 l 507 393 l 781 0 l 593 0 z "},"y":{"ha":785,"x_min":28,"x_max":757,"o":"m 757 772 l 424 -124 q 358 -262 390 -215 q 281 -329 325 -310 q 167 -349 238 -349 q 71 -336 115 -349 l 71 -196 q 147 -204 108 -204 q 226 -178 197 -204 q 283 -76 254 -151 l 313 3 l 28 772 l 192 772 l 390 211 l 600 772 l 757 772 z "},"ý":{"ha":785,"x_min":28,"x_max":757,"o":"m 28 0 m 757 772 l 424 -124 q 358 -262 390 -215 q 281 -329 325 -310 q 167 -349 238 -349 q 71 -336 115 -349 l 71 -196 q 147 -204 108 -204 q 226 -178 197 -204 q 283 -76 254 -151 l 313 3 l 28 772 l 192 772 l 390 211 l 600 772 l 757 772 m 451 1124 l 636 1124 l 468 911 l 308 911 l 451 1124 z "},"ŷ":{"ha":785,"x_min":28,"x_max":757,"o":"m 28 0 m 757 772 l 424 -124 q 358 -262 390 -215 q 281 -329 325 -310 q 167 -349 238 -349 q 71 -336 115 -349 l 71 -196 q 147 -204 108 -204 q 226 -178 197 -204 q 283 -76 254 -151 l 313 3 l 28 772 l 192 772 l 390 211 l 600 772 l 757 772 m 475 911 l 392 1057 l 307 911 l 143 911 l 290 1124 l 492 1124 l 639 911 l 475 911 z "},"ÿ":{"ha":785,"x_min":28,"x_max":757,"o":"m 28 0 m 757 772 l 424 -124 q 358 -262 390 -215 q 281 -329 325 -310 q 167 -349 238 -349 q 71 -336 115 -349 l 71 -196 q 147 -204 108 -204 q 226 -178 197 -204 q 283 -76 254 -151 l 313 3 l 28 772 l 192 772 l 390 211 l 600 772 l 757 772 m 465 1108 l 610 1108 l 610 926 l 465 926 l 465 1108 m 176 1108 l 321 1108 l 321 926 l 176 926 l 176 1108 z "},"ỳ":{"ha":785,"x_min":28,"x_max":757,"o":"m 28 0 m 757 772 l 424 -124 q 358 -262 390 -215 q 281 -329 325 -310 q 167 -349 238 -349 q 71 -336 115 -349 l 71 -196 q 147 -204 108 -204 q 226 -178 197 -204 q 283 -76 254 -151 l 313 3 l 28 772 l 192 772 l 390 211 l 600 772 l 757 772 m 151 1124 l 336 1124 l 479 911 l 319 911 l 151 1124 z "},"z":{"ha":758,"x_min":92,"x_max":689,"o":"m 689 142 l 689 0 l 92 0 l 92 142 l 483 631 l 117 631 l 117 772 l 658 772 l 658 631 l 268 142 l 689 142 z "},"ź":{"ha":758,"x_min":92,"x_max":689,"o":"m 92 0 m 689 142 l 689 0 l 92 0 l 92 142 l 483 631 l 117 631 l 117 772 l 658 772 l 658 631 l 268 142 l 689 142 m 435 1124 l 619 1124 l 451 911 l 292 911 l 435 1124 z "},"ž":{"ha":758,"x_min":92,"x_max":689,"o":"m 92 0 m 689 142 l 689 0 l 92 0 l 92 142 l 483 631 l 117 631 l 117 772 l 658 772 l 658 631 l 268 142 l 689 142 m 622 1124 l 475 911 l 274 911 l 126 1124 l 290 1124 l 375 978 l 458 1124 l 622 1124 z "},"ż":{"ha":758,"x_min":92,"x_max":689,"o":"m 92 0 m 689 142 l 689 0 l 92 0 l 92 142 l 483 631 l 117 631 l 117 772 l 658 772 l 658 631 l 268 142 l 689 142 m 299 1108 l 457 1108 l 457 926 l 299 926 l 299 1108 z "},"ﬁ":{"ha":885,"x_min":50,"x_max":767,"o":"m 50 0 m 382 1049 q 319 1029 336 1049 q 303 957 303 1010 l 303 772 l 456 772 l 456 628 l 303 628 l 303 0 l 144 0 l 144 628 l 50 628 l 50 772 l 144 772 l 144 1004 q 194 1148 144 1103 q 351 1193 243 1193 q 456 1181 400 1193 l 456 1040 q 382 1049 422 1049 m 608 1122 l 767 1122 l 767 913 l 608 913 l 608 1122 m 608 772 l 767 772 l 767 0 l 608 0 l 608 772 z "},"ﬂ":{"ha":954,"x_min":50,"x_max":919,"o":"m 50 0 m 382 1049 q 319 1029 336 1049 q 303 957 303 1010 l 303 772 l 456 772 l 456 628 l 303 628 l 303 0 l 144 0 l 144 628 l 50 628 l 50 772 l 144 772 l 144 1004 q 194 1148 144 1103 q 351 1193 243 1193 q 456 1181 400 1193 l 456 1040 q 382 1049 422 1049 m 817 -18 q 658 27 707 -18 q 608 171 608 72 l 608 1175 l 767 1175 l 767 219 q 783 147 767 167 q 847 126 800 126 q 919 135 889 126 l 919 -6 q 817 -18 865 -18 z "},"ª":{"ha":551,"x_min":29,"x_max":489,"o":"m 268 957 q 408 926 360 957 q 472 840 456 894 q 489 706 489 786 l 489 394 l 368 394 l 368 438 q 219 382 303 382 q 84 432 139 382 q 29 567 29 482 q 85 709 29 658 q 236 760 142 760 q 368 731 306 760 q 342 815 365 789 q 253 842 318 842 l 161 842 l 161 957 l 268 957 m 246 489 q 368 533 306 489 l 368 635 q 261 653 319 653 q 189 634 218 653 q 160 569 160 615 q 185 508 160 528 q 246 489 211 489 z "},"º":{"ha":718,"x_min":72,"x_max":646,"o":"m 360 382 q 206 422 271 382 q 106 528 140 461 q 72 681 72 596 q 106 831 72 764 q 206 938 140 899 q 360 976 271 976 q 515 938 450 976 q 613 831 579 899 q 646 681 646 764 q 613 528 646 596 q 515 422 579 461 q 360 382 450 382 m 360 499 q 480 550 440 499 q 519 681 519 601 q 480 810 519 760 q 360 860 440 860 q 240 809 281 860 q 199 681 199 758 q 240 550 199 601 q 360 499 281 499 z "},"ॲ":{"ha":1017,"x_min":49,"x_max":1094,"o":"m 49 0 m 1031 908 l 1031 792 l 885 792 l 885 0 l 740 0 l 740 308 l 496 308 l 496 301 q 392 113 496 171 q 129 56 289 56 l 49 56 l 49 172 l 129 172 q 288 203 225 172 q 351 315 351 233 q 312 403 351 375 q 183 432 272 432 l 113 432 l 113 549 l 185 549 q 310 584 269 549 q 351 678 351 619 q 307 766 351 740 q 171 792 263 792 l 92 792 l 92 908 l 171 908 q 417 859 338 908 q 496 694 496 810 q 465 576 496 625 q 369 494 433 526 q 463 425 429 475 l 740 425 l 740 792 l 579 792 l 579 908 l 1031 908 m 811 1014 q 528 1249 528 1014 l 528 1269 l 658 1269 l 658 1249 q 696 1160 658 1189 q 811 1131 733 1131 q 926 1160 889 1131 q 964 1249 964 1189 l 964 1269 l 1094 1269 l 1094 1249 q 811 1014 1094 1014 z "},"ऄ":{"ha":1017,"x_min":49,"x_max":1031,"o":"m 1031 908 l 1031 792 l 885 792 l 885 0 l 740 0 l 740 308 l 496 308 l 496 301 q 392 113 496 171 q 129 56 289 56 l 49 56 l 49 172 l 129 172 q 288 203 225 172 q 351 315 351 233 q 312 403 351 375 q 183 432 272 432 l 113 432 l 113 549 l 185 549 q 310 584 269 549 q 351 678 351 619 q 307 766 351 740 q 171 792 263 792 l 92 792 l 92 908 l 171 908 q 417 859 338 908 q 496 694 496 810 q 465 576 496 625 q 369 494 433 526 q 463 425 429 475 l 740 425 l 740 792 l 579 792 l 579 908 l 740 908 l 740 964 q 728 1044 740 1015 q 685 1088 717 1074 q 592 1101 653 1101 l 360 1101 q 176 1129 242 1101 q 85 1213 111 1157 q 60 1363 60 1268 l 60 1397 l 204 1397 l 204 1363 q 215 1277 204 1307 q 259 1233 226 1247 q 360 1218 292 1218 l 592 1218 q 780 1192 717 1218 q 864 1113 843 1165 q 885 964 885 1060 l 885 908 l 1031 908 z "},"अ":{"ha":1017,"x_min":49,"x_max":1031,"o":"m 1031 908 l 1031 792 l 885 792 l 885 0 l 740 0 l 740 308 l 496 308 l 496 301 q 392 113 496 171 q 129 56 289 56 l 49 56 l 49 172 l 129 172 q 288 203 225 172 q 351 315 351 233 q 312 403 351 375 q 183 432 272 432 l 113 432 l 113 549 l 185 549 q 310 584 269 549 q 351 678 351 619 q 307 766 351 740 q 171 792 263 792 l 92 792 l 92 908 l 171 908 q 417 859 338 908 q 496 694 496 810 q 465 576 496 625 q 369 494 433 526 q 463 425 429 475 l 740 425 l 740 792 l 579 792 l 579 908 l 1031 908 z "},"आ":{"ha":1425,"x_min":49,"x_max":1439,"o":"m 1439 792 l 1293 792 l 1293 0 l 1149 0 l 1149 792 l 885 792 l 885 0 l 740 0 l 740 308 l 496 308 l 496 301 q 392 113 496 171 q 129 56 289 56 l 49 56 l 49 172 l 129 172 q 288 203 225 172 q 351 315 351 233 q 312 403 351 375 q 183 432 272 432 l 113 432 l 113 549 l 185 549 q 310 584 269 549 q 351 678 351 619 q 307 766 351 740 q 171 792 263 792 l 92 792 l 92 908 l 171 908 q 417 859 338 908 q 496 694 496 810 q 465 576 496 625 q 369 494 433 526 q 463 425 429 475 l 740 425 l 740 792 l 579 792 l 579 908 l 1439 908 l 1439 792 z "},"इ":{"ha":732,"x_min":-14,"x_max":746,"o":"m 315 561 q 247 547 269 561 q 225 494 225 532 q 234 453 225 472 q 257 424 243 433 l 413 424 q 675 218 675 424 q 608 53 675 108 q 417 -3 542 -3 l 401 -3 q 218 32 304 -3 l 218 -90 l 88 -90 l 88 242 l 218 242 l 218 150 q 392 114 300 114 l 410 114 q 499 138 468 114 q 531 208 531 161 q 501 284 531 261 q 413 307 472 307 l 181 307 q 113 388 144 333 q 81 504 81 443 q 138 638 81 599 q 315 678 194 678 l 433 678 l 433 792 l -14 792 l -14 908 l 746 908 l 746 792 l 578 792 l 578 561 l 315 561 z "},"ई":{"ha":732,"x_min":-14,"x_max":746,"o":"m 315 561 q 247 547 269 561 q 225 494 225 532 q 234 453 225 472 q 257 424 243 433 l 413 424 q 675 218 675 424 q 608 53 675 108 q 417 -3 542 -3 l 401 -3 q 218 32 304 -3 l 218 -90 l 88 -90 l 88 242 l 218 242 l 218 150 q 392 114 300 114 l 410 114 q 499 138 468 114 q 531 208 531 161 q 501 284 531 261 q 413 307 472 307 l 181 307 q 113 388 144 333 q 81 504 81 443 q 138 638 81 599 q 315 678 194 678 l 433 678 l 433 792 l -14 792 l -14 908 l 439 908 q 383 1131 383 1026 q 448 1287 383 1238 q 606 1336 513 1336 q 714 1318 669 1336 l 714 1197 q 624 1219 664 1219 q 554 1194 581 1219 q 528 1111 528 1168 q 542 1016 528 1063 q 583 908 556 969 l 746 908 l 746 792 l 578 792 l 578 561 l 315 561 z "},"उ":{"ha":800,"x_min":-14,"x_max":814,"o":"m 814 792 l 650 792 q 696 660 696 746 q 666 547 696 593 q 569 476 636 501 q 665 396 635 454 q 696 258 696 338 q 378 0 696 0 q 60 265 60 0 l 60 335 l 204 335 l 204 265 q 251 149 204 182 q 378 117 299 117 q 505 149 458 117 q 551 265 551 182 q 513 381 551 343 q 390 418 475 418 l 292 418 l 292 535 l 392 535 q 512 572 472 535 q 551 667 551 608 q 530 740 551 714 q 454 792 508 767 l -14 792 l -14 908 l 814 908 l 814 792 z "},"ऊ":{"ha":1144,"x_min":-14,"x_max":1151,"o":"m 1151 792 l 650 792 q 696 660 696 746 q 666 547 696 593 q 569 476 636 501 q 656 410 625 456 q 749 455 704 440 q 849 469 793 469 q 1035 417 975 469 q 1096 235 1096 365 q 1035 53 1096 107 q 846 0 974 0 l 829 0 q 788 2 810 0 q 753 7 767 4 l 753 124 q 821 117 788 117 l 838 117 q 922 143 893 117 q 951 235 951 169 q 924 325 951 297 q 832 353 896 353 q 756 343 788 353 q 692 314 724 333 q 696 258 696 288 q 378 0 696 0 q 60 265 60 0 l 60 335 l 204 335 l 204 265 q 251 149 204 182 q 378 117 299 117 q 505 149 458 117 q 551 265 551 182 q 513 381 551 343 q 390 418 475 418 l 292 418 l 292 535 l 392 535 q 512 572 472 535 q 551 667 551 608 q 530 740 551 714 q 454 792 508 767 l -14 792 l -14 908 l 1151 908 l 1151 792 z "},"ऋ":{"ha":1168,"x_min":-14,"x_max":1182,"o":"m 646 792 l 646 501 l 813 501 l 813 663 l 957 663 l 957 485 q 1076 360 1036 419 q 1117 232 1117 301 q 1035 59 1117 118 q 822 0 953 0 l 781 0 l 781 117 l 822 117 q 931 146 889 117 q 972 233 972 175 q 946 314 972 278 q 863 385 919 350 l 646 385 l 646 0 l 501 0 l 501 281 l 156 -12 l 71 83 l 494 439 q 385 516 435 496 q 272 536 335 536 q 76 500 208 536 l 76 626 q 279 661 207 661 q 394 642 343 661 q 501 575 446 622 l 501 792 l -14 792 l -14 908 l 1182 908 l 1182 792 l 646 792 z "},"ॠ":{"ha":1163,"x_min":-14,"x_max":1206,"o":"m 1053 -183 q 1206 -143 1135 -183 l 1206 -262 q 1042 -293 1140 -293 q 865 -252 924 -293 q 807 -126 807 -211 q 864 -7 807 -47 q 793 47 814 13 q 772 126 772 81 q 868 264 772 232 l 807 385 l 646 385 l 646 0 l 501 0 l 501 281 l 156 -12 l 71 83 l 494 439 q 385 516 435 496 q 272 536 335 536 q 76 500 208 536 l 76 626 q 279 661 207 661 q 394 642 343 661 q 501 575 446 622 l 501 792 l -14 792 l -14 908 l 1175 908 l 1175 792 l 646 792 l 646 501 l 792 501 l 792 663 l 936 663 l 936 415 l 1004 282 q 1081 275 1046 282 l 1081 165 q 997 172 1054 172 q 935 158 953 172 q 917 114 917 143 q 938 71 917 85 q 1018 57 960 57 l 1108 57 l 1108 -29 l 1094 -29 l 1094 -54 l 1025 -54 q 951 -117 951 -54 q 977 -168 951 -153 q 1053 -183 1003 -183 z "},"ऌ":{"ha":1054,"x_min":-14,"x_max":1096,"o":"m 825 792 l 825 590 q 955 519 910 574 q 1000 389 1000 465 q 965 259 1000 311 q 864 149 929 207 q 803 86 822 110 q 785 36 785 63 q 883 -39 782 -39 q 974 -24 926 -39 q 1051 13 1021 -8 l 1051 -112 q 871 -156 985 -156 q 699 -106 760 -156 q 639 24 639 -57 q 668 122 639 81 q 754 217 697 164 q 830 298 804 263 q 856 379 856 333 q 828 454 856 428 q 747 481 800 481 q 622 315 625 481 l 622 275 l 478 275 l 478 315 q 357 481 475 481 q 231 315 233 481 q 274 172 233 226 q 424 117 315 117 l 468 117 l 468 0 l 424 0 q 165 91 244 0 q 86 315 86 182 q 152 520 86 443 q 343 597 218 597 q 469 569 417 597 q 550 492 521 542 q 681 589 593 567 l 681 792 l -14 792 l -14 908 l 1096 908 l 1096 792 l 825 792 z "},"ॡ":{"ha":1082,"x_min":-14,"x_max":1096,"o":"m 825 792 l 825 590 q 955 519 910 574 q 1000 389 1000 465 q 964 258 1000 311 q 864 149 928 206 q 803 86 822 110 q 785 36 785 63 q 883 -39 782 -39 q 971 -26 918 -39 l 971 -146 q 879 -157 926 -157 l 851 -156 q 822 -222 822 -179 q 846 -274 822 -258 q 919 -289 869 -289 q 994 -280 961 -289 q 1063 -249 1028 -271 l 1063 -368 q 985 -392 1024 -385 q 899 -399 947 -399 q 733 -358 788 -399 q 678 -235 678 -318 q 724 -121 678 -162 q 639 26 639 -68 q 669 124 640 83 q 754 217 699 165 q 831 299 806 265 q 856 379 856 333 q 828 454 856 428 q 747 481 800 481 q 622 315 625 481 l 622 275 l 478 275 l 478 315 q 357 481 475 481 q 231 315 233 481 q 274 172 233 226 q 424 117 315 117 l 468 117 l 468 0 l 424 0 q 165 91 244 0 q 86 315 86 182 q 152 520 86 443 q 343 597 218 597 q 469 569 417 597 q 550 492 521 542 q 681 589 593 567 l 681 792 l -14 792 l -14 908 l 1096 908 l 1096 792 l 825 792 z "},"ऍ":{"ha":825,"x_min":-14,"x_max":839,"o":"m 0 28 m 839 792 l 711 792 l 711 554 q 651 374 711 425 q 463 322 592 324 l 418 322 l 418 439 l 463 439 q 522 449 500 440 q 555 481 543 457 q 567 554 567 506 l 567 792 l 283 792 l 283 396 q 321 226 283 281 q 416 158 358 171 q 568 144 474 144 l 697 144 l 697 28 l 568 28 q 338 54 429 28 q 193 161 247 81 q 139 396 139 242 l 139 792 l -14 792 l -14 908 l 839 908 l 839 792 m 415 986 q 132 1221 132 986 l 132 1242 l 263 1242 l 263 1221 q 300 1132 263 1161 q 415 1103 338 1103 q 531 1132 493 1103 q 568 1221 568 1161 l 568 1242 l 699 1242 l 699 1221 q 415 986 699 986 z "},"ऎ":{"ha":825,"x_min":-107,"x_max":839,"o":"m 839 792 l 711 792 l 711 554 q 651 374 711 425 q 463 322 592 324 l 418 322 l 418 439 l 463 439 q 522 449 500 440 q 555 481 543 457 q 567 554 567 506 l 567 792 l 283 792 l 283 396 q 321 226 283 281 q 416 158 358 171 q 568 144 474 144 l 697 144 l 697 28 l 568 28 q 338 54 429 28 q 193 161 247 81 q 139 396 139 242 l 139 792 l -14 792 l -14 908 l 574 908 l 574 964 q 562 1044 574 1015 q 518 1088 550 1074 q 425 1101 486 1101 l 193 1101 q 10 1129 75 1101 q -81 1213 -56 1157 q -107 1363 -107 1268 l -107 1397 l 38 1397 l 38 1363 q 49 1277 38 1307 q 92 1233 60 1247 q 193 1218 125 1218 l 425 1218 q 613 1192 550 1218 q 697 1113 676 1165 q 718 964 718 1060 l 718 908 l 839 908 l 839 792 z "},"ए":{"ha":825,"x_min":-14,"x_max":839,"o":"m 839 792 l 711 792 l 711 554 q 651 374 711 425 q 463 322 592 324 l 418 322 l 418 439 l 463 439 q 522 449 500 440 q 555 481 543 457 q 567 554 567 506 l 567 792 l 283 792 l 283 396 q 321 226 283 281 q 416 158 358 171 q 568 144 474 144 l 697 144 l 697 28 l 568 28 q 338 54 429 28 q 193 161 247 81 q 139 396 139 242 l 139 792 l -14 792 l -14 908 l 839 908 l 839 792 z "},"ऐ":{"ha":825,"x_min":-14,"x_max":839,"o":"m 839 792 l 711 792 l 711 554 q 651 374 711 425 q 463 322 592 324 l 418 322 l 418 439 l 463 439 q 522 449 500 440 q 555 481 543 457 q 567 554 567 506 l 567 792 l 283 792 l 283 396 q 321 226 283 281 q 416 158 358 171 q 568 144 474 144 l 697 144 l 697 28 l 568 28 q 338 54 429 28 q 193 161 247 81 q 139 396 139 242 l 139 792 l -14 792 l -14 908 l 572 908 l 533 1081 q 488 1170 518 1147 q 396 1193 458 1193 l 278 1193 l 278 1310 l 396 1310 q 535 1293 483 1310 q 621 1228 586 1276 q 678 1081 656 1179 l 717 908 l 839 908 l 839 792 z "},"ऑ":{"ha":1425,"x_min":49,"x_max":1503,"o":"m 49 0 m 1439 792 l 1293 792 l 1293 0 l 1149 0 l 1149 792 l 885 792 l 885 0 l 740 0 l 740 308 l 496 308 l 496 301 q 392 113 496 171 q 129 56 289 56 l 49 56 l 49 172 l 129 172 q 288 203 225 172 q 351 315 351 233 q 312 403 351 375 q 183 432 272 432 l 113 432 l 113 549 l 185 549 q 310 584 269 549 q 351 678 351 619 q 307 766 351 740 q 171 792 263 792 l 92 792 l 92 908 l 171 908 q 417 859 338 908 q 496 694 496 810 q 465 576 496 625 q 369 494 433 526 q 463 425 429 475 l 740 425 l 740 792 l 579 792 l 579 908 l 1439 908 l 1439 792 m 1219 1014 q 936 1249 936 1014 l 936 1269 l 1067 1269 l 1067 1249 q 1104 1160 1067 1189 q 1219 1131 1142 1131 q 1335 1160 1297 1131 q 1372 1249 1372 1189 l 1372 1269 l 1503 1269 l 1503 1249 q 1219 1014 1503 1014 z "},"ऒ":{"ha":1425,"x_min":49,"x_max":1439,"o":"m 1439 792 l 1293 792 l 1293 0 l 1149 0 l 1149 792 l 885 792 l 885 0 l 740 0 l 740 308 l 496 308 l 496 301 q 392 113 496 171 q 129 56 289 56 l 49 56 l 49 172 l 129 172 q 288 203 225 172 q 351 315 351 233 q 312 403 351 375 q 183 432 272 432 l 113 432 l 113 549 l 185 549 q 310 584 269 549 q 351 678 351 619 q 307 766 351 740 q 171 792 263 792 l 92 792 l 92 908 l 171 908 q 417 859 338 908 q 496 694 496 810 q 465 576 496 625 q 369 494 433 526 q 463 425 429 475 l 740 425 l 740 792 l 579 792 l 579 908 l 1149 908 l 1149 964 q 1137 1044 1149 1015 q 1093 1088 1125 1074 q 1000 1101 1061 1101 l 768 1101 q 585 1129 650 1101 q 494 1213 519 1157 q 468 1363 468 1268 l 468 1397 l 613 1397 l 613 1363 q 624 1277 613 1307 q 667 1233 635 1247 q 768 1218 700 1218 l 1000 1218 q 1188 1192 1125 1218 q 1272 1113 1251 1165 q 1293 964 1293 1060 l 1293 908 l 1439 908 l 1439 792 z "},"ओ":{"ha":1425,"x_min":49,"x_max":1439,"o":"m 1439 792 l 1293 792 l 1293 0 l 1149 0 l 1149 792 l 885 792 l 885 0 l 740 0 l 740 308 l 496 308 l 496 301 q 392 113 496 171 q 129 56 289 56 l 49 56 l 49 172 l 129 172 q 288 203 225 172 q 351 315 351 233 q 312 403 351 375 q 183 432 272 432 l 113 432 l 113 549 l 185 549 q 310 584 269 549 q 351 678 351 619 q 307 766 351 740 q 171 792 263 792 l 92 792 l 92 908 l 171 908 q 417 859 338 908 q 496 694 496 810 q 465 576 496 625 q 369 494 433 526 q 463 425 429 475 l 740 425 l 740 792 l 579 792 l 579 908 l 1147 908 l 1108 1081 q 1063 1170 1093 1147 q 971 1193 1033 1193 l 853 1193 l 853 1310 l 971 1310 q 1110 1293 1058 1310 q 1196 1228 1161 1276 q 1253 1081 1231 1179 l 1292 908 l 1439 908 l 1439 792 z "},"औ":{"ha":1425,"x_min":49,"x_max":1439,"o":"m 1439 792 l 1293 792 l 1293 0 l 1149 0 l 1149 792 l 885 792 l 885 0 l 740 0 l 740 308 l 496 308 l 496 301 q 392 113 496 171 q 129 56 289 56 l 49 56 l 49 172 l 129 172 q 288 203 225 172 q 351 315 351 233 q 312 403 351 375 q 183 432 272 432 l 113 432 l 113 549 l 185 549 q 310 584 269 549 q 351 678 351 619 q 307 766 351 740 q 171 792 263 792 l 92 792 l 92 908 l 171 908 q 417 859 338 908 q 496 694 496 810 q 465 576 496 625 q 369 494 433 526 q 463 425 429 475 l 740 425 l 740 792 l 579 792 l 579 908 l 1139 908 l 1067 999 q 976 1071 1024 1051 q 835 1090 929 1090 l 703 1090 l 703 1207 l 835 1207 q 967 1196 917 1207 q 1053 1160 1017 1185 q 1128 1088 1089 1135 l 1100 1208 q 1053 1285 1088 1265 q 946 1306 1018 1306 l 828 1306 l 828 1422 l 946 1422 q 1084 1406 1032 1422 q 1169 1344 1136 1390 q 1224 1208 1203 1299 l 1292 908 l 1439 908 l 1439 792 z "},"ॳ":{"ha":1017,"x_min":49,"x_max":1031,"o":"m 1031 908 l 1031 792 l 885 792 l 885 0 l 740 0 l 740 308 l 496 308 l 496 301 q 392 113 496 171 q 129 56 289 56 l 49 56 l 49 172 l 129 172 q 288 203 225 172 q 351 315 351 233 q 312 403 351 375 q 183 432 272 432 l 113 432 l 113 549 l 185 549 q 310 584 269 549 q 351 678 351 619 q 307 766 351 740 q 171 792 263 792 l 92 792 l 92 908 l 171 908 q 417 859 338 908 q 496 694 496 810 q 465 576 496 625 q 369 494 433 526 q 463 425 429 475 l 740 425 l 740 792 l 579 792 l 579 908 l 742 908 l 742 1254 l 883 1254 l 883 908 l 1031 908 z "},"ॴ":{"ha":1425,"x_min":49,"x_max":1439,"o":"m 1439 792 l 1293 792 l 1293 0 l 1149 0 l 1149 792 l 885 792 l 885 0 l 740 0 l 740 308 l 496 308 l 496 301 q 392 113 496 171 q 129 56 289 56 l 49 56 l 49 172 l 129 172 q 288 203 225 172 q 351 315 351 233 q 312 403 351 375 q 183 432 272 432 l 113 432 l 113 549 l 185 549 q 310 584 269 549 q 351 678 351 619 q 307 766 351 740 q 171 792 263 792 l 92 792 l 92 908 l 171 908 q 417 859 338 908 q 496 694 496 810 q 465 576 496 625 q 369 494 433 526 q 463 425 429 475 l 740 425 l 740 792 l 579 792 l 579 908 l 1149 908 l 1149 1254 l 1293 1254 l 1293 908 l 1439 908 l 1439 792 z "},"ॶ":{"ha":1017,"x_min":49,"x_max":1031,"o":"m 49 0 m 1031 908 l 1031 792 l 885 792 l 885 0 l 740 0 l 740 308 l 496 308 l 496 301 q 392 113 496 171 q 129 56 289 56 l 49 56 l 49 172 l 129 172 q 288 203 225 172 q 351 315 351 233 q 312 403 351 375 q 183 432 272 432 l 113 432 l 113 549 l 185 549 q 310 584 269 549 q 351 678 351 619 q 307 766 351 740 q 171 792 263 792 l 92 792 l 92 908 l 171 908 q 417 859 338 908 q 496 694 496 810 q 465 576 496 625 q 369 494 433 526 q 463 425 429 475 l 740 425 l 740 792 l 579 792 l 579 908 l 1031 908 m 658 -292 q 465 -247 550 -292 q 333 -128 381 -201 l 422 -57 q 527 -144 469 -114 q 658 -175 585 -175 q 790 -144 732 -175 q 894 -57 847 -114 l 983 -128 q 851 -247 936 -201 q 658 -292 767 -292 z "},"ॷ":{"ha":1017,"x_min":49,"x_max":1031,"o":"m 49 0 m 1031 908 l 1031 792 l 885 792 l 885 0 l 740 0 l 740 308 l 496 308 l 496 301 q 392 113 496 171 q 129 56 289 56 l 49 56 l 49 172 l 129 172 q 288 203 225 172 q 351 315 351 233 q 312 403 351 375 q 183 432 272 432 l 113 432 l 113 549 l 185 549 q 310 584 269 549 q 351 678 351 619 q 307 766 351 740 q 171 792 263 792 l 92 792 l 92 908 l 171 908 q 417 859 338 908 q 496 694 496 810 q 465 576 496 625 q 369 494 433 526 q 463 425 429 475 l 740 425 l 740 792 l 579 792 l 579 908 l 1031 908 m 658 -292 q 465 -247 550 -292 q 333 -128 381 -201 l 422 -57 q 527 -144 469 -114 q 658 -175 585 -175 q 790 -144 732 -175 q 894 -57 847 -114 l 983 -128 q 851 -247 936 -201 q 658 -292 767 -292 m 658 -535 q 465 -490 550 -535 q 333 -371 381 -444 l 422 -300 q 527 -387 469 -357 q 658 -418 585 -418 q 790 -387 732 -418 q 894 -300 847 -357 l 983 -371 q 851 -490 936 -444 q 658 -535 767 -535 z "},"ा":{"ha":408,"x_min":-14,"x_max":422,"o":"m 422 792 l 276 792 l 276 0 l 132 0 l 132 792 l -14 792 l -14 908 l 422 908 l 422 792 z "},"ि":{"ha":408,"x_min":-15,"x_max":1047,"o":"m 615 1310 q 863 1276 769 1310 q 1001 1168 957 1243 q 1047 965 1046 1093 l 1047 844 l 903 844 l 903 965 q 869 1113 903 1064 q 776 1178 836 1163 q 615 1193 717 1193 l 565 1193 q 404 1178 464 1193 q 311 1113 344 1163 q 278 965 278 1064 l 278 908 l 424 908 l 424 792 l 278 792 l 278 0 l 133 0 l 133 792 l -15 792 l -15 908 l 133 908 l 133 965 q 178 1168 133 1093 q 317 1276 222 1243 q 565 1310 411 1310 l 615 1310 z "},"ी":{"ha":408,"x_min":-276,"x_max":422,"o":"m 422 792 l 276 792 l 276 0 l 132 0 l 132 792 l -14 792 l -14 908 l 132 908 l 132 1014 q 119 1130 132 1092 q 81 1181 106 1168 q 13 1193 56 1193 l -12 1193 q -81 1181 -56 1193 q -119 1130 -106 1168 q -132 1014 -132 1092 l -132 844 l -276 844 l -276 1021 q -249 1191 -276 1128 q -165 1282 -222 1254 q -12 1310 -107 1310 l 13 1310 q 165 1282 107 1310 q 249 1191 222 1254 q 276 1021 276 1128 l 276 908 l 422 908 l 422 792 z "},"ॉ":{"ha":408,"x_min":-81,"x_max":486,"o":"m 0 0 m 422 792 l 276 792 l 276 0 l 132 0 l 132 792 l -14 792 l -14 908 l 422 908 l 422 792 m 203 1014 q -81 1249 -81 1014 l -81 1269 l 50 1269 l 50 1249 q 88 1160 50 1189 q 203 1131 125 1131 q 318 1160 281 1131 q 356 1249 356 1189 l 356 1269 l 486 1269 l 486 1249 q 203 1014 486 1014 z "},"ॊ":{"ha":408,"x_min":-549,"x_max":422,"o":"m 422 792 l 276 792 l 276 0 l 132 0 l 132 792 l -14 792 l -14 908 l 132 908 l 132 964 q 120 1044 132 1015 q 76 1088 108 1074 q -17 1101 44 1101 l -249 1101 q -432 1129 -367 1101 q -523 1213 -497 1157 q -549 1363 -549 1268 l -549 1397 l -404 1397 l -404 1363 q -394 1276 -404 1306 q -350 1233 -383 1247 q -249 1218 -317 1218 l -17 1218 q 172 1192 108 1218 q 256 1113 235 1165 q 276 964 276 1060 l 276 908 l 422 908 l 422 792 z "},"ो":{"ha":408,"x_min":-164,"x_max":422,"o":"m 422 792 l 276 792 l 276 0 l 132 0 l 132 792 l -14 792 l -14 908 l 131 908 l 92 1081 q 47 1170 76 1147 q -46 1193 17 1193 l -164 1193 l -164 1310 l -46 1310 q 93 1293 42 1310 q 179 1228 144 1276 q 236 1081 214 1179 l 275 908 l 422 908 l 422 792 z "},"ौ":{"ha":408,"x_min":-314,"x_max":422,"o":"m 422 792 l 276 792 l 276 0 l 132 0 l 132 792 l -14 792 l -14 908 l 122 908 l 50 999 q -40 1071 7 1051 q -182 1090 -87 1090 l -314 1090 l -314 1207 l -182 1207 q -50 1196 -100 1207 q 36 1160 0 1185 q 111 1088 72 1135 l 83 1208 q 36 1285 71 1265 q -71 1306 1 1306 l -189 1306 l -189 1422 l -71 1422 q 67 1406 15 1422 q 153 1344 119 1390 q 207 1208 186 1299 l 275 908 l 422 908 l 422 792 z "},"ॎ":{"ha":390,"x_min":114,"x_max":404,"o":"m 404 792 l 258 792 l 258 0 l 114 0 l 114 908 l 404 908 l 404 792 z "},"ऻ":{"ha":408,"x_min":-14,"x_max":422,"o":"m 422 792 l 276 792 l 276 0 l 132 0 l 132 792 l -14 792 l -14 908 l 132 908 l 132 1254 l 276 1254 l 276 908 l 422 908 l 422 792 z "},"क":{"ha":1133,"x_min":-14,"x_max":1147,"o":"m 639 792 l 639 588 q 799 624 713 624 l 814 624 q 1023 572 957 624 q 1089 392 1089 521 q 1024 213 1089 265 q 819 160 958 160 l 803 160 q 758 162 782 160 q 719 167 735 164 l 719 283 q 794 276 758 276 l 811 276 q 911 301 878 276 q 944 392 944 326 q 910 484 944 461 q 799 507 876 507 l 783 507 q 708 499 742 507 q 639 472 674 492 l 639 0 l 494 0 l 494 196 q 336 160 421 160 l 321 160 q 112 212 178 161 q 46 392 46 263 q 111 571 46 518 q 315 624 176 624 l 332 624 q 376 622 353 624 q 415 617 400 619 l 415 501 q 340 507 368 507 l 324 507 q 224 482 257 507 q 190 392 190 457 q 224 301 190 324 q 336 276 258 278 l 351 276 q 426 284 392 276 q 494 311 460 292 l 494 792 l -14 792 l -14 908 l 1147 908 l 1147 792 l 639 792 z "},"ख":{"ha":1240,"x_min":-14,"x_max":1254,"o":"m 1254 792 l 1108 792 l 1108 0 l 964 0 l 964 239 q 835 215 907 215 l 810 215 q 582 419 582 215 q 640 572 582 521 q 789 624 697 624 l 806 624 q 885 617 843 624 l 885 501 q 826 507 856 507 l 810 507 q 749 488 772 507 q 726 419 726 469 q 752 349 726 367 q 835 332 778 332 l 856 332 q 964 354 914 332 l 964 792 l 528 792 l 528 549 q 463 378 528 426 q 258 331 397 331 l 250 331 l 250 271 q 292 151 250 185 q 433 117 333 117 l 663 117 l 663 0 l 433 0 q 190 58 275 0 q 106 271 106 115 l 106 596 l 250 596 l 250 447 l 258 447 q 354 467 325 447 q 383 549 383 486 l 383 792 l -14 792 l -14 908 l 1254 908 l 1254 792 z "},"ग":{"ha":889,"x_min":-14,"x_max":903,"o":"m 903 792 l 757 792 l 757 0 l 613 0 l 613 792 l 397 792 l 397 424 q 243 243 397 243 q 126 278 174 243 q 49 389 79 313 l 157 447 q 191 381 175 403 q 225 360 207 360 q 247 374 242 360 q 253 424 253 389 l 253 792 l -14 792 l -14 908 l 903 908 l 903 792 z "},"घ":{"ha":849,"x_min":-14,"x_max":863,"o":"m 863 908 l 863 792 l 717 792 l 717 0 l 572 0 l 572 189 q 410 156 500 156 l 385 156 q 186 206 250 157 q 122 372 122 256 q 197 538 122 490 q 103 597 133 557 q 72 703 72 636 q 90 792 72 756 l -14 792 l -14 908 l 863 908 m 424 272 q 572 311 508 272 l 572 792 l 238 792 q 217 715 217 763 q 260 627 218 649 q 399 606 303 606 l 446 606 l 446 578 l 453 578 l 453 489 l 399 489 q 299 467 332 489 q 267 381 267 444 q 298 294 267 315 q 399 272 329 274 l 424 272 z "},"ङ":{"ha":844,"x_min":-14,"x_max":858,"o":"m 858 908 l 858 792 l 578 792 l 578 617 l 574 617 l 574 544 l 311 544 q 243 530 265 544 q 221 478 221 515 q 230 437 221 456 q 251 408 239 418 l 408 408 q 671 203 671 408 q 603 36 671 92 q 411 -19 536 -19 l 396 -19 q 198 7 283 -19 q 32 85 113 33 l 86 196 q 235 122 165 144 q 388 99 306 99 l 406 99 q 526 193 526 99 q 497 268 526 244 q 408 292 467 292 l 176 292 q 108 373 140 318 q 76 489 76 428 q 133 622 76 583 q 311 661 189 661 l 433 661 l 433 792 l -14 792 l -14 908 l 858 908 m 731 563 l 833 460 l 731 358 l 628 460 l 731 563 z "},"च":{"ha":869,"x_min":-14,"x_max":883,"o":"m 883 908 l 883 792 l 738 792 l 738 0 l 593 0 l 593 176 q 450 150 528 150 l 417 150 q 208 203 281 150 q 136 375 136 257 q 186 522 136 465 l 47 522 l 47 639 l 493 639 l 493 522 l 340 522 q 296 470 311 501 q 281 388 281 439 q 319 292 281 317 q 439 267 358 267 l 463 267 q 593 296 535 267 l 593 792 l -14 792 l -14 908 l 883 908 z "},"छ":{"ha":1029,"x_min":-14,"x_max":1043,"o":"m 869 792 l 869 701 q 917 651 903 683 q 932 569 932 619 l 932 388 q 515 18 932 18 l 497 18 q 222 78 326 18 q 118 274 118 138 q 224 475 118 428 q 125 540 156 496 q 94 651 94 583 q 150 792 94 740 l -14 792 l -14 908 l 1043 908 l 1043 792 l 869 792 m 725 792 l 351 792 q 268 742 297 772 q 239 658 239 711 q 283 568 240 594 q 421 542 326 542 l 467 542 l 467 425 l 431 425 q 303 392 344 425 q 263 281 263 360 q 330 167 263 200 q 499 135 397 135 l 515 135 q 788 388 788 135 l 788 564 q 780 597 788 588 q 749 606 772 606 q 717 596 726 606 q 708 564 708 586 l 708 424 l 578 424 l 578 569 q 612 676 578 640 q 725 719 646 713 l 725 792 z "},"ज":{"ha":956,"x_min":-14,"x_max":969,"o":"m 969 908 l 969 792 l 824 792 l 824 0 l 679 0 l 679 493 l 556 493 l 556 406 q 502 206 556 268 q 311 143 449 143 q 129 207 183 143 q 75 406 75 271 l 75 610 l 213 610 l 213 396 q 234 293 213 326 q 311 260 256 260 q 391 292 371 260 q 411 396 411 324 l 411 610 l 679 610 l 679 792 l -14 792 l -14 908 l 969 908 z "},"झ":{"ha":1110,"x_min":-14,"x_max":1124,"o":"m 1124 792 l 978 792 l 978 0 l 833 0 l 833 239 l 654 239 l 654 232 q 590 67 654 122 q 406 11 525 11 l 390 11 q 218 42 294 11 l 218 -76 l 88 -76 l 88 256 l 218 256 l 218 160 q 382 128 290 128 l 400 128 q 481 151 453 128 q 510 222 510 175 q 483 297 510 274 q 403 321 457 321 l 181 321 q 113 402 144 347 q 81 518 81 457 q 138 652 81 613 q 315 692 194 692 l 413 692 l 413 792 l -14 792 l -14 908 l 1124 908 l 1124 792 m 833 792 l 557 792 l 557 575 l 315 575 q 247 560 269 575 q 225 508 225 546 q 234 467 225 486 q 257 438 243 447 l 403 438 q 621 356 561 438 l 833 356 l 833 792 z "},"ञ":{"ha":832,"x_min":-14,"x_max":846,"o":"m 846 908 l 846 792 l 700 792 l 700 0 l 556 0 l 556 342 l 428 342 q 340 179 414 229 q 126 129 265 129 l 53 129 l 53 246 l 126 246 q 247 280 207 246 q 286 397 286 314 q 249 518 286 488 q 126 549 211 549 l 53 549 l 53 665 l 126 665 q 340 618 267 665 q 426 458 413 571 l 556 458 l 556 792 l -14 792 l -14 908 l 846 908 z "},"ट":{"ha":721,"x_min":-14,"x_max":735,"o":"m 371 542 q 274 526 311 542 q 216 465 236 510 q 196 339 196 421 q 214 213 196 257 q 266 152 232 168 q 357 136 300 136 l 383 136 q 502 172 465 136 q 539 301 539 207 l 539 343 l 683 343 l 683 301 q 611 86 683 153 q 383 19 539 19 l 357 19 q 125 92 199 19 q 51 339 51 164 q 129 586 51 514 q 371 658 207 658 l 444 658 l 444 792 l -14 792 l -14 908 l 735 908 l 735 792 l 589 792 l 589 542 l 371 542 z "},"ठ":{"ha":771,"x_min":-14,"x_max":785,"o":"m 639 751 q 583 615 639 664 q 669 513 642 581 q 697 340 697 444 q 624 92 697 165 q 392 19 550 19 l 371 19 q 140 92 214 19 q 65 340 65 165 q 143 588 65 515 q 385 660 221 660 q 469 680 444 660 q 494 751 494 700 l 494 792 l -14 792 l -14 908 l 785 908 l 785 792 l 639 792 l 639 751 m 392 136 q 483 152 449 136 q 535 213 517 168 q 553 340 553 257 q 511 501 553 458 q 385 543 469 543 q 288 527 325 543 q 230 467 250 511 q 210 340 210 422 q 228 213 210 257 q 283 152 247 168 q 379 136 319 136 l 392 136 z "},"ड":{"ha":724,"x_min":-14,"x_max":738,"o":"m 311 544 q 243 530 265 544 q 221 478 221 515 q 230 437 221 456 q 251 408 239 418 l 408 408 q 671 203 671 408 q 603 36 671 92 q 411 -19 536 -19 l 396 -19 q 198 7 283 -19 q 32 85 113 33 l 86 196 q 235 122 165 144 q 388 99 306 99 l 406 99 q 526 193 526 99 q 497 268 526 244 q 408 292 467 292 l 176 292 q 108 373 140 318 q 76 489 76 428 q 133 622 76 583 q 311 661 189 661 l 433 661 l 433 792 l -14 792 l -14 908 l 738 908 l 738 792 l 578 792 l 578 617 l 574 617 l 574 544 l 311 544 z "},"ढ":{"ha":721,"x_min":-14,"x_max":735,"o":"m 371 542 q 274 526 311 542 q 216 465 236 510 q 196 339 196 421 q 214 213 196 257 q 266 152 232 168 q 357 136 300 136 l 383 136 q 501 160 464 136 q 539 240 539 183 l 539 283 q 528 320 539 310 q 493 331 518 331 q 457 319 468 331 q 446 283 446 308 l 446 224 l 315 224 l 315 296 q 359 406 315 371 q 503 440 403 440 q 640 400 597 440 q 683 282 683 360 l 683 242 q 610 74 683 129 q 383 19 536 19 l 357 19 q 126 92 200 19 q 51 339 51 165 q 129 586 51 514 q 371 658 207 658 l 444 658 l 444 792 l -14 792 l -14 908 l 735 908 l 735 792 l 589 792 l 589 542 l 371 542 z "},"ण":{"ha":1010,"x_min":-14,"x_max":1024,"o":"m 1024 908 l 1024 792 l 878 792 l 878 0 l 733 0 l 733 792 l 585 792 l 585 525 q 528 336 585 390 q 351 282 471 282 q 175 336 232 282 q 118 525 118 390 l 118 792 l -14 792 l -14 908 l 1024 908 m 440 792 l 263 792 l 263 518 q 284 425 263 451 q 351 399 306 399 q 419 425 397 399 q 440 518 440 451 l 440 792 z "},"त":{"ha":801,"x_min":-14,"x_max":815,"o":"m 815 908 l 815 792 l 669 792 l 669 0 l 525 0 l 525 508 l 333 508 q 263 492 289 508 q 224 435 238 476 q 210 315 211 393 q 242 158 211 200 q 340 117 274 117 l 364 117 l 364 0 l 340 0 q 133 73 200 0 q 65 315 65 146 q 128 555 65 485 q 333 625 192 625 l 525 625 l 525 792 l -14 792 l -14 908 l 815 908 z "},"थ":{"ha":881,"x_min":71,"x_max":894,"o":"m 894 908 l 894 792 l 749 792 l 749 0 l 604 0 l 604 240 q 406 189 517 189 q 212 243 283 189 q 94 435 140 297 q 224 493 183 469 q 285 558 264 517 q 306 674 306 599 l 306 726 q 295 792 306 775 q 254 810 285 810 q 213 792 224 810 q 201 726 201 774 l 201 646 l 71 646 l 71 726 q 114 871 71 822 q 254 919 157 919 q 394 872 351 919 q 436 726 436 824 l 436 674 q 417 538 436 590 q 360 452 397 486 q 261 383 324 418 q 322 322 286 338 q 417 306 357 306 q 604 363 514 306 l 604 792 l 500 792 l 500 908 l 894 908 z "},"द":{"ha":735,"x_min":-14,"x_max":749,"o":"m 413 557 q 299 543 342 557 q 233 491 256 529 q 210 382 210 453 q 251 243 210 281 q 381 206 292 206 l 397 206 q 492 221 447 206 l 492 339 l 636 339 l 636 -21 l 492 -21 l 492 106 q 379 89 444 89 l 363 89 q 140 156 214 89 q 65 378 65 222 q 150 607 65 540 q 413 674 235 674 l 458 674 l 458 792 l -14 792 l -14 908 l 749 908 l 749 792 l 603 792 l 603 557 l 413 557 z "},"ध":{"ha":892,"x_min":74,"x_max":906,"o":"m 906 908 l 906 792 l 760 792 l 760 0 l 615 0 l 615 157 q 436 128 535 128 l 417 128 q 201 181 272 129 q 131 353 131 233 q 151 456 131 414 q 214 528 171 499 q 108 599 142 553 q 74 722 74 646 q 144 880 74 833 q 361 926 214 926 l 378 926 q 421 924 401 926 l 421 807 l 378 810 l 361 810 q 252 789 286 810 q 218 707 218 768 q 267 619 219 640 q 421 599 314 599 l 478 599 l 478 475 l 428 475 q 313 450 350 475 q 275 360 275 425 q 312 270 275 294 q 428 244 349 246 l 453 244 q 615 276 553 244 l 615 792 l 497 792 l 497 908 l 906 908 z "},"न":{"ha":792,"x_min":-14,"x_max":806,"o":"m 806 908 l 806 792 l 660 792 l 660 0 l 515 0 l 515 458 l 247 458 q 206 450 218 458 q 194 418 194 442 q 267 346 194 376 l 208 246 q 92 321 128 276 q 56 432 56 365 q 240 575 56 575 l 515 575 l 515 792 l -14 792 l -14 908 l 806 908 z "},"ऩ":{"ha":792,"x_min":-14,"x_max":806,"o":"m 0 0 m 806 908 l 806 792 l 660 792 l 660 0 l 515 0 l 515 458 l 247 458 q 206 450 218 458 q 194 418 194 442 q 267 346 194 376 l 208 246 q 92 321 128 276 q 56 432 56 365 q 240 575 56 575 l 515 575 l 515 792 l -14 792 l -14 908 l 806 908 m 200 0 l 303 103 l 406 0 l 303 -101 l 200 0 z "},"प":{"ha":799,"x_min":-14,"x_max":813,"o":"m 813 908 l 813 792 l 667 792 l 667 0 l 522 0 l 522 311 q 364 269 451 269 q 169 328 233 269 q 104 531 104 386 l 104 792 l -14 792 l -14 908 l 813 908 m 385 386 q 522 433 457 386 l 522 792 l 249 792 l 249 531 q 279 419 249 451 q 385 386 310 386 z "},"फ":{"ha":1147,"x_min":-14,"x_max":1161,"o":"m 653 792 l 653 588 q 813 624 726 624 l 828 624 q 1037 572 971 624 q 1103 392 1103 521 q 1038 213 1103 265 q 833 160 972 160 l 817 160 q 772 162 796 160 q 733 167 749 164 l 733 283 q 808 276 772 276 l 825 276 q 925 301 892 276 q 958 392 958 326 q 924 484 958 461 q 813 507 890 507 l 797 507 q 722 499 756 507 q 653 472 688 492 l 653 0 l 508 0 l 508 310 q 350 269 440 269 q 165 328 226 269 q 104 531 104 386 l 104 792 l -14 792 l -14 908 l 1161 908 l 1161 792 l 653 792 m 371 386 q 447 398 415 386 q 508 432 479 410 l 508 792 l 249 792 l 249 531 q 276 419 249 451 q 371 386 303 386 z "},"ब":{"ha":771,"x_min":-14,"x_max":785,"o":"m 785 908 l 785 792 l 639 792 l 639 0 l 494 0 l 494 196 q 336 160 421 160 l 321 160 q 112 212 178 161 q 46 392 46 263 q 111 571 46 518 q 315 624 176 624 l 332 624 q 376 622 353 624 q 415 617 400 619 l 415 501 q 340 507 368 507 l 324 507 q 294 506 304 507 l 474 301 q 494 311 488 307 l 494 792 l -14 792 l -14 908 l 785 908 m 351 276 q 379 278 371 276 l 211 469 q 190 392 190 444 q 224 301 190 324 q 336 276 258 278 l 351 276 z "},"भ":{"ha":965,"x_min":50,"x_max":979,"o":"m 979 908 l 979 792 l 833 792 l 833 0 l 689 0 l 689 344 l 410 344 l 410 224 l 265 224 l 265 754 q 256 798 265 786 q 222 810 247 810 q 190 797 199 810 q 181 754 181 785 l 181 674 l 50 674 l 50 754 q 92 878 50 836 q 229 919 135 919 q 368 878 326 919 q 410 754 410 838 l 410 461 l 689 461 l 689 792 l 546 792 l 546 908 l 979 908 z "},"म":{"ha":815,"x_min":-14,"x_max":829,"o":"m 829 908 l 829 792 l 683 792 l 683 0 l 539 0 l 539 360 l 260 360 l 260 239 l 115 239 l 115 792 l -14 792 l -14 908 l 829 908 m 539 476 l 539 792 l 260 792 l 260 476 l 539 476 z "},"य":{"ha":840,"x_min":-14,"x_max":854,"o":"m 854 908 l 854 792 l 708 792 l 708 0 l 564 0 l 564 243 q 475 214 521 224 q 393 204 429 204 q 244 224 304 204 q 140 297 185 244 q 60 449 94 350 q 203 533 164 490 q 243 636 243 576 q 189 792 243 710 l -14 792 l -14 908 l 854 908 m 393 321 q 564 368 478 321 l 564 792 l 332 792 q 373 703 358 749 q 388 626 388 658 q 350 501 388 554 q 228 404 313 447 q 295 338 254 356 q 393 321 336 321 z "},"र":{"ha":658,"x_min":-14,"x_max":672,"o":"m 254 331 l 254 271 q 296 151 254 185 q 438 117 338 117 l 600 117 l 600 0 l 438 0 q 194 58 278 0 q 110 271 110 115 l 110 596 l 254 596 l 254 447 l 258 447 q 354 467 325 447 q 383 549 383 486 l 383 792 l -14 792 l -14 908 l 672 908 l 672 792 l 528 792 l 528 549 q 463 378 528 426 q 258 331 397 331 l 254 331 z "},"ऱ":{"ha":658,"x_min":-14,"x_max":672,"o":"m 0 0 m 254 331 l 254 271 q 296 151 254 185 q 438 117 338 117 l 600 117 l 600 0 l 438 0 q 194 58 278 0 q 110 271 110 115 l 110 596 l 254 596 l 254 447 l 258 447 q 354 467 325 447 q 383 549 383 486 l 383 792 l -14 792 l -14 908 l 672 908 l 672 792 l 528 792 l 528 549 q 463 378 528 426 q 258 331 397 331 l 254 331 m -1 -107 l 101 -4 l 204 -107 l 101 -208 l -1 -107 z "},"ल":{"ha":1100,"x_min":-14,"x_max":1114,"o":"m 1114 908 l 1114 792 l 968 792 l 967 0 l 822 0 l 822 478 q 753 494 793 494 q 656 451 689 494 q 622 322 624 407 l 622 282 l 588 282 l 588 275 l 478 275 l 478 315 q 357 481 475 481 q 231 315 233 481 q 274 172 233 226 q 424 117 315 117 l 468 117 l 468 0 l 424 0 q 165 91 244 0 q 86 315 86 182 q 152 520 86 443 q 343 597 218 597 q 544 500 482 597 q 746 611 603 611 q 824 600 786 611 l 824 792 l -14 792 l -14 908 l 1114 908 z "},"ळ":{"ha":1064,"x_min":-14,"x_max":1078,"o":"m 814 792 l 814 636 q 961 549 910 618 q 1013 383 1013 479 q 945 197 1013 271 q 754 124 878 124 q 622 151 678 124 q 532 226 565 178 q 445 151 500 178 q 317 124 390 124 q 121 197 190 124 q 51 383 51 271 q 120 569 51 496 q 317 642 189 642 q 445 615 390 642 q 532 540 500 588 q 669 632 579 610 l 669 792 l -14 792 l -14 908 l 1078 908 l 1078 792 l 814 792 m 331 240 q 428 280 396 240 q 460 383 460 319 q 428 486 460 447 q 331 525 396 525 q 228 486 261 525 q 196 383 196 447 q 228 280 196 319 q 331 240 261 240 m 868 383 q 836 486 868 447 q 738 525 804 525 q 637 486 669 525 q 604 383 604 447 q 637 280 604 319 q 738 240 669 240 q 836 280 804 240 q 868 383 868 319 z "},"ऴ":{"ha":1064,"x_min":-14,"x_max":1078,"o":"m 0 0 m 814 792 l 814 636 q 961 549 910 618 q 1013 383 1013 479 q 945 197 1013 271 q 754 124 878 124 q 622 151 678 124 q 532 226 565 178 q 445 151 500 178 q 317 124 390 124 q 121 197 190 124 q 51 383 51 271 q 120 569 51 496 q 317 642 189 642 q 445 615 390 642 q 532 540 500 588 q 669 632 579 610 l 669 792 l -14 792 l -14 908 l 1078 908 l 1078 792 l 814 792 m 331 240 q 428 280 396 240 q 460 383 460 319 q 428 486 460 447 q 331 525 396 525 q 228 486 261 525 q 196 383 196 447 q 228 280 196 319 q 331 240 261 240 m 868 383 q 836 486 868 447 q 738 525 804 525 q 637 486 669 525 q 604 383 604 447 q 637 280 604 319 q 738 240 669 240 q 836 280 804 240 q 868 383 868 319 m 428 0 l 531 103 l 633 0 l 531 -101 l 428 0 z "},"व":{"ha":771,"x_min":-14,"x_max":785,"o":"m 785 908 l 785 792 l 639 792 l 639 0 l 494 0 l 494 196 q 336 160 421 160 l 321 160 q 112 212 178 161 q 46 392 46 263 q 111 571 46 518 q 315 624 176 624 l 332 624 q 376 622 353 624 q 415 617 400 619 l 415 501 q 340 507 368 507 l 324 507 q 224 482 257 507 q 190 392 190 457 q 224 301 190 324 q 336 276 258 278 l 351 276 q 426 284 392 276 q 494 311 460 292 l 494 792 l -14 792 l -14 908 l 785 908 z "},"श":{"ha":996,"x_min":65,"x_max":1010,"o":"m 294 321 q 322 194 297 239 q 391 133 347 150 q 503 117 435 117 l 586 117 l 586 0 l 496 0 q 251 73 338 0 q 157 315 164 146 l 65 315 l 65 432 l 211 432 q 375 488 322 432 q 429 656 428 544 q 409 776 429 743 q 333 810 389 810 q 262 778 285 810 q 238 669 239 746 l 238 596 l 93 596 l 93 683 q 152 860 94 801 q 333 919 210 919 q 518 856 463 919 q 574 656 574 792 q 501 431 572 521 q 294 321 431 342 m 1010 792 l 864 792 l 864 0 l 719 0 l 719 908 l 1010 908 l 1010 792 z "},"ष":{"ha":819,"x_min":-14,"x_max":833,"o":"m 833 908 l 833 792 l 688 792 l 688 0 l 543 0 l 543 313 q 374 269 468 269 q 171 328 238 269 q 104 531 104 386 l 104 792 l -14 792 l -14 908 l 833 908 m 543 792 l 324 792 l 543 499 l 543 792 m 249 531 q 281 419 249 451 q 394 386 314 386 q 501 410 451 386 l 249 747 l 249 531 z "},"स":{"ha":1092,"x_min":-14,"x_max":1106,"o":"m 1106 908 l 1106 792 l 960 792 l 960 0 l 815 0 l 815 363 l 569 363 l 569 479 l 815 479 l 815 792 l 528 792 l 528 549 q 463 378 528 426 q 258 331 397 331 l 250 331 l 250 271 q 292 151 250 185 q 433 117 333 117 l 642 117 l 642 0 l 433 0 q 190 58 275 0 q 106 271 106 115 l 106 596 l 250 596 l 250 447 l 258 447 q 354 467 325 447 q 383 549 383 486 l 383 792 l -14 792 l -14 908 l 1106 908 z "},"ह":{"ha":743,"x_min":-14,"x_max":769,"o":"m 315 561 q 247 547 269 561 q 225 494 225 532 q 269 410 225 447 q 394 432 326 432 l 433 432 q 608 373 547 432 q 669 217 669 314 l 669 182 l 546 182 l 546 217 q 516 288 546 260 q 433 315 486 315 l 394 315 q 308 286 346 315 q 269 189 269 257 q 331 61 269 96 q 493 26 393 26 l 589 26 l 589 -90 l 486 -90 q 224 -24 324 -90 q 125 196 125 43 q 165 333 125 278 q 106 411 131 367 q 81 504 81 456 q 136 638 81 599 q 308 678 192 678 l 464 678 l 464 792 l -14 792 l -14 908 l 769 908 l 769 792 l 608 792 l 608 561 l 315 561 z "},"क़":{"ha":1133,"x_min":-14,"x_max":1147,"o":"m 0 0 m 639 792 l 639 588 q 799 624 713 624 l 814 624 q 1023 572 957 624 q 1089 392 1089 521 q 1024 213 1089 265 q 819 160 958 160 l 803 160 q 758 162 782 160 q 719 167 735 164 l 719 283 q 794 276 758 276 l 811 276 q 911 301 878 276 q 944 392 944 326 q 910 484 944 461 q 799 507 876 507 l 783 507 q 708 499 742 507 q 639 472 674 492 l 639 0 l 494 0 l 494 196 q 336 160 421 160 l 321 160 q 112 212 178 161 q 46 392 46 263 q 111 571 46 518 q 315 624 176 624 l 332 624 q 376 622 353 624 q 415 617 400 619 l 415 501 q 340 507 368 507 l 324 507 q 224 482 257 507 q 190 392 190 457 q 224 301 190 324 q 336 276 258 278 l 351 276 q 426 284 392 276 q 494 311 460 292 l 494 792 l -14 792 l -14 908 l 1147 908 l 1147 792 l 639 792 m 190 -14 l 293 89 l 396 -14 l 293 -115 l 190 -14 z "},"ख़":{"ha":1240,"x_min":-14,"x_max":1254,"o":"m 0 0 m 1254 792 l 1108 792 l 1108 0 l 964 0 l 964 239 q 835 215 907 215 l 810 215 q 582 419 582 215 q 640 572 582 521 q 789 624 697 624 l 806 624 q 885 617 843 624 l 885 501 q 826 507 856 507 l 810 507 q 749 488 772 507 q 726 419 726 469 q 752 349 726 367 q 835 332 778 332 l 856 332 q 964 354 914 332 l 964 792 l 528 792 l 528 549 q 463 378 528 426 q 258 331 397 331 l 250 331 l 250 271 q 292 151 250 185 q 433 117 333 117 l 663 117 l 663 0 l 433 0 q 190 58 275 0 q 106 271 106 115 l 106 596 l 250 596 l 250 447 l 258 447 q 354 467 325 447 q 383 549 383 486 l 383 792 l -14 792 l -14 908 l 1254 908 l 1254 792 m 76 -140 l 179 -37 l 282 -140 l 179 -242 l 76 -140 z "},"ग़":{"ha":889,"x_min":-14,"x_max":903,"o":"m 0 0 m 903 792 l 757 792 l 757 0 l 613 0 l 613 792 l 397 792 l 397 424 q 243 243 397 243 q 126 278 174 243 q 49 389 79 313 l 157 447 q 191 381 175 403 q 225 360 207 360 q 247 374 242 360 q 253 424 253 389 l 253 792 l -14 792 l -14 908 l 903 908 l 903 792 m 221 0 l 324 103 l 426 0 l 324 -101 l 221 0 z "},"ज़":{"ha":956,"x_min":-14,"x_max":969,"o":"m 0 0 m 969 908 l 969 792 l 824 792 l 824 0 l 679 0 l 679 493 l 556 493 l 556 406 q 502 206 556 268 q 311 143 449 143 q 129 207 183 143 q 75 406 75 271 l 75 610 l 213 610 l 213 396 q 234 293 213 326 q 311 260 256 260 q 391 292 371 260 q 411 396 411 324 l 411 610 l 679 610 l 679 792 l -14 792 l -14 908 l 969 908 m 210 -28 l 313 75 l 415 -28 l 313 -129 l 210 -28 z "},"ड़":{"ha":724,"x_min":-14,"x_max":738,"o":"m 0 0 m 311 544 q 243 530 265 544 q 221 478 221 515 q 230 437 221 456 q 251 408 239 418 l 408 408 q 671 203 671 408 q 603 36 671 92 q 411 -19 536 -19 l 396 -19 q 198 7 283 -19 q 32 85 113 33 l 86 196 q 235 122 165 144 q 388 99 306 99 l 406 99 q 526 193 526 99 q 497 268 526 244 q 408 292 467 292 l 176 292 q 108 373 140 318 q 76 489 76 428 q 133 622 76 583 q 311 661 189 661 l 433 661 l 433 792 l -14 792 l -14 908 l 738 908 l 738 792 l 578 792 l 578 617 l 574 617 l 574 544 l 311 544 m 276 -171 l 379 -68 l 482 -171 l 379 -272 l 276 -171 z "},"ढ़":{"ha":721,"x_min":-14,"x_max":735,"o":"m 0 0 m 371 542 q 274 526 311 542 q 216 465 236 510 q 196 339 196 421 q 214 213 196 257 q 266 152 232 168 q 357 136 300 136 l 383 136 q 501 160 464 136 q 539 240 539 183 l 539 283 q 528 320 539 310 q 493 331 518 331 q 457 319 468 331 q 446 283 446 308 l 446 224 l 315 224 l 315 296 q 359 406 315 371 q 503 440 403 440 q 640 400 597 440 q 683 282 683 360 l 683 242 q 610 74 683 129 q 383 19 536 19 l 357 19 q 126 92 200 19 q 51 339 51 165 q 129 586 51 514 q 371 658 207 658 l 444 658 l 444 792 l -14 792 l -14 908 l 735 908 l 735 792 l 589 792 l 589 542 l 371 542 m 269 -142 l 372 -39 l 475 -142 l 372 -243 l 269 -142 z "},"फ़":{"ha":1147,"x_min":-14,"x_max":1161,"o":"m 0 0 m 653 792 l 653 588 q 813 624 726 624 l 828 624 q 1037 572 971 624 q 1103 392 1103 521 q 1038 213 1103 265 q 833 160 972 160 l 817 160 q 772 162 796 160 q 733 167 749 164 l 733 283 q 808 276 772 276 l 825 276 q 925 301 892 276 q 958 392 958 326 q 924 484 958 461 q 813 507 890 507 l 797 507 q 722 499 756 507 q 653 472 688 492 l 653 0 l 508 0 l 508 310 q 350 269 440 269 q 165 328 226 269 q 104 531 104 386 l 104 792 l -14 792 l -14 908 l 1161 908 l 1161 792 l 653 792 m 371 386 q 447 398 415 386 q 508 432 479 410 l 508 792 l 249 792 l 249 531 q 276 419 249 451 q 371 386 303 386 m 103 111 l 206 214 l 308 111 l 206 10 l 103 111 z "},"य़":{"ha":840,"x_min":-14,"x_max":854,"o":"m 0 0 m 854 908 l 854 792 l 708 792 l 708 0 l 564 0 l 564 243 q 475 214 521 224 q 393 204 429 204 q 244 224 304 204 q 140 297 185 244 q 60 449 94 350 q 203 533 164 490 q 243 636 243 576 q 189 792 243 710 l -14 792 l -14 908 l 854 908 m 393 321 q 564 368 478 321 l 564 792 l 332 792 q 373 703 358 749 q 388 626 388 658 q 350 501 388 554 q 228 404 313 447 q 295 338 254 356 q 393 321 336 321 m 92 56 l 194 158 l 297 56 l 194 -46 l 92 56 z "},"ॹ":{"ha":956,"x_min":-14,"x_max":969,"o":"m 0 0 m 969 908 l 969 792 l 824 792 l 824 0 l 679 0 l 679 493 l 556 493 l 556 406 q 502 206 556 268 q 311 143 449 143 q 129 207 183 143 q 75 406 75 271 l 75 610 l 213 610 l 213 396 q 234 293 213 326 q 311 260 256 260 q 391 292 371 260 q 411 396 411 324 l 411 610 l 679 610 l 679 792 l -14 792 l -14 908 l 969 908 m 63 11 l 165 114 l 268 11 l 165 -90 l 63 11 m 213 -136 l 315 -33 l 418 -136 l 315 -237 l 213 -136 m 363 11 l 465 114 l 568 11 l 465 -90 l 363 11 z "},"ॺ":{"ha":806,"x_min":-14,"x_max":854,"o":"m 854 908 l 854 792 l 708 792 l 708 0 l 564 0 l 564 243 q 475 214 521 224 q 393 204 429 204 q 244 224 304 204 q 140 297 185 244 q 60 449 94 350 q 203 533 164 490 q 243 636 243 576 q 189 792 243 710 l -14 792 l -14 908 l 854 908 m 564 792 l 357 792 l 564 515 l 564 792 m 228 404 q 295 338 254 356 q 393 321 336 321 q 547 360 469 321 l 383 579 q 335 483 372 525 q 228 404 297 440 z "},"ॻ":{"ha":889,"x_min":-14,"x_max":903,"o":"m 903 792 l 757 792 l 757 0 l 743 0 l 743 -56 l 69 -56 l 69 61 l 613 61 l 613 792 l 397 792 l 397 424 q 243 243 397 243 q 126 278 174 243 q 49 389 79 313 l 157 447 q 191 381 175 403 q 225 360 207 360 q 247 374 242 360 q 253 424 253 389 l 253 792 l -14 792 l -14 908 l 903 908 l 903 792 z "},"ॼ":{"ha":928,"x_min":-14,"x_max":969,"o":"m 969 908 l 969 792 l 824 792 l 824 0 l 806 0 l 806 -56 l 69 -56 l 69 61 l 679 61 l 679 493 l 556 493 l 556 406 q 502 206 556 268 q 311 143 449 143 q 129 207 183 143 q 75 406 75 271 l 75 610 l 213 610 l 213 396 q 234 293 213 326 q 311 260 256 260 q 391 292 371 260 q 411 396 411 324 l 411 610 l 679 610 l 679 792 l -14 792 l -14 908 l 969 908 z "},"ॾ":{"ha":724,"x_min":-14,"x_max":738,"o":"m 311 544 q 243 530 265 544 q 221 478 221 515 q 230 437 221 456 q 251 408 239 418 l 408 408 q 671 203 671 408 q 603 36 671 92 q 411 -19 536 -19 l 396 -19 q 198 7 283 -19 q 32 85 113 33 l 86 196 q 235 122 165 144 q 388 99 306 99 l 406 99 q 526 193 526 99 q 497 268 526 244 q 408 292 467 292 l 176 292 q 108 373 140 318 q 76 489 76 428 q 133 622 76 583 q 311 661 189 661 l 433 661 l 433 792 l -14 792 l -14 908 l 738 908 l 738 792 l 578 792 l 578 617 l 574 617 l 574 544 l 311 544 m 69 -106 l 653 -106 l 653 -222 l 69 -222 l 69 -106 z "},"ॿ":{"ha":771,"x_min":-14,"x_max":785,"o":"m 785 908 l 785 792 l 639 792 l 639 0 l 622 0 l 622 -86 l 69 -86 l 69 31 l 494 31 l 494 196 q 336 160 421 160 l 321 160 q 112 212 178 161 q 46 392 46 263 q 111 571 46 518 q 315 624 176 624 l 332 624 q 376 622 353 624 q 415 617 400 619 l 415 501 q 340 507 368 507 l 324 507 q 294 506 304 507 l 474 301 q 494 311 488 307 l 494 792 l -14 792 l -14 908 l 785 908 m 351 276 q 379 278 371 276 l 211 469 q 190 392 190 444 q 224 301 190 324 q 336 276 258 278 l 351 276 z "},"⁄":{"ha":549,"x_min":-83,"x_max":632,"o":"m 496 1074 l 632 1074 l 53 -46 l -83 -46 l 496 1074 z "},"½":{"ha":1529,"x_min":97,"x_max":1496,"o":"m 97 0 m 444 292 l 444 182 l 97 182 l 97 292 l 213 292 l 213 825 l 117 825 l 117 935 l 329 935 l 329 292 l 444 292 m 994 1074 l 1131 1074 l 551 -46 l 415 -46 l 994 1074 m 1049 200 q 1233 406 1171 333 q 1326 535 1294 478 q 1357 642 1357 592 q 1328 722 1357 694 q 1244 750 1300 750 q 1072 708 1156 750 l 1072 819 q 1246 857 1157 857 q 1414 802 1351 857 q 1476 646 1476 747 q 1440 513 1476 582 q 1347 373 1404 443 q 1192 200 1289 303 l 1496 200 l 1496 90 l 1049 90 l 1049 200 z "},"¼":{"ha":1482,"x_min":97,"x_max":1468,"o":"m 97 0 m 444 292 l 444 182 l 97 182 l 97 292 l 213 292 l 213 825 l 117 825 l 117 935 l 329 935 l 329 292 l 444 292 m 994 1074 l 1131 1074 l 551 -46 l 415 -46 l 994 1074 m 1468 265 l 1382 265 l 1382 90 l 1265 90 l 1265 265 l 961 265 l 961 372 l 1260 856 l 1382 856 l 1382 372 l 1468 372 l 1468 265 m 1265 372 l 1265 668 l 1082 372 l 1265 372 z "},"¾":{"ha":1479,"x_min":65,"x_max":1465,"o":"m 65 0 m 369 579 q 462 506 431 553 q 493 400 493 460 q 424 228 493 289 q 236 167 356 167 q 65 194 138 167 l 65 306 q 229 274 142 274 q 333 307 294 274 q 372 403 372 340 q 330 492 372 461 q 207 522 288 522 l 144 522 l 144 636 l 207 636 q 363 749 363 636 q 330 817 363 792 q 236 842 297 842 q 75 814 146 842 l 75 924 q 236 949 144 949 q 421 895 358 949 q 483 749 483 842 q 369 579 483 636 m 990 1074 l 1126 1074 l 547 -46 l 411 -46 l 990 1074 m 1465 265 l 1379 265 l 1379 90 l 1263 90 l 1263 265 l 958 265 l 958 372 l 1257 856 l 1379 856 l 1379 372 l 1465 372 l 1465 265 m 1263 372 l 1263 668 l 1079 372 l 1263 372 z "},"¹":{"ha":542,"x_min":97,"x_max":444,"o":"m 444 292 l 444 182 l 97 182 l 97 292 l 213 292 l 213 825 l 117 825 l 117 935 l 329 935 l 329 292 l 444 292 z "},"²":{"ha":542,"x_min":61,"x_max":508,"o":"m 61 292 q 245 497 183 425 q 338 626 307 569 q 369 733 369 683 q 341 814 369 786 q 257 842 313 842 q 85 800 168 842 l 85 911 q 258 949 169 949 q 426 894 364 949 q 489 738 489 839 q 453 604 489 674 q 359 465 417 535 q 204 292 301 394 l 508 292 l 508 182 l 61 182 l 61 292 z "},"³":{"ha":542,"x_min":65,"x_max":493,"o":"m 369 579 q 462 506 431 553 q 493 400 493 460 q 424 228 493 289 q 236 167 356 167 q 65 194 138 167 l 65 306 q 229 274 142 274 q 333 307 294 274 q 372 403 372 340 q 330 492 372 461 q 207 522 288 522 l 144 522 l 144 636 l 207 636 q 363 749 363 636 q 330 817 363 792 q 236 842 297 842 q 75 814 146 842 l 75 924 q 236 949 144 949 q 421 895 358 949 q 483 749 483 842 q 369 579 483 636 z "},"०":{"ha":886,"x_min":108,"x_max":778,"o":"m 443 151 q 265 193 340 151 q 149 306 189 235 q 108 465 108 378 q 149 624 108 553 q 265 738 189 696 q 443 779 340 779 q 622 738 546 779 q 738 624 697 696 q 778 465 778 553 q 738 306 778 378 q 622 193 697 235 q 443 151 546 151 m 443 268 q 583 324 533 268 q 633 465 633 379 q 583 607 633 551 q 443 663 533 663 q 303 607 353 663 q 253 465 253 551 q 303 324 253 379 q 443 268 353 268 z "},"१":{"ha":667,"x_min":76,"x_max":613,"o":"m 613 663 q 535 430 611 528 q 338 289 460 332 l 538 58 l 443 -24 l 199 261 q 167 260 188 260 l 83 260 l 83 376 l 167 376 q 316 409 247 376 q 426 506 385 442 q 468 663 468 571 q 442 783 468 749 q 347 817 415 817 q 253 781 283 817 q 221 663 222 744 l 221 610 l 76 610 l 76 663 q 143 865 78 797 q 347 933 208 933 q 550 865 488 933 q 613 663 613 797 z "},"२":{"ha":686,"x_min":99,"x_max":635,"o":"m 635 117 l 635 0 l 551 0 q 277 86 378 0 q 176 368 176 172 l 176 378 l 99 378 l 99 494 l 240 494 q 392 526 343 494 q 442 643 440 558 q 392 760 440 728 q 240 792 343 792 l 99 792 l 99 908 l 240 908 q 501 847 417 908 q 586 643 585 786 q 520 456 585 518 q 321 381 456 393 l 321 368 q 384 171 322 225 q 551 117 446 117 l 635 117 z "},"३":{"ha":672,"x_min":71,"x_max":629,"o":"m 432 506 q 578 423 526 481 q 629 282 629 365 q 545 92 629 156 q 326 28 461 28 q 208 42 264 28 l 208 -67 l 71 -67 l 71 279 l 208 279 l 208 161 q 326 144 263 144 q 446 178 400 144 q 492 286 492 211 q 240 432 492 432 l 149 432 l 149 549 l 242 549 q 367 586 325 549 q 408 682 408 624 q 366 767 408 742 q 235 792 324 792 l 86 792 l 86 908 l 235 908 q 469 858 393 908 q 546 694 546 808 q 518 581 546 626 q 432 506 490 535 z "},"४":{"ha":797,"x_min":72,"x_max":725,"o":"m 725 840 q 706 679 725 740 q 653 581 688 618 q 556 504 618 544 l 511 475 q 624 367 585 424 q 663 224 663 310 q 630 97 663 153 q 538 8 597 40 q 399 -24 478 -24 q 260 8 319 -24 q 167 97 200 40 q 135 224 135 153 q 176 363 135 304 q 288 474 217 422 l 242 504 q 143 585 179 544 q 90 685 107 625 q 72 840 72 744 l 72 908 l 217 908 l 217 840 q 231 707 217 751 q 276 635 244 663 q 388 556 307 607 l 399 547 l 410 556 q 517 634 485 604 q 565 710 550 664 q 581 840 581 756 l 581 908 l 725 908 l 725 840 m 399 94 q 485 126 453 94 q 518 224 518 158 q 489 322 518 282 q 400 401 460 361 q 310 319 340 360 q 279 224 279 278 q 312 126 279 158 q 399 94 344 94 z "},"५":{"ha":794,"x_min":118,"x_max":676,"o":"m 676 742 l 676 221 q 595 37 676 97 q 374 -24 514 -24 q 161 17 254 -24 l 138 151 q 240 108 188 124 q 360 93 293 93 q 485 126 439 93 q 532 242 532 158 l 532 357 q 378 317 464 317 q 182 375 246 317 q 118 578 118 433 l 118 908 l 263 908 l 263 578 q 290 466 263 499 q 385 433 317 433 q 532 478 471 433 l 532 740 l 676 742 z "},"६":{"ha":704,"x_min":58,"x_max":656,"o":"m 656 336 l 656 -24 l 511 -24 l 511 97 q 414 86 460 86 l 389 86 q 172 150 246 88 q 99 329 99 213 q 203 524 99 465 q 94 592 129 544 q 58 719 58 639 q 135 879 58 832 q 376 926 211 926 l 401 926 q 506 915 461 926 l 506 796 q 401 810 460 810 l 376 810 q 244 788 285 810 q 203 701 203 767 q 250 613 204 635 q 399 592 296 592 l 439 592 l 439 564 l 453 564 l 453 475 l 389 475 q 281 440 318 475 q 243 332 243 404 q 389 203 243 206 l 414 203 q 511 217 469 203 l 511 336 l 656 336 z "},"७":{"ha":819,"x_min":93,"x_max":726,"o":"m 410 35 q 231 69 300 35 q 128 184 163 103 q 93 404 93 265 l 93 908 l 238 908 l 238 411 q 256 249 238 306 q 312 172 275 193 q 410 151 349 151 q 506 172 469 151 q 563 249 543 193 q 582 411 582 306 l 582 775 q 576 808 582 799 q 550 817 569 817 q 524 807 532 817 q 517 775 517 797 l 517 636 l 372 636 l 372 782 q 414 890 372 853 q 550 926 456 926 q 685 890 644 926 q 726 782 726 853 l 726 404 q 648 118 726 201 q 410 35 569 35 z "},"८":{"ha":654,"x_min":31,"x_max":592,"o":"m 493 0 q 146 90 261 0 q 31 331 31 179 q 61 473 31 407 q 146 599 92 539 q 290 738 200 660 l 501 921 l 592 822 l 381 639 q 263 528 306 574 q 198 435 221 483 q 175 331 175 388 q 253 172 175 228 q 493 117 331 117 l 572 117 l 572 0 l 493 0 z "},"९":{"ha":724,"x_min":42,"x_max":697,"o":"m 390 186 q 360 213 389 188 q 190 373 253 308 q 85 513 128 438 q 42 668 42 589 q 119 863 42 799 q 340 926 197 926 q 529 862 461 926 q 597 668 597 797 l 597 581 l 453 581 l 453 668 q 332 810 453 810 q 225 777 263 810 q 188 668 188 744 q 218 556 188 610 q 296 454 249 501 q 432 328 343 407 l 482 283 l 697 90 l 606 -7 l 390 186 z "},"*":{"ha":858,"x_min":97,"x_max":761,"o":"m 524 867 l 761 753 l 694 636 l 476 785 l 496 522 l 363 522 l 383 785 l 164 636 l 97 753 l 336 867 l 97 981 l 164 1097 l 383 949 l 363 1211 l 496 1211 l 476 949 l 694 1097 l 761 981 l 524 867 z "},"\\":{"ha":579,"x_min":-7,"x_max":586,"o":"m -7 1293 l 154 1293 l 586 -246 l 425 -246 l -7 1293 z "},"·":{"ha":394,"x_min":111,"x_max":283,"o":"m 111 594 l 283 594 l 283 364 l 111 364 l 111 594 z "},"•":{"ha":482,"x_min":53,"x_max":429,"o":"m 242 340 q 147 366 190 340 q 78 435 104 392 q 53 529 53 478 q 78 625 53 582 q 147 692 104 668 q 242 717 190 717 q 376 663 322 717 q 429 529 429 610 q 405 435 429 478 q 338 366 381 392 q 242 340 294 340 z "},":":{"ha":394,"x_min":111,"x_max":283,"o":"m 111 0 m 111 231 l 283 231 l 283 0 l 111 0 l 111 231 m 111 779 l 283 779 l 283 549 l 111 549 l 111 779 z "},",":{"ha":394,"x_min":65,"x_max":315,"o":"m 149 231 l 315 231 l 210 -210 l 65 -210 l 149 231 z "},"…":{"ha":1183,"x_min":111,"x_max":1072,"o":"m 111 231 l 283 231 l 283 0 l 111 0 l 111 231 m 506 231 l 678 231 l 678 0 l 506 0 l 506 231 m 1072 231 l 1072 0 l 900 0 l 900 231 l 1072 231 z "},"!":{"ha":394,"x_min":106,"x_max":289,"o":"m 106 1053 l 289 1053 l 265 319 l 129 319 l 106 1053 m 111 224 l 283 224 l 283 0 l 111 0 l 111 224 z "},"¡":{"ha":394,"x_min":106,"x_max":289,"o":"m 111 1053 l 283 1053 l 283 829 l 111 829 l 111 1053 m 129 733 l 265 733 l 289 0 l 106 0 l 129 733 z "},"#":{"ha":976,"x_min":83,"x_max":892,"o":"m 747 572 l 721 364 l 850 364 l 850 219 l 701 219 l 674 0 l 526 0 l 554 219 l 356 219 l 328 0 l 181 0 l 208 219 l 83 219 l 83 364 l 228 364 l 254 572 l 125 572 l 125 717 l 274 717 l 301 936 l 449 936 l 421 717 l 619 717 l 647 936 l 794 936 l 767 717 l 892 717 l 892 572 l 747 572 m 600 572 l 401 572 l 375 364 l 574 364 l 600 572 z "},".":{"ha":394,"x_min":111,"x_max":283,"o":"m 111 231 l 283 231 l 283 0 l 111 0 l 111 231 z "},"?":{"ha":729,"x_min":86,"x_max":650,"o":"m 238 392 q 265 517 238 471 q 358 617 293 563 l 413 661 q 471 726 456 699 q 486 793 486 753 q 444 894 486 858 q 328 931 401 931 q 86 874 203 931 l 86 1021 q 212 1060 150 1049 q 342 1072 274 1072 q 565 1002 479 1072 q 650 803 650 932 q 617 669 650 721 q 524 565 585 617 l 483 532 q 417 460 435 490 q 399 379 399 429 l 399 319 l 238 319 l 238 392 m 232 224 l 404 224 l 404 0 l 232 0 l 232 224 z "},"¿":{"ha":729,"x_min":79,"x_max":643,"o":"m 369 949 l 453 949 l 453 935 l 369 935 l 369 949 m 388 -19 q 165 51 251 -19 q 79 250 79 121 q 112 383 79 332 q 207 489 144 435 l 246 522 q 313 594 296 565 q 331 674 331 624 l 331 733 l 492 733 l 492 663 q 464 538 492 583 q 371 436 436 492 l 318 392 q 259 328 275 356 q 243 261 243 301 q 285 158 243 194 q 401 122 328 122 q 643 179 529 122 l 643 32 q 517 -8 579 3 q 388 -19 456 -19 z "},"\"":{"ha":658,"x_min":124,"x_max":535,"o":"m 124 633 m 124 1053 l 271 1053 l 271 633 l 124 633 l 124 1053 m 388 1053 l 535 1053 l 535 633 l 388 633 l 388 1053 z "},"'":{"ha":394,"x_min":124,"x_max":271,"o":"m 124 1053 l 271 1053 l 271 633 l 124 633 l 124 1053 z "},";":{"ha":394,"x_min":65,"x_max":315,"o":"m 65 0 m 149 231 l 315 231 l 210 -210 l 65 -210 l 149 231 m 111 779 l 283 779 l 283 549 l 111 549 l 111 779 z "},"/":{"ha":579,"x_min":-7,"x_max":586,"o":"m 425 1293 l 586 1293 l 154 -246 l -7 -246 l 425 1293 z "},"_":{"ha":694,"x_min":0,"x_max":694,"o":"m 0 -107 l 694 -107 l 694 -251 l 0 -251 l 0 -107 z "},"{":{"ha":507,"x_min":56,"x_max":460,"o":"m 321 693 q 298 557 321 599 q 213 499 275 515 q 298 438 275 481 q 321 304 321 396 l 321 67 q 336 -14 321 7 q 396 -35 351 -35 q 460 -29 432 -35 l 460 -174 q 382 -179 422 -179 q 252 -161 300 -179 q 182 -99 204 -143 q 160 24 160 -56 l 160 283 q 153 374 160 344 q 131 415 147 404 q 85 426 115 426 l 56 426 l 56 571 l 85 571 q 131 582 115 571 q 153 624 147 593 q 160 714 160 654 l 160 974 q 182 1097 160 1053 q 252 1158 204 1140 q 382 1176 300 1176 q 460 1171 422 1176 l 460 1026 q 396 1032 432 1032 q 336 1011 351 1032 q 321 931 321 990 l 321 693 z "},"}":{"ha":450,"x_min":-10,"x_max":394,"o":"m 0 0 m 129 693 q 152 557 129 599 q 238 499 175 515 q 152 438 175 481 q 129 304 129 396 l 129 67 q 114 -14 129 7 q 54 -35 99 -35 q -10 -29 18 -35 l -10 -174 q 68 -179 28 -179 q 198 -161 150 -179 q 268 -99 246 -143 q 290 24 290 -56 l 290 283 q 297 374 290 344 q 319 415 303 404 q 365 426 335 426 l 394 426 l 394 571 l 365 571 q 319 582 335 571 q 297 624 303 593 q 290 714 290 654 l 290 974 q 268 1097 290 1053 q 198 1158 246 1140 q 68 1176 150 1176 q -10 1171 28 1176 l -10 1026 q 54 1032 18 1032 q 114 1011 99 1032 q 129 931 129 990 l 129 693 z "},"[":{"ha":464,"x_min":125,"x_max":401,"o":"m 401 -35 l 401 -179 l 125 -179 l 125 1176 l 394 1176 l 394 1032 l 286 1032 l 286 -35 l 401 -35 z "},"]":{"ha":464,"x_min":67,"x_max":339,"o":"m 339 -179 l 67 -179 l 67 -35 l 178 -35 l 178 1032 l 67 1032 l 67 1176 l 339 1176 l 339 -179 z "},"(":{"ha":494,"x_min":78,"x_max":439,"o":"m 326 -179 q 147 108 217 -54 q 78 499 78 271 q 147 890 78 728 q 326 1176 217 1051 l 439 1097 q 303 842 357 986 q 249 499 249 697 q 303 156 249 300 q 439 -100 357 13 l 326 -179 z "},")":{"ha":494,"x_min":56,"x_max":417,"o":"m 56 -100 q 192 156 138 11 q 246 499 246 300 q 56 1097 246 843 l 168 1176 q 347 890 278 1051 q 417 499 417 728 q 347 108 417 271 q 168 -179 278 -54 l 56 -100 z "},"—":{"ha":1389,"x_min":174,"x_max":1215,"o":"m 174 483 l 1215 483 l 1215 340 l 174 340 l 174 483 z "},"–":{"ha":694,"x_min":0,"x_max":694,"o":"m 0 483 l 694 483 l 694 340 l 0 340 l 0 483 z "},"-":{"ha":631,"x_min":111,"x_max":519,"o":"m 111 483 l 519 483 l 519 339 l 111 339 l 111 483 z "},"«":{"ha":1043,"x_min":146,"x_max":893,"o":"m 508 43 m 649 375 l 893 138 l 794 43 l 508 318 l 508 432 l 794 707 l 893 613 l 649 375 m 286 375 l 531 138 l 432 43 l 146 318 l 146 432 l 432 707 l 531 613 l 286 375 z "},"»":{"ha":1043,"x_min":150,"x_max":897,"o":"m 150 43 m 394 375 l 150 138 l 249 43 l 535 318 l 535 432 l 249 707 l 150 613 l 394 375 m 757 375 l 513 138 l 611 43 l 897 318 l 897 432 l 611 707 l 513 613 l 757 375 z "},"‹":{"ha":681,"x_min":146,"x_max":531,"o":"m 286 375 l 531 138 l 432 43 l 146 318 l 146 432 l 432 707 l 531 613 l 286 375 z "},"›":{"ha":681,"x_min":150,"x_max":535,"o":"m 150 43 m 394 375 l 150 138 l 249 43 l 535 318 l 535 432 l 249 707 l 150 613 l 394 375 z "},"„":{"ha":672,"x_min":65,"x_max":593,"o":"m 149 231 l 315 231 l 210 -210 l 65 -210 l 149 231 m 593 231 l 488 -210 l 343 -210 l 426 231 l 593 231 z "},"“":{"ha":672,"x_min":79,"x_max":607,"o":"m 224 1053 l 329 613 l 163 613 l 79 1053 l 224 1053 m 607 613 l 440 613 l 357 1053 l 501 1053 l 607 613 z "},"”":{"ha":672,"x_min":65,"x_max":593,"o":"m 65 613 m 149 1053 l 315 1053 l 210 613 l 65 613 l 149 1053 m 426 1053 l 593 1053 l 488 613 l 343 613 l 426 1053 z "},"‘":{"ha":394,"x_min":79,"x_max":329,"o":"m 79 613 m 163 613 l 329 613 l 224 1053 l 79 1053 l 163 613 z "},"’":{"ha":394,"x_min":65,"x_max":315,"o":"m 65 613 m 149 1053 l 315 1053 l 210 613 l 65 613 l 149 1053 z "},"‚":{"ha":394,"x_min":65,"x_max":315,"o":"m 65 0 m 149 231 l 315 231 l 210 -210 l 65 -210 l 149 231 z "},"ॽ":{"ha":653,"x_min":99,"x_max":586,"o":"m 586 636 q 516 440 586 507 q 300 364 446 372 l 300 0 l 156 0 l 156 479 l 254 479 q 397 516 353 479 q 442 636 442 553 q 392 756 442 719 q 240 792 342 792 l 99 792 l 99 908 l 240 908 q 500 842 414 908 q 586 636 586 775 z "},"।":{"ha":649,"x_min":363,"x_max":507,"o":"m 363 881 l 507 881 l 507 0 l 363 0 l 363 881 z "},"॥":{"ha":986,"x_min":363,"x_max":868,"o":"m 363 0 m 363 881 l 507 881 l 507 0 l 363 0 l 363 881 m 724 881 l 868 881 l 868 0 l 724 0 l 724 881 z "},"॰":{"ha":640,"x_min":78,"x_max":563,"o":"m 321 149 q 199 178 254 149 q 110 261 143 207 q 78 385 78 315 q 110 508 78 456 q 199 590 143 561 q 321 619 254 619 q 443 590 388 619 q 531 508 499 561 q 563 385 563 456 q 531 261 563 315 q 443 178 499 207 q 321 149 388 149 m 321 258 q 401 294 371 258 q 432 385 432 331 q 401 475 432 440 q 321 510 371 510 q 240 475 271 510 q 208 385 208 440 q 240 294 208 331 q 321 258 271 258 z "},"ॱ":{"ha":381,"x_min":88,"x_max":293,"o":"m 88 850 l 190 953 l 293 850 l 190 749 l 88 850 z "}," ":{"ha":306,"x_min":0,"x_max":0,"o":""},"‍":{"ha":0,"x_min":0,"x_max":0,"o":""},"":{"ha":833,"x_min":0,"x_max":0,"o":""},"¢":{"ha":764,"x_min":68,"x_max":729,"o":"m 729 46 q 533 -18 635 -6 l 533 -133 l 393 -133 l 393 -19 q 151 104 235 -1 q 68 381 68 210 q 151 654 68 550 q 393 776 235 758 l 393 890 l 533 890 l 533 776 q 671 743 599 771 l 671 593 q 533 633 604 625 l 533 126 q 682 181 600 138 l 729 46 m 233 382 q 393 129 233 167 l 393 628 q 233 382 233 588 z "},"¤":{"ha":764,"x_min":56,"x_max":706,"o":"m 58 228 l 161 332 q 121 467 121 394 q 160 600 121 539 l 56 704 l 142 792 l 247 688 q 378 724 308 724 q 514 683 451 724 l 619 788 l 706 700 l 600 594 q 636 467 636 533 q 597 335 636 393 l 701 231 l 614 143 l 510 247 q 378 210 450 210 q 249 246 310 210 l 144 140 l 58 228 m 378 318 q 478 362 436 318 q 519 467 519 406 q 478 572 519 528 q 378 615 436 615 q 278 572 319 615 q 238 467 238 528 q 278 362 238 406 q 378 318 319 318 z "},"$":{"ha":799,"x_min":56,"x_max":718,"o":"m 718 254 q 646 67 718 139 q 444 -19 574 -4 l 444 -133 l 304 -133 l 304 -21 q 56 49 172 -8 l 56 199 q 304 122 172 136 l 304 401 l 299 404 q 122 497 185 436 q 60 676 60 558 q 128 870 60 800 q 322 953 196 940 l 322 1053 l 463 1053 l 463 950 q 563 929 515 944 q 664 888 610 914 l 664 740 q 463 807 569 793 l 463 524 l 485 518 q 660 426 601 486 q 718 254 718 365 m 218 686 q 243 610 218 636 q 322 565 268 583 l 322 811 q 218 686 218 794 m 560 244 q 531 317 560 290 q 444 361 501 343 l 444 124 q 533 166 507 135 q 560 244 560 197 z "},"€":{"ha":764,"x_min":53,"x_max":707,"o":"m 707 56 q 594 -6 651 13 q 463 -24 538 -24 q 154 297 204 -24 l 54 297 l 100 421 l 144 421 q 143 467 143 435 q 144 514 143 499 l 53 514 l 99 638 l 156 638 q 474 956 206 956 q 682 893 589 956 l 625 764 q 557 799 594 785 q 483 814 519 814 q 379 771 419 814 q 321 638 339 728 l 594 638 l 549 514 l 308 514 q 307 467 307 499 q 308 421 307 435 l 514 421 l 468 297 l 321 297 q 378 161 339 204 q 483 118 418 118 q 568 134 531 118 q 653 185 606 150 l 707 56 z "},"ƒ":{"ha":764,"x_min":150,"x_max":631,"o":"m 558 1049 q 496 1030 514 1049 q 472 963 478 1011 l 451 758 l 611 758 l 583 614 l 436 614 l 340 -325 l 182 -325 l 278 614 l 150 614 l 150 758 l 293 758 l 315 971 q 349 1104 324 1057 q 424 1172 374 1151 q 561 1193 474 1193 q 631 1188 597 1193 l 631 1043 q 558 1049 599 1049 z "},"₹":{"ha":764,"x_min":69,"x_max":696,"o":"m 543 792 l 543 693 l 696 693 l 696 576 l 543 576 l 543 521 q 474 350 543 401 q 258 296 406 299 l 258 271 q 300 128 258 168 q 442 89 342 89 l 615 89 l 615 -28 l 442 -28 q 199 36 283 -28 q 114 271 114 100 l 114 489 l 258 489 l 258 413 q 367 435 335 414 q 399 521 399 457 l 399 576 l 69 576 l 69 693 l 399 693 l 399 792 l 69 792 l 69 908 l 696 908 l 696 792 l 543 792 z "},"£":{"ha":764,"x_min":58,"x_max":711,"o":"m 711 144 l 711 0 l 58 0 l 58 144 l 190 144 l 190 415 l 100 415 l 100 560 l 190 560 l 190 669 q 216 837 190 775 q 301 927 242 899 q 465 956 360 956 q 554 949 508 956 q 626 931 600 942 l 626 782 q 482 811 564 811 q 377 781 406 811 q 349 668 349 750 l 349 560 l 560 560 l 560 415 l 349 415 l 349 144 l 711 144 z "},"¥":{"ha":764,"x_min":8,"x_max":757,"o":"m 515 501 l 667 501 l 667 378 l 463 378 l 463 285 l 667 285 l 667 161 l 463 161 l 463 0 l 301 0 l 301 161 l 97 161 l 97 285 l 301 285 l 301 378 l 97 378 l 97 501 l 249 501 l 8 936 l 168 936 l 382 540 l 597 936 l 757 936 l 515 501 z "},"≈":{"ha":764,"x_min":63,"x_max":700,"o":"m 493 486 q 425 499 456 486 q 357 535 394 511 q 308 562 328 553 q 267 571 289 571 q 205 553 233 571 q 132 499 176 536 l 63 594 q 163 679 117 650 q 261 708 208 708 q 330 696 300 708 q 400 660 360 683 q 447 633 426 642 q 488 624 467 624 q 552 640 524 624 q 625 696 581 657 l 693 600 q 593 515 638 543 q 493 486 549 486 m 500 208 q 432 221 463 208 q 364 257 401 233 q 315 284 335 275 q 274 293 296 293 q 212 276 240 293 q 139 221 183 258 l 69 317 q 169 401 124 372 q 268 431 215 431 q 337 418 307 431 q 407 382 367 406 q 453 355 433 364 q 494 346 474 346 q 559 363 531 346 q 632 418 588 379 l 700 322 q 600 237 644 265 q 500 208 556 208 z "},"~":{"ha":764,"x_min":53,"x_max":711,"o":"m 511 368 q 436 383 468 368 q 361 425 404 397 q 308 457 329 447 q 264 467 288 467 q 199 448 229 467 q 122 388 169 429 l 53 483 q 153 574 106 543 q 258 604 200 604 q 337 590 303 604 q 413 547 371 575 q 463 517 442 526 q 506 507 483 507 q 571 524 542 507 q 643 576 600 540 l 711 482 q 614 397 660 426 q 511 368 568 368 z "},"÷":{"ha":764,"x_min":93,"x_max":671,"o":"m 93 54 m 296 285 l 468 285 l 468 54 l 296 54 l 296 285 m 93 540 l 671 540 l 671 396 l 93 396 l 93 540 m 296 889 l 468 889 l 468 658 l 296 658 l 296 889 z "},"=":{"ha":764,"x_min":93,"x_max":671,"o":"m 93 679 l 671 679 l 671 535 l 93 535 l 93 679 m 93 401 l 671 401 l 671 257 l 93 257 l 93 401 z "},">":{"ha":764,"x_min":97,"x_max":671,"o":"m 97 104 m 497 465 l 97 231 l 168 104 l 671 401 l 671 529 l 167 828 l 97 700 l 497 465 z "},"≥":{"ha":764,"x_min":85,"x_max":671,"o":"m 85 0 m 496 494 l 85 299 l 136 176 l 671 438 l 671 551 l 136 819 l 85 697 l 496 494 m 671 144 l 93 144 l 93 0 l 671 0 l 671 144 z "},"∆":{"ha":1047,"x_min":39,"x_max":1010,"o":"m 1010 0 l 39 0 l 428 1065 l 619 1065 l 1010 0 m 790 144 l 524 878 l 257 144 l 790 144 z "},"∞":{"ha":764,"x_min":14,"x_max":750,"o":"m 536 694 q 691 631 632 694 q 750 467 750 568 q 691 301 750 365 q 536 238 632 238 q 437 264 481 238 q 367 336 393 290 q 303 279 342 300 q 217 258 264 258 q 72 317 129 258 q 14 467 14 375 q 72 617 14 558 q 217 675 129 675 q 303 654 264 675 q 368 597 342 633 q 438 669 394 643 q 536 694 482 694 m 529 361 q 598 390 572 361 q 624 467 624 418 q 598 542 624 514 q 529 571 572 571 q 460 542 486 571 q 433 467 433 514 q 460 390 433 418 q 529 361 486 361 m 224 382 q 284 404 261 382 q 307 467 307 426 q 284 529 307 507 q 224 551 261 551 q 163 529 186 551 q 140 467 140 507 q 163 404 140 426 q 224 382 186 382 z "},"∫":{"ha":764,"x_min":150,"x_max":614,"o":"m 511 1193 q 614 1181 560 1193 l 614 1040 q 542 1049 583 1049 q 478 1029 494 1049 q 461 957 461 1010 l 461 -132 q 414 -299 461 -249 q 254 -349 367 -349 q 150 -336 218 -349 l 150 -196 q 224 -204 183 -204 q 286 -179 269 -204 q 303 -83 303 -154 l 303 1004 q 352 1148 303 1103 q 511 1193 401 1193 z "},"<":{"ha":764,"x_min":93,"x_max":667,"o":"m 267 465 l 667 231 l 596 104 l 93 401 l 93 529 l 597 828 l 667 700 l 267 465 z "},"≤":{"ha":764,"x_min":93,"x_max":679,"o":"m 268 494 l 679 299 l 628 176 l 93 438 l 93 551 l 628 819 l 679 697 l 268 494 m 93 144 l 671 144 l 671 0 l 93 0 l 93 144 z "},"¬":{"ha":764,"x_min":93,"x_max":671,"o":"m 671 540 l 671 179 l 524 179 l 524 396 l 93 396 l 93 540 l 671 540 z "},"−":{"ha":764,"x_min":93,"x_max":671,"o":"m 93 540 l 671 540 l 671 396 l 93 396 l 93 540 z "},"≠":{"ha":833,"x_min":93,"x_max":671,"o":"m 489 535 l 450 401 l 671 401 l 671 257 l 410 257 l 372 125 l 211 125 l 249 257 l 93 257 l 93 401 l 289 401 l 328 535 l 93 535 l 93 679 l 368 679 l 401 797 l 563 797 l 529 679 l 671 679 l 671 535 l 489 535 z "},"∂":{"ha":857,"x_min":58,"x_max":792,"o":"m 379 1072 q 683 787 574 958 q 792 408 792 615 q 696 93 792 210 q 419 -24 600 -24 q 230 22 311 -24 q 103 151 149 68 q 58 343 58 235 q 104 543 58 460 q 225 669 150 626 q 389 711 300 711 q 571 657 486 711 q 446 825 525 747 q 260 963 367 903 l 379 1072 m 631 400 q 625 481 631 446 q 530 544 582 521 q 421 567 478 567 q 279 511 339 567 q 219 343 219 456 q 276 180 219 239 q 422 121 333 121 q 574 193 519 121 q 631 400 629 265 z "},"%":{"ha":1422,"x_min":44,"x_max":1378,"o":"m 939 1074 l 1075 1074 l 496 -46 l 360 -46 l 939 1074 m 331 431 q 182 469 247 431 q 81 572 117 507 q 44 717 44 638 q 81 861 44 796 q 182 964 117 926 q 331 1001 247 1001 q 480 964 415 1001 q 580 861 544 926 q 615 717 615 796 q 580 572 615 638 q 479 469 544 507 q 331 431 414 431 m 331 546 q 445 595 403 546 q 488 717 488 644 q 445 838 488 789 q 331 886 403 886 q 216 838 260 886 q 172 717 172 789 q 216 595 172 644 q 331 546 260 546 m 1093 -24 q 944 15 1010 -24 q 843 118 879 53 q 807 263 807 183 q 843 407 807 342 q 944 510 879 472 q 1093 547 1010 547 q 1242 510 1178 547 q 1342 407 1307 472 q 1378 263 1378 342 q 1342 118 1378 183 q 1242 15 1307 53 q 1093 -24 1176 -24 m 1093 92 q 1208 141 1165 92 q 1250 263 1250 190 q 1208 384 1250 336 q 1093 432 1165 432 q 978 383 1022 432 q 935 263 935 335 q 978 141 935 190 q 1093 92 1022 92 z "},"‰":{"ha":2061,"x_min":44,"x_max":2017,"o":"m 939 1074 l 1075 1074 l 496 -46 l 360 -46 l 939 1074 m 331 431 q 182 469 247 431 q 81 572 117 507 q 44 717 44 638 q 81 861 44 796 q 182 964 117 926 q 331 1001 247 1001 q 480 964 415 1001 q 580 861 544 926 q 615 717 615 796 q 580 572 615 638 q 479 469 544 507 q 331 431 414 431 m 331 546 q 445 595 403 546 q 488 717 488 644 q 445 838 488 789 q 331 886 403 886 q 216 838 260 886 q 172 717 172 789 q 216 595 172 644 q 331 546 260 546 m 1093 -24 q 944 15 1010 -24 q 843 118 879 53 q 807 263 807 183 q 843 407 807 342 q 944 510 879 472 q 1093 547 1010 547 q 1242 510 1178 547 q 1342 407 1307 472 q 1378 263 1378 342 q 1342 118 1378 183 q 1242 15 1307 53 q 1093 -24 1176 -24 m 1732 -24 q 1583 15 1649 -24 q 1482 118 1518 53 q 1446 263 1446 183 q 1482 407 1446 342 q 1583 510 1518 472 q 1732 547 1649 547 q 1881 510 1817 547 q 1981 407 1946 472 q 2017 263 2017 342 q 1981 118 2017 183 q 1881 15 1946 53 q 1732 -24 1815 -24 m 1093 92 q 1208 141 1165 92 q 1250 263 1250 190 q 1208 384 1250 336 q 1093 432 1165 432 q 978 383 1022 432 q 935 263 935 335 q 978 141 935 190 q 1093 92 1022 92 m 1732 92 q 1847 141 1804 92 q 1889 263 1889 190 q 1847 384 1889 336 q 1732 432 1804 432 q 1617 383 1661 432 q 1574 263 1574 335 q 1617 141 1574 190 q 1732 92 1661 92 z "},"+":{"ha":764,"x_min":93,"x_max":671,"o":"m 671 396 l 456 396 l 456 179 l 308 178 l 308 396 l 93 396 l 93 540 l 308 540 l 308 756 l 456 757 l 456 540 l 671 540 l 671 396 z "},"±":{"ha":764,"x_min":93,"x_max":671,"o":"m 93 0 m 671 396 l 456 396 l 456 179 l 308 178 l 308 396 l 93 396 l 93 540 l 308 540 l 308 756 l 456 757 l 456 540 l 671 540 l 671 396 m 93 110 l 671 110 l 671 -35 l 93 -35 l 93 110 z "},"∏":{"ha":1107,"x_min":139,"x_max":968,"o":"m 968 -329 l 804 -329 l 804 908 l 303 908 l 303 -329 l 139 -329 l 139 1053 l 968 1053 l 968 -329 z "},"√":{"ha":972,"x_min":50,"x_max":1060,"o":"m 1060 1304 l 600 -240 l 468 -240 l 224 347 l 126 276 l 50 400 l 285 569 l 528 -14 l 910 1304 l 1060 1304 z "},"∑":{"ha":978,"x_min":111,"x_max":894,"o":"m 894 -185 l 894 -329 l 111 -329 l 111 -187 l 506 361 l 111 911 l 111 1053 l 881 1053 l 881 908 l 317 908 l 679 403 l 679 321 l 317 -185 l 894 -185 z "},"◌":{"ha":1069,"x_min":129,"x_max":940,"o":"m 536 742 q 496 758 513 742 q 479 799 479 775 q 496 838 479 821 q 536 856 513 856 q 576 838 558 856 q 593 799 593 821 q 576 758 593 775 q 536 742 558 742 m 358 697 q 319 714 336 697 q 303 754 303 731 q 319 794 303 778 q 358 811 336 811 q 399 794 382 811 q 415 754 415 778 q 399 715 415 732 q 358 697 382 697 m 708 697 q 669 715 686 697 q 651 754 651 732 q 669 794 651 778 q 708 811 686 811 q 749 794 732 811 q 765 754 765 778 q 749 714 765 731 q 708 697 732 697 m 229 568 q 189 585 206 568 q 172 625 172 601 q 189 665 172 649 q 229 682 206 682 q 269 665 253 682 q 286 625 286 649 q 269 585 286 601 q 229 568 253 568 m 840 568 q 800 585 817 568 q 783 625 783 601 q 801 665 783 649 q 840 682 818 682 q 881 665 864 682 q 897 625 897 649 q 881 585 897 601 q 840 568 864 568 m 186 392 q 146 408 163 392 q 129 449 129 425 q 146 489 129 472 q 186 506 163 506 q 226 489 210 506 q 243 449 243 472 q 226 409 243 426 q 186 392 210 392 m 883 392 q 844 409 861 392 q 828 449 828 426 q 844 489 828 472 q 883 506 861 506 q 924 489 907 506 q 940 449 940 472 q 924 408 940 425 q 883 392 907 392 m 229 217 q 189 233 206 217 q 172 274 172 250 q 189 313 172 297 q 229 329 206 329 q 269 313 253 329 q 286 274 286 296 q 269 234 286 251 q 229 217 253 217 m 840 217 q 801 234 818 217 q 783 274 783 251 q 800 313 783 296 q 840 329 817 329 q 881 313 864 329 q 897 274 897 297 q 881 233 897 250 q 840 217 864 217 m 358 85 q 319 101 336 85 q 303 142 303 118 q 319 181 303 165 q 358 197 336 197 q 399 181 382 197 q 415 142 415 164 q 399 102 415 119 q 358 85 382 85 m 708 85 q 669 102 686 85 q 651 142 651 119 q 668 181 651 164 q 708 197 685 197 q 749 181 732 197 q 765 142 765 165 q 749 101 765 118 q 708 85 732 85 m 536 42 q 496 58 513 42 q 479 99 479 75 q 496 139 479 122 q 536 156 513 156 q 576 139 558 156 q 593 99 593 122 q 576 59 593 76 q 536 42 558 42 z "},"◊":{"ha":764,"x_min":44,"x_max":726,"o":"m 726 468 l 450 0 l 322 0 l 44 468 l 322 936 l 450 936 l 726 468 m 560 468 l 385 763 l 213 468 l 386 174 l 560 468 z "},"|":{"ha":439,"x_min":139,"x_max":300,"o":"m 139 1176 l 300 1176 l 300 -179 l 139 -179 l 139 1176 z "},"¦":{"ha":439,"x_min":139,"x_max":300,"o":"m 139 1176 l 300 1176 l 300 654 l 139 654 l 139 1176 m 139 343 l 300 343 l 300 -179 l 139 -179 l 139 343 z "},"@":{"ha":1369,"x_min":79,"x_max":1290,"o":"m 899 221 q 890 176 890 196 q 906 138 890 150 q 957 126 922 126 q 1069 174 1022 126 q 1140 301 1115 222 q 1164 468 1164 379 q 1048 785 1164 674 q 725 896 932 896 q 468 822 588 896 q 277 616 349 749 q 206 317 206 483 q 258 52 206 165 q 415 -124 310 -61 q 675 -187 519 -187 q 850 -162 767 -187 q 1025 -86 933 -136 l 1067 -190 q 874 -268 964 -242 q 675 -294 783 -294 q 365 -223 500 -294 q 155 -13 231 -151 q 79 317 79 125 q 167 672 79 515 q 403 916 256 829 q 725 1003 551 1003 q 1025 938 897 1003 q 1222 751 1153 872 q 1290 468 1290 631 q 1245 235 1290 338 q 1120 76 1200 133 q 938 19 1040 19 q 821 47 865 19 q 765 124 776 74 q 677 60 725 82 q 581 38 629 38 q 428 97 486 38 q 369 269 369 157 q 416 491 369 392 q 542 647 463 590 q 718 703 622 703 q 883 622 831 703 l 901 681 l 1035 681 l 899 221 m 603 156 q 782 272 700 156 l 853 517 q 728 586 799 586 q 613 542 664 586 q 533 428 561 499 q 503 278 504 357 q 527 183 503 211 q 603 156 551 156 z "},"&":{"ha":1131,"x_min":65,"x_max":1089,"o":"m 1089 144 l 1089 0 l 1022 0 q 740 97 883 0 q 591 8 671 39 q 425 -24 511 -24 q 158 58 251 -24 q 65 278 65 140 q 119 451 65 382 q 272 583 174 521 q 198 706 224 647 q 172 831 172 764 q 248 1014 172 946 q 443 1082 324 1082 q 636 1017 563 1082 q 710 840 710 953 q 657 696 710 763 q 518 574 604 629 l 489 556 q 606 424 539 494 q 733 300 672 354 q 810 478 783 378 q 839 692 838 578 l 1003 692 q 961 435 1003 560 q 846 211 919 311 q 940 160 897 176 q 1024 144 982 144 l 1089 144 m 443 947 q 363 916 389 947 q 336 831 336 885 q 352 749 336 788 q 401 664 368 710 l 440 688 q 519 760 492 719 q 546 843 546 801 q 521 919 546 890 q 443 947 496 947 m 229 282 q 279 165 229 211 q 425 118 329 118 q 628 186 539 118 q 361 472 525 282 q 260 383 290 425 q 229 282 229 342 z "},"¶":{"ha":1000,"x_min":60,"x_max":861,"o":"m 436 394 l 396 394 q 144 478 228 394 q 60 722 60 563 q 396 1053 60 1053 l 861 1053 l 861 -139 l 714 -139 l 714 911 l 583 911 l 583 -139 l 436 -139 l 436 394 z "},"©":{"ha":1299,"x_min":93,"x_max":1206,"o":"m 650 -24 q 369 48 497 -24 q 167 244 242 119 q 93 525 93 369 q 168 798 93 672 q 371 998 243 924 q 650 1072 499 1072 q 926 998 799 1072 q 1130 798 1054 924 q 1206 525 1206 672 q 1131 245 1206 371 q 928 48 1056 119 q 650 -24 800 -24 m 650 90 q 863 147 764 90 q 1021 303 961 204 q 1081 525 1081 403 q 1021 740 1081 640 q 862 899 961 840 q 650 958 763 958 q 435 899 533 958 q 278 741 336 840 q 219 525 219 642 q 277 303 219 403 q 433 147 335 204 q 650 90 532 90 m 664 215 q 496 256 565 215 q 392 368 426 297 q 357 525 357 439 q 435 747 357 661 q 664 833 513 833 q 740 827 707 833 q 808 806 772 821 l 808 679 q 664 713 746 713 q 539 660 585 713 q 493 528 493 608 q 538 388 493 438 q 664 338 582 338 q 744 347 706 338 q 828 376 783 357 l 856 264 q 760 228 810 240 q 664 215 710 215 z "},"®":{"ha":1001,"x_min":99,"x_max":903,"o":"m 501 1068 q 702 1014 610 1068 q 849 868 794 960 q 903 671 903 776 q 849 467 903 558 q 702 324 794 376 q 501 272 610 272 q 298 324 390 272 q 152 467 206 375 q 99 671 99 558 q 153 868 99 776 q 299 1014 207 960 q 501 1068 392 1068 m 501 365 q 653 406 583 365 q 765 516 724 446 q 807 674 807 586 q 765 824 807 754 q 652 934 722 893 q 501 975 582 975 q 348 933 418 975 q 236 822 278 892 q 194 671 194 753 q 235 515 194 585 q 347 405 276 444 q 501 365 418 365 m 663 739 q 589 617 663 644 l 682 469 l 575 469 l 494 603 l 439 603 l 439 469 l 346 469 l 346 872 l 508 872 q 624 840 585 872 q 663 739 663 808 m 439 683 l 496 683 q 551 695 536 683 q 567 739 567 707 q 551 780 567 768 q 496 792 536 792 l 439 792 l 439 683 z "},"§":{"ha":764,"x_min":50,"x_max":714,"o":"m 714 417 q 576 233 713 292 q 651 72 651 175 q 576 -85 651 -29 q 371 -142 501 -142 q 244 -133 301 -142 q 132 -101 188 -124 l 132 42 q 371 -7 238 -7 q 469 15 438 -7 q 501 72 501 36 q 475 128 501 108 q 401 161 449 149 l 288 193 q 163 237 213 213 q 81 304 113 261 q 50 415 50 347 q 186 592 50 538 q 119 746 119 647 q 192 902 119 849 q 390 956 264 956 q 518 945 463 956 q 631 910 574 935 l 631 768 q 517 808 574 796 q 390 821 460 821 q 300 801 331 821 q 269 746 269 782 q 293 694 269 711 q 361 664 317 676 l 475 632 q 649 554 585 601 q 714 417 714 507 m 457 289 q 564 399 564 322 q 528 460 564 438 q 419 504 493 483 l 314 533 q 303 536 311 533 q 200 433 200 506 q 215 383 201 401 q 257 351 228 364 q 343 321 286 338 l 449 292 l 457 289 z "},"™":{"ha":1583,"x_min":56,"x_max":1444,"o":"m 586 922 l 392 922 l 392 300 l 251 300 l 251 922 l 56 922 l 56 1053 l 586 1053 l 586 922 m 1444 1053 l 1444 300 l 1304 300 l 1304 828 l 1111 563 l 1039 563 l 846 828 l 846 300 l 706 300 l 706 1053 l 828 1053 l 1075 714 l 1322 1053 l 1444 1053 z "},"°":{"ha":657,"x_min":51,"x_max":606,"o":"m 329 415 q 190 453 254 415 q 89 554 126 490 q 51 693 51 618 q 89 831 51 768 q 190 932 126 894 q 329 969 254 969 q 468 933 404 969 q 569 833 532 896 q 606 693 606 769 q 568 554 606 618 q 467 453 531 490 q 329 415 404 415 m 329 543 q 430 587 390 543 q 469 693 469 631 q 430 799 469 757 q 329 842 390 842 q 228 799 268 842 q 188 693 188 756 q 228 587 188 631 q 329 543 268 543 z "},"^":{"ha":764,"x_min":21,"x_max":743,"o":"m 617 172 l 381 571 l 147 172 l 21 243 l 318 744 l 446 744 l 743 242 l 617 172 z "},"†":{"ha":644,"x_min":49,"x_max":596,"o":"m 596 738 l 403 738 l 403 65 l 242 65 l 242 738 l 49 738 l 49 889 l 242 889 l 242 1118 l 403 1118 l 403 889 l 596 889 l 596 738 z "},"‡":{"ha":644,"x_min":49,"x_max":596,"o":"m 403 738 l 403 472 l 596 472 l 596 321 l 403 321 l 403 -249 l 242 -249 l 242 321 l 49 321 l 49 472 l 242 472 l 242 738 l 49 738 l 49 889 l 242 889 l 242 1118 l 403 1118 l 403 889 l 596 889 l 596 738 l 403 738 z "},"ऽ":{"ha":674,"x_min":7,"x_max":621,"o":"m 7 117 l 183 117 q 344 149 296 117 q 393 253 393 181 q 363 343 393 304 q 271 438 333 382 q 191 515 221 482 q 140 593 161 547 q 118 694 118 639 q 179 851 118 794 q 372 908 240 908 l 621 908 l 621 792 l 407 792 q 295 769 328 792 q 263 694 263 746 q 291 614 263 650 q 378 525 319 578 q 462 444 431 478 q 515 361 493 410 q 538 253 538 313 q 460 66 538 132 q 218 0 383 0 l 7 0 l 7 117 z "},"ॐ":{"ha":1297,"x_min":49,"x_max":1239,"o":"m 813 979 l 710 1081 l 813 1183 l 915 1081 l 813 979 m 813 763 q 529 997 529 763 l 529 1018 l 660 1018 l 660 997 q 697 908 660 938 q 813 879 735 879 q 928 908 890 879 q 965 997 965 938 l 965 1018 l 1096 1018 l 1096 997 q 813 763 1096 763 m 954 686 q 1174 611 1110 686 q 1239 367 1239 536 q 1208 177 1239 247 q 1117 77 1178 107 q 961 47 1057 47 l 940 47 q 742 106 808 47 q 664 308 675 165 l 496 308 l 496 301 q 392 113 496 171 q 129 56 289 56 l 49 56 l 49 172 l 129 172 q 288 203 225 172 q 351 315 351 233 q 312 403 351 375 q 183 432 272 432 l 113 432 l 113 549 l 185 549 q 310 584 269 549 q 351 678 351 619 q 307 766 351 740 q 171 792 263 792 l 92 792 l 92 908 l 171 908 q 417 859 338 908 q 496 694 496 810 q 465 576 496 625 q 369 494 433 526 q 463 425 429 475 l 664 425 q 742 626 674 565 q 954 686 810 686 m 961 164 q 1035 181 1007 164 q 1079 242 1064 197 q 1094 367 1094 286 q 1062 526 1094 482 q 954 569 1029 569 q 869 552 901 569 q 822 490 838 535 q 807 367 807 446 q 822 241 807 285 q 868 181 838 197 q 949 164 899 164 l 961 164 z "},"̦":{"ha":903,"x_min":-572,"x_max":-361,"o":"m -528 -111 l -361 -111 l -421 -342 l -572 -342 l -528 -111 z "},"´":{"ha":903,"x_min":326,"x_max":654,"o":"m 469 1124 l 654 1124 l 486 911 l 326 911 l 469 1124 z "},"˘":{"ha":903,"x_min":231,"x_max":676,"o":"m 453 907 q 290 956 350 907 q 231 1101 231 1004 l 231 1121 l 356 1121 l 356 1104 q 379 1032 356 1056 q 453 1008 403 1008 q 527 1032 504 1008 q 550 1104 550 1056 l 550 1121 l 675 1121 l 675 1101 q 617 956 676 1004 q 453 907 558 907 z "},"ˇ":{"ha":901,"x_min":203,"x_max":699,"o":"m 699 1124 l 551 911 l 350 911 l 203 1124 l 367 1124 l 451 978 l 535 1124 l 699 1124 z "},"¸":{"ha":903,"x_min":306,"x_max":631,"o":"m 479 -81 q 591 -118 551 -81 q 631 -217 631 -156 q 583 -325 631 -285 q 447 -365 536 -365 q 374 -360 407 -365 q 306 -337 340 -354 l 306 -239 q 433 -268 369 -268 q 492 -254 474 -268 q 511 -219 511 -240 q 438 -175 511 -175 q 328 -194 382 -175 l 385 1 l 497 1 l 471 -81 l 479 -81 z "},"ˆ":{"ha":901,"x_min":203,"x_max":699,"o":"m 535 911 l 451 1057 l 367 911 l 203 911 l 350 1124 l 551 1124 l 699 911 l 535 911 z "},"¨":{"ha":903,"x_min":235,"x_max":668,"o":"m 524 1108 l 668 1108 l 668 926 l 524 926 l 524 1108 m 235 1108 l 379 1108 l 379 926 l 235 926 l 235 1108 z "},"˙":{"ha":903,"x_min":374,"x_max":532,"o":"m 374 1108 l 532 1108 l 532 926 l 374 926 l 374 1108 z "},"`":{"ha":903,"x_min":250,"x_max":578,"o":"m 250 1124 l 435 1124 l 578 911 l 418 911 l 250 1124 z "},"˝":{"ha":901,"x_min":196,"x_max":785,"o":"m 614 1124 l 785 1124 l 617 911 l 471 911 l 614 1124 m 339 1124 l 510 1124 l 342 911 l 196 911 l 339 1124 z "},"¯":{"ha":901,"x_min":236,"x_max":665,"o":"m 236 1072 l 665 1072 l 665 964 l 236 964 l 236 1072 z "},"˛":{"ha":903,"x_min":290,"x_max":553,"o":"m 460 -337 q 333 -303 375 -337 q 290 -208 290 -268 q 418 0 290 -100 l 553 0 q 452 -95 488 -50 q 417 -185 417 -140 q 481 -237 417 -237 q 553 -221 519 -237 l 553 -321 q 460 -337 507 -337 z "},"˚":{"ha":901,"x_min":301,"x_max":600,"o":"m 451 889 q 341 925 381 889 q 301 1017 301 961 q 340 1108 301 1074 q 451 1143 379 1143 q 562 1108 524 1143 q 600 1017 600 1074 q 561 924 600 960 q 451 889 522 889 m 451 963 q 493 977 478 963 q 508 1017 508 992 q 493 1056 508 1042 q 451 1071 478 1071 q 409 1056 425 1071 q 393 1017 393 1042 q 409 977 393 992 q 451 963 425 963 z "},"˜":{"ha":901,"x_min":221,"x_max":681,"o":"m 221 929 q 347 1097 224 1097 q 428 1079 386 1097 l 479 1057 q 528 1043 515 1043 q 563 1097 563 1043 l 681 1097 q 556 929 679 929 q 475 947 517 929 l 424 969 q 375 983 390 983 q 339 929 339 983 l 221 929 z "},"ु":{"ha":0,"x_min":-629,"x_max":99,"o":"m -181 -426 q -427 -373 -319 -426 q -629 -237 -535 -319 l -551 -150 q -381 -267 -468 -225 q -187 -310 -293 -310 q -82 -284 -118 -310 q -46 -208 -46 -258 q -75 -140 -46 -164 q -158 -115 -104 -115 l -293 -115 l -293 1 l -143 1 q 31 -53 -36 1 q 99 -203 97 -107 q 23 -369 99 -312 q -181 -426 -53 -426 z "},"ू":{"ha":0,"x_min":-496,"x_max":240,"o":"m -254 -417 q -428 -363 -362 -417 q -496 -212 -494 -310 q -420 -46 -496 -103 q -217 11 -344 11 q -22 -34 -106 11 q 119 -145 63 -79 q 240 -310 176 -211 l 135 -381 q 26 -229 69 -283 q -76 -140 -18 -175 q -210 -106 -133 -106 q -315 -132 -279 -106 q -351 -208 -351 -158 q -322 -276 -351 -251 q -239 -300 -293 -300 l -140 -300 l -140 -417 l -254 -417 z "},"ृ":{"ha":0,"x_min":-406,"x_max":-14,"o":"m -167 -342 q -347 -296 -289 -342 q -406 -151 -406 -250 q -351 -11 -406 -61 q -181 39 -296 39 l -118 39 l -118 -71 l -174 -71 q -243 -91 -218 -71 q -268 -151 -268 -111 q -241 -213 -268 -194 q -160 -232 -214 -232 q -86 -220 -121 -232 q -14 -182 -51 -208 l -14 -301 q -167 -342 -85 -342 z "},"ॄ":{"ha":0,"x_min":-400,"x_max":19,"o":"m -126 -419 q 19 -376 -47 -419 l 19 -496 q -133 -529 -47 -529 q -309 -489 -253 -529 q -365 -361 -365 -449 q -306 -236 -365 -278 q -400 -100 -400 -200 q -351 19 -400 -22 q -189 60 -303 60 q -106 53 -135 60 l -106 -57 q -182 -50 -140 -50 q -244 -66 -226 -50 q -262 -112 -262 -82 q -238 -160 -262 -144 q -147 -176 -214 -176 l -78 -176 l -78 -258 l -92 -258 l -92 -279 l -140 -279 q -228 -347 -228 -279 q -204 -403 -228 -386 q -126 -419 -181 -419 z "},"ॢ":{"ha":0,"x_min":-706,"x_max":7,"o":"m -104 -542 q 7 -503 -50 -542 l 7 -614 q -129 -647 -36 -647 q -254 -609 -208 -647 q -300 -511 -300 -571 q -281 -442 -300 -472 q -224 -374 -261 -412 q -174 -315 -190 -339 q -158 -261 -158 -290 q -225 -200 -158 -200 q -284 -226 -264 -200 q -304 -300 -304 -253 l -304 -347 l -412 -347 l -412 -300 q -434 -226 -414 -253 q -494 -200 -454 -200 q -556 -228 -535 -200 q -576 -307 -576 -257 q -542 -411 -575 -371 q -424 -451 -510 -451 l -412 -451 l -412 -558 l -424 -558 q -640 -485 -575 -558 q -706 -303 -706 -411 q -656 -140 -706 -200 q -511 -81 -607 -81 q -361 -156 -410 -81 q -276 -92 -328 -110 l -276 97 l -132 97 l -132 -93 q -56 -153 -82 -111 q -29 -249 -29 -194 q -53 -347 -29 -307 q -118 -432 -76 -387 q -153 -473 -143 -458 q -164 -503 -164 -487 q -104 -542 -164 -542 z "},"ॣ":{"ha":0,"x_min":-706,"x_max":29,"o":"m -74 -739 q 29 -706 -18 -739 l 29 -817 q -99 -844 -14 -844 q -224 -810 -179 -844 q -268 -711 -268 -776 q -237 -619 -268 -660 q -301 -511 -301 -579 q -282 -442 -301 -472 q -225 -374 -262 -412 q -175 -315 -192 -340 q -158 -261 -158 -290 q -226 -201 -158 -201 q -284 -227 -264 -201 q -304 -300 -304 -253 l -304 -343 l -325 -343 l -325 -347 l -412 -347 l -412 -300 q -434 -226 -414 -253 q -494 -200 -454 -200 q -556 -228 -535 -200 q -576 -307 -576 -257 q -542 -411 -575 -371 q -424 -451 -510 -451 l -412 -451 l -412 -558 l -424 -558 q -640 -485 -575 -558 q -706 -303 -706 -411 q -656 -140 -706 -200 q -511 -81 -607 -81 q -361 -156 -410 -81 q -276 -92 -328 -110 l -276 97 l -132 97 l -132 -93 q -56 -153 -82 -111 q -29 -249 -29 -194 q -53 -347 -29 -307 q -119 -432 -78 -387 q -155 -473 -144 -458 q -165 -503 -165 -487 q -106 -542 -165 -542 q -24 -518 -65 -542 l -24 -629 q -100 -647 -50 -643 l -114 -647 q -132 -697 -132 -671 q -118 -729 -132 -719 q -74 -739 -104 -739 z "},"ॅ":{"ha":0,"x_min":-475,"x_max":92,"o":"m -192 986 q -475 1221 -475 986 l -475 1242 l -344 1242 l -344 1221 q -307 1132 -344 1161 q -192 1103 -269 1103 q -76 1132 -114 1103 q -39 1221 -39 1161 l -39 1242 l 92 1242 l 92 1221 q -192 986 92 986 z "},"ँ":{"ha":0,"x_min":-475,"x_max":92,"o":"m 0 986 m -192 986 q -475 1221 -475 986 l -475 1242 l -344 1242 l -344 1221 q -307 1132 -344 1161 q -192 1103 -269 1103 q -76 1132 -114 1103 q -39 1221 -39 1161 l -39 1242 l 92 1242 l 92 1221 q -192 986 92 986 m -294 1313 l -192 1415 l -89 1313 l -192 1211 l -294 1313 z "},"ॆ":{"ha":833,"x_min":-1776,"x_max":-951,"o":"m -1096 936 q -1108 1017 -1096 988 q -1151 1060 -1119 1046 q -1244 1074 -1183 1074 l -1476 1074 q -1660 1101 -1594 1074 q -1751 1185 -1725 1129 q -1776 1335 -1776 1240 l -1776 1369 l -1632 1369 l -1632 1335 q -1622 1249 -1632 1278 q -1578 1205 -1611 1219 q -1476 1190 -1544 1190 l -1244 1190 q -1056 1164 -1119 1190 q -972 1085 -993 1138 q -951 936 -951 1032 l -951 867 l -1096 867 l -1096 936 z "},"े":{"ha":0,"x_min":-558,"x_max":-117,"o":"m -304 1053 q -348 1142 -318 1119 q -440 1165 -378 1165 l -558 1165 l -558 1282 l -440 1282 q -303 1265 -354 1282 q -217 1200 -251 1249 q -160 1053 -182 1151 l -117 867 l -261 867 l -304 1053 z "},"ै":{"ha":0,"x_min":-708,"x_max":-117,"o":"m -117 867 l -261 867 l -344 971 q -435 1043 -387 1024 q -576 1063 -482 1063 l -708 1063 l -708 1179 l -576 1179 q -444 1168 -494 1179 q -358 1132 -394 1157 q -283 1060 -322 1107 l -311 1181 q -358 1258 -324 1238 q -465 1278 -393 1278 l -583 1278 l -583 1394 l -465 1394 q -328 1378 -379 1394 q -242 1317 -276 1363 q -187 1181 -208 1271 l -117 867 z "},"ं":{"ha":0,"x_min":-294,"x_max":-89,"o":"m -294 1075 l -192 1178 l -89 1075 l -192 974 l -294 1075 z "},"्":{"ha":0,"x_min":-303,"x_max":63,"o":"m -303 -179 l -219 -85 l 63 -301 l -24 -397 l -303 -179 z "},"़":{"ha":0,"x_min":-353,"x_max":-147,"o":"m -353 -162 l -250 -60 l -147 -162 l -250 -264 l -353 -162 z "},"ऺ":{"ha":0,"x_min":-262,"x_max":-118,"o":"m -262 1254 l -118 1254 l -118 851 l -262 851 l -262 1254 z "},"ॖ":{"ha":0,"x_min":-517,"x_max":133,"o":"m -192 -292 q -385 -247 -300 -292 q -517 -128 -469 -201 l -428 -57 q -323 -144 -381 -114 q -192 -175 -265 -175 q -60 -144 -118 -175 q 44 -57 -3 -114 l 133 -128 q 1 -247 86 -201 q -192 -292 -83 -292 z "},"ॗ":{"ha":0,"x_min":-517,"x_max":133,"o":"m -192 -292 q -385 -247 -300 -292 q -517 -128 -469 -201 l -428 -57 q -323 -144 -381 -114 q -192 -175 -265 -175 q -60 -144 -118 -175 q 44 -57 -3 -114 l 133 -128 q 1 -247 86 -201 q -192 -292 -83 -292 m -192 -535 q -385 -490 -300 -535 q -517 -371 -469 -444 l -428 -300 q -323 -387 -381 -357 q -192 -418 -265 -418 q -60 -387 -118 -418 q 44 -300 -3 -357 l 133 -371 q 1 -490 86 -444 q -192 -535 -83 -535 z "},"॑":{"ha":0,"x_min":-262,"x_max":-118,"o":"m -262 1392 l -118 1392 l -118 1026 l -262 1026 l -262 1392 z "},"॒":{"ha":0,"x_min":-535,"x_max":107,"o":"m -535 -278 l 107 -278 l 107 -408 l -535 -408 l -535 -278 z "},"॓":{"ha":0,"x_min":-589,"x_max":-197,"o":"m -589 1376 l -412 1376 l -197 1064 l -340 1064 l -589 1376 z "},"॔":{"ha":0,"x_min":-286,"x_max":106,"o":"m -71 1376 l 106 1376 l -143 1064 l -286 1064 l -71 1376 z "},"ः":{"ha":419,"x_min":107,"x_max":313,"o":"m 107 601 l 210 704 l 313 601 l 210 500 l 107 601 m 107 136 l 210 239 l 313 136 l 210 35 l 107 136 z "}}}
